<?xml version="1.0" encoding="UTF-8"?>
<svg width="4000px" height="1282px" viewBox="0 0 4000 1282" version="1.1" xmlns="http://www.w3.org/2000/svg" xmlns:xlink="http://www.w3.org/1999/xlink">
    <title>header</title>
    <g id="header" stroke="none" stroke-width="1" fill="none" fill-rule="evenodd">
        <g id="2" transform="translate(491.242554, 389.030540)" fill="#090F29">
            <polygon id="Path-10-Copy-12" points="209.322013 625.631309 227.131936 555.34876 281.099243 513.054057 235.500031 522.3261 267.912972 394.416272 305.054321 361.846413 273.407031 372.735299 342.772821 99 383.136832 243.290203 367.629457 239.290203 387.840484 260.104464 500.53663 662.962099 367.629457 646.732295 374.234532 809 325.698032 801 328.847894 639.741984"></polygon>
            <polygon id="Path-10-Copy-15" transform="translate(2802.929321, 355.000000) scale(-1, 1) translate(-2802.929321, -355.000000) " points="2657.32201 526.631309 2675.13194 456.34876 2729.09924 414.054057 2683.50003 423.3261 2715.91297 295.416272 2753.05432 262.846413 2721.40703 273.735299 2790.77282 -4.64654628e-15 2831.13683 144.290203 2815.62946 140.290203 2835.84048 161.104464 2948.53663 563.962099 2815.62946 547.732295 2822.23453 710 2773.69803 702 2776.84789 540.741984"></polygon>
            <polygon id="Path-10-Copy-13" points="377.322013 720.101986 388.156986 678.293454 412.259399 663.970163 392.57902 661.230308 474.014002 347 520.551788 509.667148 496.809633 501.727272 526.563726 530.681142 568.441994 677.061517 541.806274 667.893288 573.878254 696.063299 588.322013 746.549696 492.023916 735.051382 496.809633 782 461.642437 782 463.924675 730.098963"></polygon>
            <polygon id="Path-10-Copy-16" transform="translate(2969.822013, 419.500000) scale(-1, 1) translate(-2969.822013, -419.500000) " points="2864.32201 575.101986 2875.15699 533.293454 2899.2594 518.970163 2879.57902 516.230308 2961.014 202 3007.55179 364.667148 2983.80963 356.727272 3013.56373 385.681142 3055.44199 532.061517 3028.80627 522.893288 3060.87825 551.063299 3075.32201 601.549696 2979.02392 590.051382 2983.80963 637 2948.64244 637 2950.92467 585.098963"></polygon>
            <polygon id="Path-10-Copy-14" points="0.000173989077 731.928171 21.405786 651.506008 44.0786144 620.356244 28.2667234 624.98328 84.4667393 406 122.499222 538.937899 109.260312 532.689467 127.257225 555.568917 184.322013 755.031918 100.199538 744.987414 104.380164 786 73.6593951 786 75.653074 740.661163"></polygon>
            <polygon id="Path-10-Copy-17" transform="translate(2637.821913, 432.500000) scale(-1, 1) translate(-2637.821913, -432.500000) " points="2532.32201 588.101986 2556.82581 496.039772 2582.78023 460.38149 2564.67977 465.678228 2593.21279 354.499371 2613.37076 330.863569 2598.8129 332.678541 2629.014 215 2672.55119 367.17891 2657.39612 360.0261 2677.99785 386.21705 2715.80377 518.363035 2685.72232 504.052404 2724.19545 547.695145 2743.32201 614.549696 2647.02392 603.051382 2651.80963 650 2616.64244 650 2618.92467 598.098963"></polygon>
        </g>
    </g>
</svg>