<?xml version="1.0" encoding="UTF-8"?>
<svg width="4000px" height="1282px" viewBox="0 0 4000 1282" version="1.1" xmlns="http://www.w3.org/2000/svg" xmlns:xlink="http://www.w3.org/1999/xlink">
    <title>header</title>
    <defs>
        <ellipse id="path-1" cx="50" cy="136.64281" rx="50" ry="73"></ellipse>
        <ellipse id="path-2" cx="200.332172" cy="137.13064" rx="50" ry="73"></ellipse>
        <ellipse id="path-3" cx="50" cy="136.64281" rx="50" ry="73"></ellipse>
        <ellipse id="path-4" cx="200.332172" cy="137.13064" rx="50" ry="73"></ellipse>
        <ellipse id="path-5" cx="74.9598071" cy="140.891405" rx="74.9598071" ry="75.1085952"></ellipse>
        <ellipse id="path-6" cx="298.040193" cy="140.891405" rx="74.9598071" ry="75.1085952"></ellipse>
    </defs>
    <g id="header" stroke="none" stroke-width="1" fill="none" fill-rule="evenodd">
        <g id="3" transform="translate(1028.039062, 699.000000)">
            <path d="M0,452.78125 C0,452.78125 20.0039062,431.884549 40.4824219,424.309999 C60.9609375,416.73545 80.9492187,422.398831 88.5292969,428.199416 C96.109375,434 96.515625,431.279719 101.210937,434 C104.341146,435.81352 106.770182,440.99451 108.498047,449.542969 C36.1660156,451.701823 0,452.78125 0,452.78125 Z" id="Path-36" fill="#F7BF7F"></path>
            <path d="M756.226119,62 C749.182053,62.5011247 745.220424,66.5132245 743.193916,71.0109185 L742.976653,71.5125069 C742.941751,71.5963868 742.907497,71.6803948 742.873885,71.7645117 L742.679858,72.2703659 C742.493414,72.7772193 742.32955,73.2866094 742.186691,73.7943861 L742.050775,74.3014712 L741.928513,74.8065585 L741.819554,75.3087257 L741.72355,75.8070506 L741.64015,76.300611 L741.569005,76.7884846 C741.547294,76.9500588 741.527567,77.1105316 741.509765,77.2697492 L741.46208,77.7434825 L741.425601,78.2087624 C741.420435,78.2855533 741.415722,78.3619537 741.411454,78.4379441 L741.391127,78.8888146 C741.388609,78.9630887 741.386523,79.0369145 741.384859,79.1102728 L741.379898,79.5446589 C741.379898,79.5918436 741.289868,79.6711507 741.126178,79.7766867 L740.938541,79.8907475 L740.705434,80.0209848 L740.430496,80.1660887 L739.94761,80.4087552 L739.191302,80.772121 L737.640187,81.4880785 L733.681521,83.2718359 L732.424699,83.8508672 L731.715817,84.1895031 L731.271692,84.4114701 L731.023824,84.5418539 L730.818592,84.6566993 L730.659479,84.754752 C730.547069,84.8291174 730.486328,84.8846841 730.486328,84.9181864 C730.486328,86.9444448 732.64595,87.6212806 735.336722,87.7893495 L735.847069,87.8151055 L736.367479,87.8301687 C736.45492,87.8318566 736.542681,87.8331503 736.630712,87.8340754 L737.161745,87.8354083 L737.696877,87.829127 L738.502044,87.8081222 L739.830695,87.7524883 L741.839272,87.6525362 L742.748887,87.6184462 L743.171677,87.6096828 L743.455862,87.6068075 C743.944654,90.5558875 744.779679,94.0407928 745.960938,98.0615234 C746.944331,101.29643 749.534149,103.243779 753.730391,103.90357 C753.93487,105.570396 753.93487,107.743815 753.730391,110.423828 C753.861842,110.490359 753.856547,110.569115 753.725693,110.672302 L753.641932,110.731083 L753.533671,110.79515 L753.326222,110.902124 L752.863682,111.113081 L750.841093,111.974659 L750.080215,112.309336 L749.243923,112.689808 L748.335443,113.119596 L747.608651,113.476419 L746.844431,113.864449 L746.314829,114.141207 L745.7696,114.432935 L744.92334,114.899558 L744.34081,115.230637 L743.744065,115.578226 L743.133509,115.942767 L742.509545,116.324699 L741.872576,116.724462 L741.223006,117.142497 C741.113717,117.213716 741.003919,117.285716 740.893622,117.358504 L740.225906,117.804771 L739.546598,118.27041 C739.432437,118.349656 739.317809,118.429726 739.202723,118.510632 L738.506782,119.006155 C738.389899,119.090436 738.272575,119.17557 738.154818,119.261566 L737.443152,119.787962 L736.721506,120.335491 L735.990286,120.904593 L735.249892,121.495709 L734.50073,122.109277 L733.743202,122.745739 C733.489343,122.961757 733.234157,123.181665 732.977712,123.405535 L732.204663,124.089104 C732.075214,124.205038 731.945467,124.321981 731.81543,124.439941 C731.324621,124.875045 730.775574,125.58668 730.168288,126.574847 L729.883867,127.050559 L729.591175,127.565542 C729.541704,127.654645 729.491888,127.745385 729.441728,127.83776 L729.13663,128.411649 L728.823263,129.024809 L728.501624,129.67724 L728.171715,130.368941 L727.833535,131.099913 L727.487085,131.870156 L727.132364,132.679669 L726.769373,133.528454 C726.708185,133.67319 726.646653,133.819563 726.584776,133.967572 L726.018579,135.343834 L725.630776,136.310431 L725.234702,137.316298 L724.830358,138.361436 L724.417744,139.445844 L723.996858,140.569524 L723.567703,141.732474 L722.908462,143.550532 L722.230612,145.456949 L721.297866,148.136285 L720.576596,150.248874 L719.836717,152.449821 L718.821265,155.521865 L717.772731,158.750992 L716.96462,161.275923 L716.1379,163.889213 L715.292572,166.590863 L714.428635,169.380871 L713.247771,173.23833 L712.033826,177.252872 L710.786799,181.424496 L710.150879,183.569215 L710.116119,183.693791 L710.064664,183.84813 L709.956179,184.135445 L709.810132,184.489726 L709.55697,185.066271 L709.23703,185.761868 L708.743197,186.798781 L708.145022,188.021712 L707.132283,190.046326 L705.915035,192.435537 L703.589023,196.926644 L700.757996,202.31808 L697.421956,208.609845 L693.950957,215.110908 L688.390382,225.462441 C688.248249,225.726268 688.10542,225.991335 687.961896,226.257642 C687.90603,229.499474 690.292394,230.733795 695.120989,229.960605 L695.700326,229.860379 C696.094063,229.787388 696.502823,229.702047 696.926606,229.604357 L697.573548,229.448561 L698.243026,229.27424 C698.356483,229.243643 698.47088,229.212274 698.586215,229.180134 L699.289495,228.978028 C699.408586,228.9428 699.528617,228.9068 699.649586,228.870028 L700.386668,228.640137 C700.511393,228.600278 700.637057,228.559647 700.76366,228.518244 L701.534545,228.260567 L702.327965,227.984366 C702.596194,227.889212 702.868179,227.79097 703.14392,227.689642 L703.20682,227.622064 L703.347032,227.456512 L703.505944,227.251458 L703.778017,226.872514 L703.980966,226.574108 L704.316191,226.06092 L704.686518,225.472739 L705.23128,224.579041 L705.675383,223.832075 L706.147618,223.024001 L706.477039,222.453393 L707.347161,220.924249 L708.46805,218.917818 L710.065334,216.006332 L712.171332,212.098372 L713.478424,209.641469 L714.79375,207.148074 L716.654565,203.587009 L718.720095,199.58776 L720.406381,196.281289 L721.865016,193.379838 L723.034239,191.006434 L723.536018,189.961327 L723.852286,189.2841 L724.086986,188.759781 L724.246963,188.371626 L724.42132,187.911317 L724.62019,187.355008 L725.027193,186.150472 L725.584258,184.413864 L726.328154,182.001186 L727.300244,178.75044 L728.792992,173.627483 L730.837113,166.456396 L733.055952,158.545397 L735.384873,150.152885 L735.178194,154.159194 L734.909394,158.807819 L734.685173,162.397397 L734.339046,167.561676 L734.095074,170.97868 L733.774967,175.228159 L733.469428,179.068451 L733.134428,183.065993 L732.832279,186.500034 L732.575241,189.304494 L732.234474,192.869903 L731.849877,196.730297 L731.64989,198.882229 L731.403685,201.753689 L731.143601,205.013783 L730.788816,209.776386 L730.367703,215.821639 L729.871765,223.387482 L729.391174,231.098308 L729.2929,234.264253 L729.080934,242.7261 L728.838903,253.953026 L728.513931,270.530434 L730.912778,303.80375 L730.451628,330.737601 L730.652919,335.73342 L731.266866,348.987147 L732.449889,373.146232 L733.886512,401.768253 C733.740246,402.638393 733.19311,403.370417 732.435052,404.188434 L731.878879,404.771245 L731.056685,405.619632 L730.62037,406.0854 C730.472821,406.246092 730.323393,406.412492 730.172776,406.585415 L729.693051,407.144287 L729.413091,407.460225 L728.942589,407.97434 L728.411416,408.536706 L727.819571,409.147323 L727.167053,409.80619 L726.202652,410.759736 L725.130389,411.799061 L723.950264,412.924165 L722.662278,414.135047 L720.528059,416.112206 L718.564157,417.907271 L716.431721,419.836365 C714.93401,422.83201 716.093054,424.572223 719.908854,425.057005 L720.421634,425.113118 L720.692432,425.135361 L742.313374,421.379867 C747.850632,420.936982 750.419171,417.575559 750.018992,411.295599 L749.970056,410.668486 C749.833533,409.18326 749.540636,407.544304 749.091364,405.751616 L748.889245,404.97391 C748.853963,404.842723 748.817883,404.710752 748.781006,404.577997 L749.203533,398.630488 L749.401043,395.742237 L749.650126,391.979907 L749.993185,386.526422 L750.150961,383.885183 L750.347065,380.452202 L750.569271,376.303483 L750.766007,372.313105 L750.905057,369.234809 L751.055946,365.529444 L751.158319,362.679159 L751.24439,359.930211 L751.31416,357.282602 L751.367629,354.73633 L751.397033,352.89313 L751.421975,350.524201 L751.429984,348.814007 L751.426399,346.62242 L751.413013,345.045233 L751.398994,344.025443 L751.370326,342.54326 L751.346119,341.586806 L751.302168,340.199628 L751.249048,338.869453 L751.163957,337.184557 L751.089441,335.987388 L751.03467,335.220943 L751.193302,333.364819 L751.470835,330.394641 L751.795872,327.201272 L752.168412,323.784713 L752.588455,320.144964 L752.974778,316.941348 L753.307588,314.266859 L753.940807,309.347815 L754.432692,305.64822 L755.176751,300.208398 L755.747808,296.13682 L756.602708,290.176221 L757.252937,285.732658 L758.361918,278.300572 L759.097916,273.454028 L759.085071,274.078957 C759.083759,274.18508 759.082861,274.292187 759.082376,274.400279 L759.084441,275.060637 L759.096446,275.744616 L759.11839,276.452214 L759.150274,277.183432 L759.192098,277.938269 L759.243862,278.716726 L759.305565,279.518803 L759.377209,280.344499 L759.458792,281.193815 L759.599803,282.512076 L759.706235,283.420442 L759.822608,284.352427 L759.94892,285.308031 L760.085171,286.287255 L760.231363,287.290099 L760.387494,288.316563 L760.553565,289.366646 L760.729576,290.440349 L760.915526,291.537672 L761.111416,292.658614 L761.423889,294.384314 L761.758726,296.163159 L762.115927,297.995148 L762.495493,299.880281 L762.897423,301.818558 L763.177801,303.140268 L763.768377,305.854546 L764.237401,307.952256 L764.728789,310.103111 L765.242542,312.307109 L765.778659,314.564252 L766.528271,317.656445 L767.116572,320.037591 L767.521197,321.654547 L767.512856,321.896623 L767.500909,322.421163 L767.494832,323.308942 L767.498675,323.968108 L767.508834,324.681124 L767.535914,325.851617 L767.561862,326.699259 L767.612627,328.071692 L767.677601,329.565287 L767.756787,331.180046 L767.884473,333.521534 L767.996816,335.419007 L768.168712,338.137447 L768.365871,341.071288 L768.647847,345.041498 L768.901848,348.459992 L769.108928,351.16522 L769.565719,356.939165 L769.9898,362.121007 L770.649828,369.941015 L771.168645,375.930612 L771.726935,382.256773 L772.324699,388.919499 L772.961937,395.91879 L774.063623,407.817709 L774.502807,412.501936 C774.584302,413.019593 774.108388,413.925048 773.322012,415.069147 L772.991489,415.53916 L772.631362,416.032508 L772.245144,416.547068 L771.624576,417.354042 L769.341293,420.262264 L768.637548,421.172647 L768.174549,421.782662 L767.72058,422.392676 L767.279153,423.000568 L766.85378,423.604217 C764.980988,426.307907 763.702512,428.818275 764.458543,430.265444 C766.422547,434.024879 770.699091,434.559902 775.321765,433.555027 L775.94,433.412066 C776.869911,433.18438 777.810172,432.898093 778.745051,432.566682 L779.367333,432.339203 L779.986985,432.099241 L780.602971,431.847684 L780.214255,431.585418 L780.819801,431.313331 L781.418573,431.03231 L782.009536,430.743243 L782.591654,430.447016 L783.16389,430.144518 C783.258382,430.093628 783.352419,430.042514 783.44598,429.991194 L784.001452,429.680951 C784.093021,429.628882 784.184069,429.576643 784.274577,429.524254 L784.810955,429.208264 C784.899212,429.155347 784.986884,429.102317 785.07395,429.049192 L785.588904,428.729451 C785.67346,428.67602 785.757367,428.622531 785.840604,428.569003 L786.331802,428.247507 C786.412269,428.193894 786.492023,428.14028 786.571041,428.086681 L787.036153,427.765426 L786.48258,427.445442 C786.62816,427.339091 786.770452,427.233099 786.909285,427.127616 L787.315234,426.812834 C787.381105,426.760673 787.446068,426.708677 787.510101,426.656862 L787.882972,426.348312 L788.232496,426.045025 C789.486822,424.928749 790.12581,422.442516 790.149459,418.586326 L790.146978,417.870105 C790.145435,417.748219 790.143326,417.625074 790.140653,417.500672 L790.11783,416.739163 C790.112896,416.609729 790.107397,416.479036 790.101333,416.347086 L790.058169,415.540289 L790.001443,414.7033 C789.980275,414.419272 789.956846,414.130211 789.931157,413.836119 L789.847309,412.938746 C789.832204,412.786668 789.816534,412.633332 789.800299,412.478738 L789.69611,411.536077 C789.677615,411.376451 789.658555,411.215567 789.638929,411.053425 L789.859736,408.558802 L790.070383,406.087088 L790.270869,403.638283 L790.461194,401.212387 L790.641358,398.8094 L790.811362,396.429322 L790.971205,394.072154 L791.120888,391.737895 L791.26041,389.426544 L791.389771,387.138103 L791.508971,384.872572 L791.618011,382.629949 L791.716891,380.410235 L791.805609,378.213431 L791.884167,376.039535 L791.952565,373.888549 C791.963118,373.531961 791.973247,373.176327 791.982953,372.821647 L792.03611,370.705025 L792.079106,368.611311 L792.111941,366.540507 L792.134615,364.492612 C792.14048,363.813799 792.144651,363.138803 792.147129,362.467626 L792.149482,360.46555 L792.141675,358.486382 C792.139527,358.15843 792.136956,357.831432 792.133961,357.505389 L792.110913,355.560585 C792.106225,355.23836 792.101113,354.91709 792.095578,354.596774 L792.057289,352.686334 C792.050061,352.369836 792.042409,352.054293 792.034334,351.739705 L791.980804,349.863628 C791.961267,349.242088 791.940037,348.624365 791.917113,348.010461 L791.843261,346.180203 L791.759249,344.372854 L791.665076,342.588414 C791.648534,342.292916 791.631569,341.998373 791.61418,341.704785 L791.504766,339.954709 C791.466601,339.375168 791.426743,338.799446 791.385191,338.227542 L791.255456,336.523284 L791.115561,334.841935 L790.965504,333.183495 L790.805287,331.547965 C790.777738,331.277286 790.749765,331.007561 790.721369,330.738791 L790.545911,329.137624 C790.184834,325.9582 789.762794,322.91623 789.279789,320.011715 L789.033207,318.570913 C788.781544,317.141564 788.51464,315.74658 788.232496,314.385959 L788.350267,313.400262 L788.5172,311.876234 L788.622006,310.829895 L788.721626,309.759298 L788.816059,308.664444 L788.905307,307.545334 L788.989368,306.401966 L789.068243,305.234341 L789.176832,303.437423 L789.242742,302.209156 L789.303465,300.956632 L789.359003,299.679851 L789.409354,298.378813 L789.475157,296.381774 L789.529291,294.330157 L789.571757,292.223961 L789.593584,290.78951 L789.610226,289.330802 L789.625464,287.097257 L789.629033,284.809135 L789.620933,282.466434 L789.609051,280.874312 L789.591982,279.257933 L789.542287,275.952405 L789.491402,273.409584 L789.450995,271.684049 L789.380662,269.050264 L789.32729,267.264086 L789.204989,263.61896 L790.061943,259.876806 L789.941044,257.006516 L789.808477,254.081647 L789.664241,251.102201 L789.508336,248.068176 L789.282312,243.93791 L789.09918,240.776536 L788.904379,237.560584 L788.768029,235.386295 C788.688004,235.067064 788.646153,234.705922 788.646153,234.299041 L788.645889,233.894862 C788.599084,233.804623 788.599172,233.669606 788.646153,233.489812 L786.649341,208.470441 C784.42041,194.111907 783.685957,182.099863 784.44598,172.434307 C785.206002,162.768752 787.603652,153.629181 791.638929,145.015593 L794.304848,148.788916 L797.489325,153.260001 L799.460352,156.003018 L800.706833,157.726048 L802.475249,160.152122 L804.384754,162.742194 L805.889776,164.756243 L807.273231,166.580127 L808.333247,167.954765 L809.308842,169.197343 L810.028535,170.096324 L810.532847,170.715094 L811.006768,171.286323 L811.591387,171.974008 L811.994394,172.434307 L812.484462,172.974086 L812.816555,173.323456 L813.118257,173.625284 L813.302507,173.800091 L813.278053,173.930166 L811.50108,180.982 L810.761117,183.956937 L810.200662,186.245456 L809.617427,188.664964 L809.020768,191.186865 L808.620157,192.910896 L808.220511,194.659253 L807.8246,196.423464 L807.413958,198.292845 L807.057659,199.953369 L806.711946,201.605531 C806.655336,201.879806 806.599263,202.153441 806.543774,202.426291 L806.218228,204.052801 C806.165266,204.321927 806.112982,204.589976 806.061426,204.856803 L805.761194,206.441932 C805.325075,208.794129 804.955562,211.023726 804.687392,213.024549 C804.526649,213.254419 804.400398,213.779406 804.299876,214.519514 L804.247545,214.944062 L804.177926,215.654579 L804.118013,216.444872 L804.082936,217.011247 L804.036829,217.912866 L803.985843,219.197052 L803.926708,221.252224 L803.855343,224.723589 C806.838055,224.501979 810.28995,224.612973 814.2097,225.055709 C814.929065,224.326078 815.759543,222.677497 816.642567,220.39007 L816.956309,219.556673 C817.008931,219.413504 817.061711,219.268239 817.114637,219.120935 L817.433852,218.213089 L817.755999,217.259032 C817.809903,217.096323 817.863905,216.931803 817.917994,216.765529 L818.243468,215.747286 L818.570445,214.689673 L818.898352,213.595427 L819.226618,212.467285 L819.554669,211.307982 L819.881934,210.120257 C819.936381,209.920086 819.990771,209.718845 820.045093,209.51659 L820.370106,208.291361 L820.853289,206.413906 L821.171687,205.139853 L821.486438,203.85106 L821.796969,202.550263 L822.102708,201.2402 L822.403083,199.923606 L822.697522,198.603219 L822.985453,197.281774 L823.266303,195.962009 L823.67305,193.991497 L824.060647,192.040158 L824.307452,190.754477 L824.544316,189.48416 L824.770666,188.231941 L825.089225,186.393536 L825.286787,185.198539 L825.471832,184.031219 L825.643788,182.894313 L825.802083,181.790558 L825.946145,180.722691 L826.075402,179.693447 L826.189281,178.705564 L826.28721,177.761778 C826.30217,177.608308 826.316442,177.456788 826.330014,177.307277 L826.402945,176.434769 L826.458496,175.613199 C826.497387,174.950542 826.517578,174.343797 826.517578,173.800091 C826.517578,170.139859 823.432587,163.515738 819.080012,156.119384 L818.299122,154.806575 C818.034686,154.366597 817.766234,153.924394 817.494135,153.48041 L816.667271,152.143566 C816.38825,151.696468 816.105952,151.248037 815.820749,150.798718 L814.956788,149.448545 C814.811464,149.223221 814.665507,148.997787 814.518961,148.772298 L813.633004,147.419153 L812.735157,146.067374 L811.827639,144.719637 C811.675704,144.4955 811.523458,144.271642 811.370948,144.04812 L810.453087,142.711464 L809.531104,141.385541 L808.607219,140.073028 C808.453203,139.855542 808.299201,139.638726 808.145257,139.422636 L807.222681,138.135256 L806.303752,136.867977 L805.390689,135.623475 C805.239124,135.418105 805.087896,135.213796 804.937051,135.010603 L804.036949,133.805286 L803.148262,132.629439 L802.27321,131.485737 L801.414012,130.376858 L800.572887,129.305477 L799.752055,128.274271 C799.617065,128.105901 799.483012,127.939315 799.349943,127.774571 L798.563713,126.808647 L797.803324,125.88959 L797.070998,125.020076 C796.712219,124.598151 796.364796,124.195808 796.029977,123.814554 L795.377514,123.080608 C794.319317,121.905714 793.41041,120.976284 792.697034,120.34808 L792.486892,120.166992 L791.028404,118.941927 L790.390616,118.418453 L789.956304,118.070175 L789.512419,117.722547 L789.057008,117.375644 L788.588121,117.02954 C788.508742,116.971927 788.428719,116.91435 788.348013,116.856811 L787.855251,116.512046 L787.344132,116.168265 C787.257307,116.111055 787.169636,116.053889 787.081079,115.996768 L786.538765,115.654605 C785.062481,114.743701 783.338344,113.845292 781.199798,112.965733 L780.378092,112.636794 C779.255716,112.199421 778.024533,111.766958 776.663723,111.340201 L775.714589,111.049823 L773.512282,110.412547 L771.752781,109.920956 L769.252428,109.236319 L769.057361,109.105138 L768.891146,108.982579 C768.860246,108.958976 768.827891,108.933807 768.794295,108.907108 L768.579553,108.728814 C768.240265,108.434642 767.835286,108.02204 767.521197,107.516113 C767.496923,107.477013 767.472091,107.43044 767.446699,107.376393 L767.368849,107.191835 L767.287648,106.962438 C767.273835,106.920468 767.259882,106.876631 767.24579,106.830925 L767.159561,106.53427 L767.023933,106.005215 L766.880763,105.375273 L766.730052,104.644445 L766.5718,103.812729 L766.406006,102.880127 C769.156583,100.571333 771.004327,95.7514074 772.014225,92.0093926 L772.205052,91.2764252 C772.235001,91.1570138 772.264024,91.039066 772.292124,90.9227146 L772.449654,90.2448271 C772.498482,90.0259594 772.543634,89.814541 772.58513,89.6116353 L772.698669,89.0295196 C772.71577,88.9371111 772.731962,88.8470967 772.747247,88.7596092 L772.828095,88.2660711 L772.887293,87.8395605 L772.967319,87.1798696 L773.113613,85.896601 C773.159358,85.4780094 773.202109,85.0693421 773.241941,84.6728777 L773.352756,83.5223726 L773.983983,83.4873047 C774.17357,78.7082405 773.840237,74.8535205 772.983983,71.9231446 L772.884048,71.5941038 L772.774211,71.2587262 L772.654006,70.917837 L772.522964,70.5722615 L772.380621,70.2228251 C772.355929,70.1643098 772.330747,70.1056681 772.305065,70.046917 L772.144894,69.6932366 C772.117173,69.6341171 772.088932,69.5749228 772.060162,69.5156707 L771.881112,69.1596032 L771.688895,68.8029759 L771.483041,68.4466142 L771.263087,68.0913432 L771.028563,67.7379884 L770.779005,67.3873749 C768.421047,64.1885046 764.109223,61.4391849 756.226119,62 Z" id="Path" fill="#090F29"></path>
            <path d="M1203.22519,36 C1196.18113,36.5011247 1192.2195,40.5132245 1190.19299,45.0109185 L1189.97573,45.5125069 C1189.94082,45.5963868 1189.90657,45.6803948 1189.87296,45.7645117 L1189.67893,46.2703659 C1189.49249,46.7772193 1189.32862,47.2866094 1189.18576,47.7943861 L1189.04985,48.3014712 L1188.92759,48.8065585 L1188.81863,49.3087257 L1188.72262,49.8070506 L1188.63922,50.300611 L1188.56808,50.7884846 C1188.54637,50.9500588 1188.52664,51.1105316 1188.50884,51.2697492 L1188.46115,51.7434825 L1188.42467,52.2087624 C1188.41951,52.2855533 1188.4148,52.3619537 1188.41053,52.4379441 L1188.3902,52.8888146 C1188.38768,52.9630887 1188.3856,53.0369145 1188.38393,53.1102728 L1188.37897,53.5446589 C1188.37897,53.5918436 1188.28894,53.6711507 1188.12525,53.7766867 L1187.93761,53.8907475 L1187.70451,54.0209848 L1188.83835,61.6525362 L1189.74796,61.6184462 L1190.17075,61.6096828 L1190.45494,61.6068075 C1190.94373,64.5558875 1191.77875,68.0407928 1192.96001,72.0615234 C1193.9434,75.2964302 1196.53322,77.243779 1200.72946,77.90357 C1200.93394,79.5703957 1200.93394,81.7438151 1200.72946,84.4238281 C1200.86092,84.4903586 1200.85562,84.5691147 1200.72477,84.6723024 L1200.64101,84.7310829 L1200.53274,84.7951495 L1200.3253,84.9021238 L1199.86276,85.1130809 L1197.84017,85.9746586 L1197.07929,86.3093358 L1196.243,86.6898078 L1195.33452,87.119596 L1194.60773,87.4764192 L1193.8435,87.8644494 L1193.3139,88.1412069 L1192.76867,88.4329345 L1191.92241,88.899558 L1191.33988,89.2306368 L1190.74314,89.5782265 L1190.13258,89.9427671 L1189.50862,90.3246989 L1188.87165,90.7244621 L1188.22208,91.1424968 C1188.11279,91.2137163 1188.00299,91.2857155 1187.8927,91.3585035 L1187.22498,91.8047709 L1186.54567,92.2704102 C1186.43151,92.3496556 1186.31688,92.4297264 1186.2018,92.510632 L1185.50586,93.0061547 C1185.38897,93.0904356 1185.27165,93.1755695 1185.15389,93.2615657 L1184.44223,93.7879621 L1183.72058,94.3354913 L1182.98936,94.9045934 L1182.24897,95.4957086 L1181.4998,96.109277 L1180.74228,96.745739 C1180.48842,96.9617574 1180.23323,97.1816648 1179.97679,97.4055345 L1179.20374,98.089104 C1179.07429,98.2050378 1178.94454,98.3219806 1178.8145,98.4399414 C1178.32369,98.8750452 1177.77465,99.5866804 1177.16736,100.574847 L1176.88294,101.050559 L1176.59025,101.565542 C1176.54078,101.654645 1176.49096,101.745385 1176.4408,101.83776 L1176.1357,102.411649 L1175.82234,103.024809 L1175.5007,103.67724 L1175.17079,104.368941 L1174.83261,105.099913 L1174.48616,105.870156 L1174.13144,106.679669 L1173.76845,107.528454 C1173.70726,107.67319 1173.64573,107.819563 1173.58385,107.967572 L1173.01765,109.343834 L1172.62985,110.310431 L1172.23378,111.316298 L1171.82943,112.361436 L1171.41682,113.445844 L1170.99593,114.569524 L1170.56678,115.732474 L1169.90754,117.550532 L1169.22969,119.456949 L1168.29694,122.136285 L1167.57567,124.248874 L1166.83579,126.449821 L1165.82034,129.521865 L1164.7718,132.750992 L1163.96369,135.275923 L1163.13697,137.889213 L1162.29165,140.590863 L1161.42771,143.380871 L1160.24685,147.23833 L1159.0329,151.252872 L1157.78587,155.424496 L1157.14995,157.569215 L1157.11519,157.693791 L1157.06374,157.84813 L1156.95525,158.135445 L1156.80921,158.489726 L1156.55604,159.066271 L1156.2361,159.761868 L1155.74227,160.798781 L1155.1441,162.021712 L1154.13136,164.046326 L1152.91411,166.435537 L1150.5881,170.926644 L1147.75707,176.31808 L1144.42103,182.609845 L1140.95003,189.110908 L1135.38946,199.462441 C1135.24732,199.726268 1135.10449,199.991335 1134.96001,200.257642 C1134.9051,203.499474 1137.29147,204.733795 1142.12006,203.960605 L1142.6994,203.860379 C1143.09314,203.787388 1143.5019,203.702047 1143.92568,203.604357 L1144.57262,203.448561 L1145.2421,203.27424 C1145.35556,203.243643 1145.46995,203.212274 1145.58529,203.180134 L1146.28857,202.978028 C1146.40766,202.9428 1146.52769,202.9068 1146.64866,202.870028 L1147.38574,202.640137 C1147.51047,202.600278 1147.63613,202.559647 1147.76273,202.518244 L1148.53362,202.260567 L1149.32704,201.984366 C1149.59527,201.889212 1149.86725,201.79097 1150.14299,201.689642 L1150.20589,201.622064 L1150.34611,201.456512 L1150.50502,201.251458 L1150.77709,200.872514 L1150.98004,200.574108 L1151.31526,200.06092 L1151.68559,199.472739 L1152.23035,198.579041 L1152.67446,197.832075 L1153.14669,197.024001 L1153.47611,196.453393 L1154.34623,194.924249 L1155.46712,192.917818 L1157.06441,190.006332 L1159.17041,186.098372 L1160.4775,183.641469 L1161.79282,181.148074 L1163.65364,177.587009 L1165.71917,173.58776 L1167.40546,170.281289 L1168.86409,167.379838 L1170.03331,165.006434 L1170.53509,163.961327 L1170.85136,163.2841 L1171.08606,162.759781 L1171.24604,162.371626 L1171.42039,161.911317 L1171.61926,161.355008 L1172.02627,160.150472 L1172.58333,158.413864 L1173.32723,156.001186 L1174.29932,152.75044 L1175.79207,147.627483 L1177.83619,140.456396 L1180.05503,132.545397 L1182.38395,124.152885 L1182.17727,128.159194 L1181.90847,132.807819 L1181.68425,136.397397 L1181.33812,141.561676 L1181.09415,144.97868 L1180.77404,149.228159 L1180.4685,153.068451 L1180.1335,157.065993 L1179.83135,160.500034 L1179.57431,163.304494 L1179.23355,166.869903 L1178.84895,170.730297 L1178.64896,172.882229 L1178.40276,175.753689 L1178.14267,179.013783 L1177.78789,183.776386 L1177.36678,189.821639 L1176.87084,197.387482 L1176.39025,205.098308 L1176.29197,208.264253 L1176.08001,216.7261 L1175.83798,227.953026 L1175.513,244.530434 L1177.91185,277.80375 L1177.4507,304.737601 L1177.65199,309.73342 L1178.26594,322.987147 L1179.44896,347.146232 L1180.88559,375.768253 C1180.73932,376.638393 1180.19218,377.370417 1179.43413,378.188434 L1178.87795,378.771245 L1178.05576,379.619632 L1177.61944,380.0854 C1177.4719,380.246092 1177.32247,380.412492 1177.17185,380.585415 L1176.69213,381.144287 L1176.41216,381.460225 L1175.94166,381.97434 L1175.41049,382.536706 L1174.81864,383.147323 L1174.16613,383.80619 L1173.20173,384.759736 L1172.12946,385.799061 L1170.94934,386.924165 L1169.66135,388.135047 L1167.52713,390.112206 L1165.56323,391.907271 L1163.4308,393.836365 C1161.93308,396.83201 1163.09213,398.572223 1166.90793,399.057005 L1167.42071,399.113118 L1167.69151,399.135361 L1189.31245,395.379867 C1194.84971,394.936982 1197.41825,391.575559 1197.01807,385.295599 L1196.96913,384.668486 C1196.83261,383.18326 1196.53971,381.544304 1196.09044,379.751616 L1195.88832,378.97391 C1195.85304,378.842723 1195.81696,378.710752 1195.78008,378.577997 L1196.20261,372.630488 L1196.40012,369.742237 L1196.6492,365.979907 L1196.99226,360.526422 L1197.15003,357.885183 L1197.34614,354.452202 L1197.56835,350.303483 L1197.76508,346.313105 L1197.90413,343.234809 L1198.05502,339.529444 L1198.15739,336.679159 L1198.24346,333.930211 L1198.31323,331.282602 L1198.3667,328.73633 L1198.39611,326.89313 L1198.42105,324.524201 L1198.42906,322.814007 L1198.42547,320.62242 L1198.41209,319.045233 L1198.39807,318.025443 L1198.3694,316.54326 L1198.34519,315.586806 L1198.30124,314.199628 L1198.24812,312.869453 L1198.16303,311.184557 L1198.08851,309.987388 L1198.03374,309.220943 L1198.19238,307.364819 L1198.46991,304.394641 L1198.79495,301.201272 L1199.16749,297.784713 L1199.58753,294.144964 L1199.97385,290.941348 L1200.30666,288.266859 L1200.93988,283.347815 L1201.43177,279.64822 L1202.17582,274.208398 L1202.74688,270.13682 L1203.60178,264.176221 L1204.25201,259.732658 L1205.36099,252.300572 L1206.09699,247.454028 L1206.08415,248.078957 C1206.08283,248.18508 1206.08193,248.292187 1206.08145,248.400279 L1206.08352,249.060637 L1206.09552,249.744616 L1206.11746,250.452214 L1206.14935,251.183432 L1206.19117,251.938269 L1206.24294,252.716726 L1206.30464,253.518803 L1206.37628,254.344499 L1206.45787,255.193815 L1206.59888,256.512076 L1206.70531,257.420442 L1206.82168,258.352427 L1206.94799,259.308031 L1207.08424,260.287255 L1207.23044,261.290099 L1207.38657,262.316563 L1207.55264,263.366646 L1207.72865,264.440349 L1207.9146,265.537672 L1208.11049,266.658614 L1208.42296,268.384314 L1208.7578,270.163159 L1209.115,271.995148 L1209.49457,273.880281 L1209.8965,275.818558 L1210.17688,277.140268 L1210.76745,279.854546 L1211.23647,281.952256 L1211.72786,284.103111 L1212.24162,286.307109 L1212.77773,288.564252 L1213.52734,291.656445 L1214.11565,294.037591 L1214.52027,295.654547 L1214.51193,295.896623 L1214.49998,296.421163 L1214.49391,297.308942 L1214.49775,297.968108 L1214.50791,298.681124 L1214.53499,299.851617 L1214.56094,300.699259 L1214.6117,302.071692 L1214.67668,303.565287 L1214.75586,305.180046 L1214.88355,307.521534 L1214.99589,309.419007 L1215.16779,312.137447 L1215.36495,315.071288 L1215.64692,319.041498 L1215.90092,322.459992 L1216.108,325.16522 L1216.56479,330.939165 L1216.98887,336.121007 L1217.6489,343.941015 L1218.16772,349.930612 L1218.72601,356.256773 L1219.32377,362.919499 L1219.96101,369.91879 L1221.0627,381.817709 L1221.50188,386.501936 C1221.58338,387.019593 1221.10746,387.925048 1220.32109,389.069147 L1219.99056,389.53916 L1219.63044,390.032508 L1219.24422,390.547068 L1218.62365,391.354042 L1216.34037,394.262264 L1215.63662,395.172647 L1215.17362,395.782662 L1214.71965,396.392676 L1214.27823,397.000568 L1213.85285,397.604217 C1211.98006,400.307907 1210.70159,402.818275 1211.45762,404.265444 C1213.42162,408.024879 1217.69816,408.559902 1222.32084,407.555027 L1222.93907,407.412066 C1223.86898,407.18438 1224.80925,406.898093 1225.74412,406.566682 L1226.36641,406.339203 L1226.98606,406.099241 L1227.60205,405.847684 L1227.21333,405.585418 L1227.81887,405.313331 L1228.41765,405.03231 L1229.00861,404.743243 L1229.59073,404.447016 L1230.16296,404.144518 C1230.25746,404.093628 1230.35149,404.042514 1230.44505,403.991194 L1231.00053,403.680951 C1231.09209,403.628882 1231.18314,403.576643 1231.27365,403.524254 L1231.81003,403.208264 C1231.89829,403.155347 1231.98596,403.102317 1232.07302,403.049192 L1232.58798,402.729451 C1232.67253,402.67602 1232.75644,402.622531 1232.83968,402.569003 L1233.33088,402.247507 C1233.41134,402.193894 1233.4911,402.14028 1233.57011,402.086681 L1234.03523,401.765426 L1233.48165,401.445442 C1233.62723,401.339091 1233.76953,401.233099 1233.90836,401.127616 L1234.31431,400.812834 C1234.38018,400.760673 1234.44514,400.708677 1234.50917,400.656862 L1234.88205,400.348312 L1235.23157,400.045025 C1236.4859,398.928749 1237.12488,396.442516 1237.14853,392.586326 L1237.14605,391.870105 C1237.14451,391.748219 1237.1424,391.625074 1237.13973,391.500672 L1237.1169,390.739163 C1237.11197,390.609729 1237.10647,390.479036 1237.10041,390.347086 L1237.05724,389.540289 L1237.00052,388.7033 C1236.97935,388.419272 1236.95592,388.130211 1236.93023,387.836119 L1236.84638,386.938746 C1236.83128,386.786668 1236.81561,386.633332 1236.79937,386.478738 L1236.69518,385.536077 C1236.67669,385.376451 1236.65763,385.215567 1236.638,385.053425 L1236.85881,382.558802 L1237.06946,380.087088 L1237.26994,377.638283 L1237.46027,375.212387 L1237.64043,372.8094 L1237.81044,370.429322 L1237.97028,368.072154 L1238.11996,365.737895 L1238.25948,363.426544 L1238.38884,361.138103 L1238.50805,358.872572 L1238.61709,356.629949 L1238.71596,354.410235 L1238.80468,352.213431 L1238.88324,350.039535 L1238.95164,347.888549 C1238.96219,347.531961 1238.97232,347.176327 1238.98203,346.821647 L1239.03518,344.705025 L1239.07818,342.611311 L1239.11101,340.540507 L1239.13369,338.492612 C1239.13955,337.813799 1239.14373,337.138803 1239.1462,336.467626 L1239.14856,334.46555 L1239.14075,332.486382 C1239.1386,332.15843 1239.13603,331.831432 1239.13303,331.505389 L1239.10999,329.560585 C1239.1053,329.23836 1239.10019,328.91709 1239.09465,328.596774 L1239.05636,326.686334 C1239.04913,326.369836 1239.04148,326.054293 1239.03341,325.739705 L1238.97988,323.863628 C1238.96034,323.242088 1238.93911,322.624365 1238.91619,322.010461 L1238.84234,320.180203 L1238.75832,318.372854 L1238.66415,316.588414 C1238.64761,316.292916 1238.63064,315.998373 1238.61325,315.704785 L1238.50384,313.954709 C1238.46567,313.375168 1238.42582,312.799446 1238.38427,312.227542 L1238.25453,310.523284 L1238.11463,308.841935 L1237.96458,307.183495 L1237.80436,305.547965 C1237.77681,305.277286 1237.74884,305.007561 1237.72044,304.738791 L1237.54498,303.137624 C1237.18391,299.9582 1236.76187,296.91623 1236.27886,294.011715 L1236.03228,292.570913 C1235.78062,291.141564 1235.51371,289.74658 1235.23157,288.385959 L1235.34934,287.400262 L1235.51627,285.876234 L1235.62108,284.829895 L1235.7207,283.759298 L1235.81513,282.664444 L1235.90438,281.545334 L1235.98844,280.401966 L1236.06732,279.234341 L1236.17591,277.437423 L1236.24182,276.209156 L1236.30254,274.956632 L1236.35808,273.679851 L1236.40843,272.378813 L1236.47423,270.381774 L1236.52837,268.330157 L1236.57083,266.223961 L1236.59266,264.78951 L1236.6093,263.330802 L1236.62454,261.097257 L1236.62811,258.809135 L1236.62001,256.466434 L1236.60812,254.874312 L1236.59106,253.257933 L1236.54136,249.952405 L1236.49048,247.409584 L1236.45007,245.684049 L1236.37974,243.050264 L1236.32636,241.264086 L1236.20406,237.61896 L1237.06102,233.876806 L1236.94012,231.006516 L1236.80755,228.081647 L1236.66331,225.102201 L1236.50741,222.068176 L1236.28139,217.93791 L1236.09825,214.776536 L1235.90345,211.560584 L1235.7671,209.386295 C1235.68708,209.067064 1235.64523,208.705922 1235.64523,208.299041 L1235.64496,207.894862 C1235.59816,207.804623 1235.59825,207.669606 1235.64523,207.489812 L1233.64841,182.470441 C1231.41948,168.111907 1230.68503,156.099863 1231.44505,146.434307 C1232.20508,136.768752 1234.60273,127.629181 1238.638,119.015593 L1241.30392,122.788916 L1244.4884,127.260001 L1246.45943,130.003018 L1247.70591,131.726048 L1249.47432,134.152122 L1251.38383,136.742194 L1252.88885,138.756243 L1254.2723,140.580127 L1255.33232,141.954765 L1256.30792,143.197343 L1257.02761,144.096324 L1257.53192,144.715094 L1258.00584,145.286323 L1258.59046,145.974008 L1258.99347,146.434307 L1259.48354,146.974086 L1259.81563,147.323456 L1260.11733,147.625284 L1260.30158,147.800091 L1260.27713,147.930166 L1258.50015,154.982 L1257.76019,157.956937 L1257.19974,160.245456 L1256.6165,162.664964 L1256.01984,165.186865 L1255.61923,166.910896 L1255.21958,168.659253 L1254.82367,170.423464 L1254.41303,172.292845 L1254.05673,173.953369 L1253.71102,175.605531 C1253.65441,175.879806 1253.59834,176.153441 1253.54285,176.426291 L1253.2173,178.052801 C1253.16434,178.321927 1253.11206,178.589976 1253.0605,178.856803 L1252.76027,180.441932 C1252.32415,182.794129 1251.95464,185.023726 1251.68647,187.024549 C1251.52572,187.254419 1251.39947,187.779406 1251.29895,188.519514 L1251.24662,188.944062 L1251.177,189.654579 L1251.11709,190.444872 L1251.08201,191.011247 L1251.0359,191.912866 L1250.98492,193.197052 L1250.92578,195.252224 L1250.85442,198.723589 C1253.83713,198.501979 1257.28902,198.612973 1261.20877,199.055709 C1261.92814,198.326078 1262.75862,196.677497 1263.64164,194.39007 L1263.95538,193.556673 C1264.008,193.413504 1264.06078,193.268239 1264.11371,193.120935 L1264.43293,192.213089 L1264.75507,191.259032 C1264.80898,191.096323 1264.86298,190.931803 1264.91707,190.765529 L1265.24254,189.747286 L1265.56952,188.689673 L1265.89743,187.595427 L1266.22569,186.467285 L1266.55374,185.307982 L1266.88101,184.120257 C1266.93545,183.920086 1266.98985,183.718845 1267.04417,183.51659 L1267.36918,182.291361 L1267.85236,180.413906 L1268.17076,179.139853 L1268.48551,177.85106 L1268.79604,176.550263 L1269.10178,175.2402 L1269.40216,173.923606 L1269.6966,172.603219 L1269.98453,171.281774 L1270.26538,169.962009 L1270.67212,167.991497 L1271.05972,166.040158 L1271.30653,164.754477 L1271.54339,163.48416 L1271.76974,162.231941 L1272.0883,160.393536 L1272.28586,159.198539 L1272.47091,158.031219 L1272.64286,156.894313 L1272.80116,155.790558 L1272.94522,154.722691 L1273.07448,153.693447 L1273.18835,152.705564 L1273.28628,151.761778 C1273.30124,151.608308 1273.31552,151.456788 1273.32909,151.307277 L1273.40202,150.434769 L1273.45757,149.613199 C1273.49646,148.950542 1273.51665,148.343797 1273.51665,147.800091 C1273.51665,144.139859 1270.43166,137.515738 1266.07909,130.119384 L1265.2982,128.806575 C1265.03376,128.366597 1264.76531,127.924394 1264.49321,127.48041 L1263.66634,126.143566 C1263.38732,125.696468 1263.10503,125.248037 1262.81982,124.798718 L1261.95586,123.448545 C1261.81054,123.223221 1261.66458,122.997787 1261.51803,122.772298 L1260.63208,121.419153 L1259.73423,120.067374 L1258.82671,118.719637 C1258.67478,118.4955 1258.52253,118.271642 1258.37002,118.04812 L1257.45216,116.711464 L1256.53018,115.385541 L1255.60629,114.073028 C1255.45228,113.855542 1255.29827,113.638726 1255.14433,113.422636 L1254.22176,112.135256 L1253.30283,110.867977 L1252.38976,109.623475 C1252.2382,109.418105 1252.08697,109.213796 1251.93612,109.010603 L1251.03602,107.805286 L1250.14734,106.629439 L1249.27228,105.485737 L1248.41309,104.376858 L1247.57196,103.305477 L1246.75113,102.274271 C1246.61614,102.105901 1246.48209,101.939315 1246.34902,101.774571 L1245.56279,100.808647 L1244.8024,99.8895898 L1244.07007,99.0200759 C1243.71129,98.5981509 1243.36387,98.1958083 1243.02905,97.8145537 L1242.37659,97.080608 C1241.31839,95.9057144 1240.40948,94.9762843 1239.69611,94.3480796 L1239.48597,94.1669922 L1238.02748,92.941927 L1237.38969,92.4184533 L1236.95538,92.0701751 L1236.51149,91.7225472 L1236.05608,91.3756441 L1235.58719,91.0295401 C1235.50782,90.9719268 1235.42779,90.91435 1235.34709,90.8568111 L1234.85432,90.5120455 L1234.34321,90.1682653 C1234.25638,90.1110548 1234.16871,90.0538885 1234.08015,89.996768 L1233.53784,89.6546054 C1232.06155,88.7437007 1230.33742,87.8452919 1228.19887,86.965733 L1227.37717,86.6367944 C1226.25479,86.1994208 1225.02361,85.7669583 1223.6628,85.340201 L1222.71366,85.0498226 L1220.51136,84.4125468 L1218.75185,83.9209562 L1216.2515,83.2363189 L1216.05643,83.1051379 L1215.89022,82.9825791 C1215.85932,82.9589759 1215.82696,82.9338072 1215.79337,82.9071076 L1215.57863,82.7288138 C1215.23934,82.4346421 1214.83436,82.0220402 1214.52027,81.5161133 C1214.496,81.4770131 1214.47116,81.4304398 1214.44577,81.3763934 L1214.36792,81.1918349 L1214.28672,80.9624378 C1214.27291,80.9204684 1214.25896,80.8766307 1214.24486,80.8309247 L1214.15863,80.5342697 L1214.02301,80.0052149 L1213.87984,79.3752732 L1213.72913,78.6444446 L1213.57087,77.8127292 L1213.40508,76.880127 C1216.15566,74.5713335 1218.0034,69.7514074 1219.0133,66.0093926 L1219.20413,65.2764252 C1219.23408,65.1570138 1219.2631,65.039066 1219.2912,64.9227146 L1219.44873,64.2448271 C1219.49756,64.0259594 1219.54271,63.814541 1219.5842,63.6116353 L1219.69774,63.0295196 C1219.71484,62.9371111 1219.73104,62.8470967 1219.74632,62.7596092 L1219.82717,62.2660711 L1219.88637,61.8395605 L1219.96639,61.1798696 L1220.11269,59.896601 C1220.15843,59.4780094 1220.20118,59.0693421 1220.24101,58.6728777 L1220.35183,57.5223726 L1220.98306,57.4873047 C1221.17264,52.7082405 1220.83931,48.8535205 1219.98306,45.9231446 L1219.88312,45.5941038 L1219.77329,45.2587262 L1219.65308,44.917837 L1219.52204,44.5722615 L1219.37969,44.2228251 C1219.355,44.1643098 1219.32982,44.1056681 1219.30414,44.046917 L1219.14397,43.6932366 C1219.11625,43.6341171 1219.08801,43.5749228 1219.05924,43.5156707 L1218.88019,43.1596032 L1218.68797,42.8029759 L1218.48212,42.4466142 L1218.26216,42.0913432 L1218.02764,41.7379884 L1217.77808,41.3873749 C1215.42012,38.1885046 1211.1083,35.4391849 1203.22519,36 Z" id="Path-Copy" fill="#090F29" transform="translate(1204.238332, 221.963448) scale(-1, 1) translate(-1204.238332, -221.963448) "></path>
            <g id="Group-Copy-2" transform="translate(1203.180686, 291.256111) rotate(-4.000000) translate(-1203.180686, -291.256111) translate(1078.014600, 186.190790)">
                <ellipse id="Oval-Copy-4" fill="#090F29" cx="113.136048" cy="144.065038" rx="13.5" ry="20"></ellipse>
                <rect id="Rectangle-Copy-2" fill="#090F29" x="128.631745" y="166.896797" width="15" height="6" rx="3"></rect>
                <line x1="116.322218" y1="143.285395" x2="132.103094" y2="169.615087" id="Path-39" stroke="#090F29" stroke-width="4"></line>
                <g id="Oval">
                    <use stroke="#090F29" stroke-width="10.2" xlink:href="#path-1"></use>
                    <ellipse stroke="#47210C" stroke-width="10" stroke-linejoin="square" cx="50" cy="136.64281" rx="45" ry="68"></ellipse>
                </g>
                <ellipse id="Oval-Copy-2" fill="#090F29" cx="50.498782" cy="136.677688" rx="9.5" ry="14"></ellipse>
                <ellipse id="Oval-Copy-3" fill="#090F29" cx="43.4460772" cy="137.186957" rx="9.5" ry="14"></ellipse>
                <ellipse id="Oval-Copy-6" fill="#090F29" cx="192.35166" cy="136.572588" rx="5" ry="7"></ellipse>
                <ellipse id="Oval-Copy-11" fill="#090F29" cx="208.452198" cy="135.693564" rx="5" ry="7"></ellipse>
                <ellipse id="Oval-Copy-5" fill="#090F29" cx="54.0112296" cy="150.957489" rx="5" ry="7"></ellipse>
                <g id="Oval-Copy">
                    <use stroke="#090F29" stroke-width="10.2" xlink:href="#path-2"></use>
                    <ellipse stroke="#47210C" stroke-width="10" stroke-linejoin="square" cx="200.332172" cy="137.13064" rx="45" ry="68"></ellipse>
                </g>
                <path d="M170.767326,32.6725094 L166.57677,17.6725094 L196.481748,19.7636692 C200.529692,21.8326046 203.131273,24.2872706 204.286492,27.1276671 C209.403398,39.7088725 200.436948,46.9030223 186.821257,45.9509204" id="Path-4" stroke="#090F29" stroke-width="6.984" stroke-linecap="round" stroke-linejoin="round"></path>
                <line x1="89.3723267" y1="32.8907408" x2="83.3723267" y2="2.8907408" id="Path-5" stroke="#090F29" stroke-width="6.984" stroke-linecap="round" stroke-linejoin="round"></line>
                <path d="M93.6341887,47.7392689 L86.1405173,69.5766009 M77.2269815,95.5515644 L64.9957633,131.194597 L68.8377914,141.855372 L114.034739,140.739269" id="Shape" stroke="#090F29" stroke-width="4.85" stroke-linecap="round" stroke-linejoin="round"></path>
                <polyline id="Path" stroke="#EF9C53" stroke-width="6.984" stroke-linecap="round" stroke-linejoin="round" points="93.6341887 47.7392689 41.0542261 129.520441 44.8962542 140.181217 114.034739 140.739269"></polyline>
                <polygon id="Path-2" stroke="#EF9C53" stroke-width="6.984" stroke-linecap="round" stroke-linejoin="round" points="89.644166 33.2875483 170.833046 33.2875483 175.644166 51.101183 112.674227 141.287548"></polygon>
                <path d="M175.369458,50.1541607 L187.962219,63.2164838 M192.380437,78.4151528 L209.347534,136.781969" id="Shape" stroke="#090F29" stroke-width="6.984" stroke-linecap="round" stroke-linejoin="round"></path>
                <polyline id="Path-3" stroke="#EF9C53" stroke-width="6.984" stroke-linecap="round" stroke-linejoin="round" points="175.369458 50.1541607 171.00363 62.0306238 192.388945 135.596109"></polyline>
                <path d="M70.4535442,2.7466061 C69.0910296,4.42738188 68.7850387,5.80833889 69.5355714,6.88947712 C70.2861042,7.97061536 72.5476838,8.78577465 76.3203104,9.334955 L100.135699,13.1761377 C97.217408,11.5893349 94.110378,10.0269003 90.8146091,8.48883373 C88.7117753,7.50748509 87.6384086,3.50282821 83.2348443,2.54169633 C81.8585608,2.24130559 77.5981275,2.30960885 70.4535442,2.7466061 Z" id="Path-6" stroke="#090F29" stroke-width="6.984" fill="#090F29" stroke-linecap="round" stroke-linejoin="round" transform="translate(84.635699, 7.767139) rotate(-9.000000) translate(-84.635699, -7.767139) "></path>
                <line x1="208.452149" y1="135.694265" x2="192.851173" y2="136.607518" id="Path-15" stroke="#090F29" stroke-width="4"></line>
                <rect id="Rectangle-Copy-3" fill="#090F29" x="88.9392347" y="133.397515" width="15" height="6" rx="3"></rect>
                <path d="M170.767326,32.6725094 L166.57677,17.6725094 L139.513657,16.4798131 C141.265994,24.4443224 141.662526,29.8974013 140.703252,32.8390497 C138.686758,39.0227071 134.900128,43.8198913 125.613508,45.3427361" id="Path-4-Copy" stroke="#090F29" stroke-width="6.984" stroke-linecap="round" stroke-linejoin="round"></path>
            </g>
            <g id="Group-Copy" transform="translate(752.180686, 321.256111) scale(-1, 1) rotate(-4.000000) translate(-752.180686, -321.256111) translate(627.014600, 216.190790)">
                <ellipse id="Oval-Copy-4" fill="#090F29" cx="113.136048" cy="144.065038" rx="13.5" ry="20"></ellipse>
                <rect id="Rectangle-Copy-2" fill="#090F29" x="128.631745" y="166.896797" width="15" height="6" rx="3"></rect>
                <line x1="116.322218" y1="143.285395" x2="132.103094" y2="169.615087" id="Path-39" stroke="#090F29" stroke-width="4"></line>
                <g id="Oval">
                    <use stroke="#090F29" stroke-width="10.2" xlink:href="#path-3"></use>
                    <ellipse stroke="#47210C" stroke-width="10" stroke-linejoin="square" cx="50" cy="136.64281" rx="45" ry="68"></ellipse>
                </g>
                <ellipse id="Oval-Copy-2" fill="#090F29" cx="50.498782" cy="136.677688" rx="9.5" ry="14"></ellipse>
                <ellipse id="Oval-Copy-3" fill="#090F29" cx="43.4460772" cy="137.186957" rx="9.5" ry="14"></ellipse>
                <ellipse id="Oval-Copy-6" fill="#090F29" cx="192.35166" cy="136.572588" rx="5" ry="7"></ellipse>
                <ellipse id="Oval-Copy-11" fill="#090F29" cx="208.452198" cy="135.693564" rx="5" ry="7"></ellipse>
                <ellipse id="Oval-Copy-5" fill="#090F29" cx="54.0112296" cy="150.957489" rx="5" ry="7"></ellipse>
                <g id="Oval-Copy">
                    <use stroke="#090F29" stroke-width="10.2" xlink:href="#path-4"></use>
                    <ellipse stroke="#47210C" stroke-width="10" stroke-linejoin="square" cx="200.332172" cy="137.13064" rx="45" ry="68"></ellipse>
                </g>
                <path d="M170.767326,32.6725094 L166.57677,17.6725094 L196.481748,19.7636692 C200.529692,21.8326046 203.131273,24.2872706 204.286492,27.1276671 C209.403398,39.7088725 200.436948,46.9030223 186.821257,45.9509204" id="Path-4" stroke="#090F29" stroke-width="6.984" stroke-linecap="round" stroke-linejoin="round"></path>
                <line x1="89.3723267" y1="32.8907408" x2="83.3723267" y2="2.8907408" id="Path-5" stroke="#090F29" stroke-width="6.984" stroke-linecap="round" stroke-linejoin="round"></line>
                <path d="M93.6341887,47.7392689 L86.1405173,69.5766009 M77.2269815,95.5515644 L64.9957633,131.194597 L68.8377914,141.855372 L114.034739,140.739269" id="Shape" stroke="#090F29" stroke-width="4.85" stroke-linecap="round" stroke-linejoin="round"></path>
                <polyline id="Path" stroke="#24B0A4" stroke-width="6.984" stroke-linecap="round" stroke-linejoin="round" points="92.809901 47.6816291 41.0542261 129.520441 44.8962542 140.181217 114.034739 140.739269"></polyline>
                <polygon id="Path-2" stroke="#24B0A4" stroke-width="6.984" stroke-linecap="round" stroke-linejoin="round" points="89.644166 33.2875483 170.833046 33.2875483 175.644166 51.101183 112.674227 141.287548"></polygon>
                <line x1="208.452149" y1="135.694265" x2="192.851173" y2="136.607518" id="Path-15" stroke="#090F29" stroke-width="4"></line>
                <path d="M175.369458,50.1541607 L187.962219,63.2164838 M192.380437,78.4151528 L209.347534,136.781969" id="Shape" stroke="#090F29" stroke-width="6.984" stroke-linecap="round" stroke-linejoin="round"></path>
                <polyline id="Path-3" stroke="#24B0A4" stroke-width="6.984" stroke-linecap="round" stroke-linejoin="round" points="175.369458 50.1541607 171.00363 62.0306238 192.388945 135.596109"></polyline>
                <path d="M70.4535442,2.7466061 C69.0910296,4.42738188 68.7850387,5.80833889 69.5355714,6.88947712 C70.2861042,7.97061536 72.5476838,8.78577465 76.3203104,9.334955 L100.135699,13.1761377 C97.217408,11.5893349 94.110378,10.0269003 90.8146091,8.48883373 C88.7117753,7.50748509 87.6384086,3.50282821 83.2348443,2.54169633 C81.8585608,2.24130559 77.5981275,2.30960885 70.4535442,2.7466061 Z" id="Path-6" stroke="#090F29" stroke-width="6.984" fill="#090F29" stroke-linecap="round" stroke-linejoin="round" transform="translate(84.635699, 7.767139) rotate(-9.000000) translate(-84.635699, -7.767139) "></path>
                <rect id="Rectangle-Copy-3" fill="#090F29" x="88.9392347" y="133.397515" width="15" height="6" rx="3"></rect>
                <path d="M170.767326,32.6725094 L166.57677,17.6725094 L139.513657,16.4798131 C141.265994,24.4443224 141.662526,29.8974013 140.703252,32.8390497 C138.686758,39.0227071 134.900128,43.8198913 125.613508,45.3427361" id="Path-4-Copy" stroke="#090F29" stroke-width="6.984" stroke-linecap="round" stroke-linejoin="round"></path>
            </g>
            <path d="M326.114051,404.309999 C324.203238,361.112127 332.063196,334.72028 349.693924,325.134458 C358.557168,320.315515 379.483108,338.31304 391.21698,335.566107 C461.334975,319.151285 408.311642,348.24056 457.918586,348.24056 C472.909365,348.24056 487.781913,335.201996 498.819902,335.566107 C507.695248,335.858879 517.513818,340.969747 528.275613,350.89871 C531.436204,359.184913 533.321342,364.99848 533.931029,368.339413 C536.238799,380.985428 535.024477,387.880824 535.024477,387.880824 C535.024477,387.880824 465.387668,393.357216 326.114051,404.309999 Z" id="Path-7" fill="#F7BF7F"></path>
            <path d="M1854.34375,403.763555 C1856.03604,322.872414 1890.21304,272.328008 1956.87474,252.130337 C2056.8673,221.833831 1982.64348,294.776804 2053.38602,294.776804 C2100.54772,294.776804 2133.9922,296.412168 2153.71946,299.682897 C2160.13565,345.18766 2163.34375,367.940042 2163.34375,367.940042 C2163.34375,367.940042 2154.42526,448.727654 2026.82031,463.521367 C2003.80262,466.189894 1946.31043,446.270623 1854.34375,403.763555 Z" id="Path-7-Copy" fill="#EFAD61" transform="translate(2008.843750, 354.260684) scale(-1, -1) translate(-2008.843750, -354.260684) "></path>
            <polygon id="Path-10-Copy-3" fill="#090F29" points="1737.90625 315.757812 1745.10537 287.348209 1754.74219 278.986816 1746.83404 280.526468 1760.84486 225.236152 1770.14307 215.829531 1762.63791 218.160288 1780.27344 148.565963 1806.57013 242.569368 1798.75928 239.882324 1808.74659 250.349625 1830.35938 327.609375 1788.16478 322.456831 1790.26172 343.495117 1774.85263 343.495117 1775.85263 320.237588"></polygon>
            <polygon id="Path-10-Copy-5" fill="#090F29" points="1793.90625 345.297209 1835.60753 211.495117 1884.90625 354.781905 1843.37484 350.658371 1845.43883 367.495117 1830.27193 367.495117 1831.25621 348.882331"></polygon>
            <polygon id="Path-10-Copy-6" fill="#090F29" points="1836.40625 318.336609 1872.04703 194.76291 1882.13867 184.9375 1874.35386 186.764647 1892.31347 124.495117 1914.43391 193.970325 1905.49388 191.124023 1917.31149 203.008129 1935.24883 259.345175 1925.18652 255.402344 1938.34526 269.070345 1958.40625 332.077258 1902.72678 326.103421 1905.49388 350.495117 1885.16024 350.495117 1886.47983 323.53044"></polygon>
            <polygon id="Path-12" fill="#090F29" points="1675.53516 361.257812 1685.65569 5.078125 1688.46973 -1.28243616e-13 1691.21631 2.40332031 1685.30722 362.257813"></polygon>
            <g id="Group-2" transform="translate(1681.460938, 125.000000) rotate(2.000000) translate(-1681.460938, -125.000000) translate(1665.960938, 78.000000)">
                <ellipse id="Oval-Copy-10" fill="#090F29" cx="18" cy="47" rx="13" ry="47"></ellipse>
                <ellipse id="Oval-Copy-7" fill="#EFAD61" cx="13" cy="47" rx="13" ry="47"></ellipse>
                <ellipse id="Oval" fill="#090F29" cx="13" cy="47" rx="8.21052632" ry="36"></ellipse>
            </g>
            <g id="Group-3" transform="translate(1662.265625, 12.563477)" fill="#090F29">
                <polygon id="Path-13" points="1.31542355 16.8798828 42.8534073 1.97325028e-14 54 12.9658203 45.21464 30.3408203 -3.92566236e-13 47.6279297"></polygon>
                <polygon id="Path-13-Copy" points="4.31542355 17.8798828 42.8534073 1.37838862e-17 45.8534073 1 57 13.9658203 48.21464 31.3408203 3 48.6279297 0.6953125 47.6279297"></polygon>
            </g>
            <path d="M977.363903,7.16503906 C993.189774,7.16503906 998.487615,19.0810547 998.487615,25.8496094 C998.487615,27.8812367 997.735278,29.3848371 996.230604,30.3604106 C995.750106,35.1703459 994.072202,41.9536523 991.196777,50.7099609 C990.150083,54.155046 988.198533,55.5804201 985.342127,54.9860833 C983.985401,55.0719658 983.118965,56.8733246 982.742822,60.3901596 C981.470891,61.0342786 993.687988,63.1704102 1007.52872,75.7329102 C1011.54719,79.2973206 1018.36803,99.0530172 1027.99121,135 C1028.45976,136.947033 1035.80344,152.645309 1050.02226,182.094827 C1050.10854,187.104278 1044.72211,187.612625 1033.86298,183.619866 C1032.43519,182.14461 1027.7043,172.539558 1023.15719,162.879871 L1022.6233,161.743672 C1018.45106,152.849103 1014.55104,144.17708 1013.65234,142.047852 C1012.39278,139.063624 1009.34538,128.867823 1004.51015,111.460448 L1004.33481,110.831039 L1004.33649,110.84372 C1004.39731,111.347921 1005.92815,124.077097 1008.45039,148.847261 L1008.52872,149.617187 C1009.23574,156.574028 1010.14219,169.118299 1011.24805,187.25 C1011.60571,197.474369 1010.51989,232.845388 1007.99059,293.363057 C1007.77426,299.843382 1006.55559,325.0586 1004.33461,369.008711 C1004.63399,370.790779 1006.51131,372.028873 1008.52872,374.42041 C1009.16854,375.178893 1010.07955,376.153164 1011.26175,377.343224 L1011.71779,377.799612 C1014.29591,380.365377 1018.02763,383.849088 1022.91295,388.250745 C1024.61104,391.649084 1023.10048,393.530346 1018.38129,393.894531 C1018.38129,393.894531 1009.64493,392.561198 992.172204,389.894531 C984.442776,389.27596 982.148127,383.311453 985.288254,372.00101 C983.437345,346.538266 982.497514,326.74257 982.468762,312.613923 L982.468501,311.433443 C982.477087,306.18199 982.617427,301.750072 982.889523,298.13769 C982.078817,288.241457 980.376249,274.152493 977.781819,255.870799 L977.395197,253.161438 C976.471666,246.724148 975.44235,239.789554 974.30725,232.357655 C974.57903,241.716676 971.590535,258.827411 965.341766,283.689858 C965.665728,292.04438 963.188724,324.294355 957.910754,380.439784 C957.494398,383.085973 970.747418,395.247569 968.601562,399.357422 C963.956171,408.254516 947.155734,400.19404 941.168553,394.862793 C939.105268,393.025553 938.60628,387.703676 939.671588,378.897159 C935.664462,334.415447 936.16345,300.099399 941.168553,275.949016 C939.030415,258.644861 938.854804,230.547327 940.641722,191.656415 C940.699021,191.35723 940.728269,191.025404 940.728269,190.658691 L940.728773,190.247836 C940.781962,190.152154 940.781794,190.001837 940.728269,189.796885 L940.728269,163.260254 C940.728269,163.260254 940.075194,140.822917 938.769043,95.9482422 C926.832536,113.511719 919.447367,123.605306 916.613537,126.229004 C916.616955,126.657715 923.801037,153.20459 925.783203,168.001953 C926.367526,168.838038 926.523639,173.340098 926.623025,178.114325 L926.637207,178.814542 L926.637207,178.814542 L926.653015,179.630059 C926.658307,179.907196 926.663541,180.184047 926.668789,180.459956 C923.493252,180.225122 919.819528,180.343354 915.647949,180.814801 C911.144009,176.244003 898.882813,137.809645 898.882813,126.229004 C898.882813,114.648363 928.307373,75.0853235 935.547276,68.9882812 C940.373878,64.9235864 949.691152,61.0842912 963.499097,57.4703955 C963.499097,57.4703955 964.988265,56.5525487 965.749756,54.0664062 C965.886601,53.6196285 965.750061,52.7507284 965.340136,51.4597059 C961.426305,50.0200118 960.255747,35.1379323 959.950097,28.2677051 C957.989913,25.0655308 957.388945,22.1679166 958.146108,19.5751953 C958.21446,19.3411377 958.284458,19.0994604 958.357742,18.8515107 L958.447367,18.5510464 C959.864269,13.8498545 962.645843,7.16503906 977.363903,7.16503906 Z" id="Combined-Shape" fill="#090F29"></path>
            <rect id="Rectangle" fill="#090F29" x="973.960938" y="345" width="23" height="6" rx="3"></rect>
            <line x1="959.510742" y1="320.259088" x2="977.252441" y2="348" id="Path-33" stroke="#090F29" stroke-width="4"></line>
            <g id="Group" transform="translate(972.460938, 279.000000) rotate(-3.500000) translate(-972.460938, -279.000000) translate(785.960938, 171.000000)">
                <ellipse id="Oval-Copy-4" fill="#090F29" cx="168.509646" cy="148.10183" rx="20.3890675" ry="20.4295379"></ellipse>
                <g id="Oval">
                    <use stroke="#090F29" stroke-width="10.2" xlink:href="#path-5"></use>
                    <ellipse stroke="#FFFFFF" stroke-width="14" stroke-linejoin="square" cx="74.9598071" cy="140.891405" rx="67.9598071" ry="68.1085952"></ellipse>
                </g>
                <ellipse id="Oval-Copy-2" fill="#D8D8D8" cx="74.9598071" cy="140.891405" rx="14.392283" ry="14.4208503"></ellipse>
                <ellipse id="Oval-Copy-3" fill="#090F29" cx="74.9598071" cy="140.891405" rx="14.392283" ry="14.4208503"></ellipse>
                <ellipse id="Oval-Copy-6" fill="#090F29" cx="297.959807" cy="140.891405" rx="6.98613318" ry="7"></ellipse>
                <ellipse id="Oval-Copy-5" fill="#090F29" cx="79.7572347" cy="155.312255" rx="7.19614148" ry="7.21042514"></ellipse>
                <g id="Oval-Copy">
                    <use stroke="#090F29" stroke-width="10.2" xlink:href="#path-6"></use>
                    <ellipse stroke="#FFFFFF" stroke-width="14" stroke-linejoin="square" cx="298.040193" cy="140.891405" rx="67.9598071" ry="68.1085952"></ellipse>
                </g>
                <path d="M254.256638,33.9655177 L247.887983,18.6052232 L298.040193,18.6052232 C298.040193,33.6394603 291.973914,43.8796567 279.841357,49.3258122" id="Path-4" stroke="#090F29" stroke-width="7.2" stroke-linecap="round" stroke-linejoin="round"></path>
                <line x1="133.417915" y1="33.9754931" x2="123.264648" y2="3.1671769" id="Path-5" stroke="#090F29" stroke-width="7.2" stroke-linecap="round" stroke-linejoin="round"></line>
                <polyline id="Path" stroke="#E66200" stroke-width="7.2" stroke-linecap="round" stroke-linejoin="round" points="137.667199 49.3258122 71.8887975 134.284196 77.5552904 145.284084 167.755363 145.284084"></polyline>
                <polygon id="Path-2" stroke="#E66200" stroke-width="7.2" stroke-linecap="round" stroke-linejoin="round" points="133.417915 33.9754931 254.469219 33.9754931 261.642522 52.3348503 167.755363 145.284084"></polygon>
                <line x1="261.642522" y1="52.3348503" x2="298.040193" y2="140.891405" id="Path-3" stroke="#E66200" stroke-width="7.2" stroke-linecap="round" stroke-linejoin="round"></line>
                <polygon id="Path-6" stroke="#090F29" stroke-width="7.2" stroke-linecap="round" stroke-linejoin="round" points="100.66985 0 109.788593 6.33435379 149.919614 3.24962032"></polygon>
            </g>
            <line x1="957.31177" y1="300.060547" x2="863.486839" y2="305" id="Path-32" stroke="#090F29" stroke-width="2"></line>
            <line x1="956.362768" y1="340.107007" x2="869.278528" y2="340.107007" id="Path-32-Copy" stroke="#090F29" stroke-width="2"></line>
            <path d="M513.581055,399.7465 C513.581055,399.7465 527.727865,398.689398 556.021484,396.575195 C559.507161,386.182617 557.641927,379.211263 550.425781,375.661133 C539.601563,370.335938 542.932617,377.094423 529,372.582368 C515.067383,368.070312 515.155273,362.25357 510.388672,367.417969 C505.62207,372.582368 504.097656,371.104795 507.243164,378.134766 C510.388672,385.164736 514.960938,388.114258 514.960938,392.344727 C514.960938,396.575195 513.581055,399.7465 513.581055,399.7465 Z" id="Path-40" fill="#090F29"></path>
            <path d="M481.987305,404.309999 C487.081055,404.309999 493.046875,405.578007 495.332031,404.309999 C497.617188,403.041992 502.910156,400.073242 495.332031,398.430664 C487.753906,396.788086 484.012695,395.619862 484.012695,398.430664 C484.012695,401.241467 476.893555,404.309999 481.987305,404.309999 Z" id="Path-41" fill="#090F29"></path>
            <path d="M1375.34375,346.757812 C1366.38332,326.076158 1364.70615,312.905107 1370.31224,307.244657 C1373.1305,304.399061 1379.78438,315.026639 1383.51542,313.404569 C1405.81101,303.71158 1388.95105,320.888862 1404.72469,320.888862 C1409.49134,320.888862 1414.2204,313.189561 1417.73018,313.404569 C1420.55229,313.577452 1423.67432,316.59543 1427.09628,322.458505 C1428.10126,327.351527 1428.70068,330.784451 1428.89454,332.757279 C1429.62835,340.22478 1425.24223,344.296527 1425.24223,344.296527 C1425.24223,344.296527 1408.6094,345.116955 1375.34375,346.757812 Z" id="Path-7-Copy-2" fill="#F7BF7F"></path>
            <path d="M1426.25781,354.164736 L1455.16016,352.757813 C1459.21875,343.552083 1459.21875,338.949219 1455.16016,338.949219 C1449.07227,338.949219 1444.3125,334.668269 1442.23096,334.668269 C1440.14941,334.668269 1438.73633,333.285156 1438.73633,336.117188 C1438.73633,338.949219 1435.92969,335.898437 1432.49707,338.949219 C1429.06445,342 1426.25781,340.163577 1426.25781,344.747654 C1426.25781,347.803705 1426.25781,350.942732 1426.25781,354.164736 Z" id="Path-42" fill="#090F29"></path>
            <path d="M938.769043,95.9482422 C944.562988,99.1083984 947.222819,103.294596 946.748535,108.506836 C946.274251,113.719076 944.267496,136.638835 940.728269,177.266113 L938.769043,95.9482422 Z" id="Path-34" fill="#EF9C53"></path>
            <path d="M730.486328,84.9181864 L741.379898,79.5446589 C741.994471,68.4094176 747.138428,62.5368301 756.811768,61.9268964 C760.854403,64.6562962 760.250155,66.0209961 754.999023,66.0209961 C747.122326,66.0209961 744.021928,79.0548292 747.668945,79.138916 C765.266846,79.5446589 747.591965,80.0390422 747.122326,80.4984695 C744.218487,83.3391677 731.513485,86.2418645 731.03833,85.9294434 C730.670329,85.6874773 730.486328,85.3503916 730.486328,84.9181864 Z" id="Path-44" fill="#EF9C53"></path>
            <path d="M1004.33461,110.828125 L1019.28076,142.461426 L1042.01562,181.357422 L1032.23633,182.042334 C1029.1205,175.557234 1026.91477,171.014314 1025.61914,168.413574 C1018.67064,154.465726 1014.80138,145.432199 1013.17236,141.115723 C1011.08773,135.59196 1008.14181,125.496094 1004.33461,110.828125 Z" id="Path-35" fill="#EF9C53"></path>
            <path d="M762.545997,71.9257413 C765.815631,65.9091909 770.92164,64.8330446 777.864022,68.6973025 C788.277597,74.4936892 774.432722,88.4898877 776.926598,94.1690869 C779.420474,99.8482861 775.656847,105.390767 773.740453,101.780903 C771.824059,98.1710401 769.747223,91.4957471 772.781491,87.2711377 C773.552206,86.1980704 773.533995,84.7913075 772.726856,83.050849 C771.852654,81.1657798 768.459034,77.4574106 762.545997,71.9257413 Z" id="Path-43" fill="#562205" transform="translate(772.171516, 84.680470) rotate(-20.000000) translate(-772.171516, -84.680470) "></path>
            <path d="M756.545997,71.3804342 C759.815631,65.3638838 764.92164,64.2877375 771.864022,68.1519953 C782.277597,73.948382 774.070878,89.9967014 776.564754,95.6759007 C779.058629,101.3551 775.295003,106.89758 773.378609,103.287717 C771.462215,99.6778538 763.747223,90.95044 766.781491,86.7258306 C767.552206,85.6527633 767.533995,84.2460004 766.726856,82.5055419 C765.852654,80.6204727 762.459034,76.9121035 756.545997,71.3804342 Z" id="Path-43-Copy" fill="#090F29" transform="translate(766.968702, 85.161223) rotate(-20.000000) translate(-766.968702, -85.161223) "></path>
            <path d="M961.315014,30.2626953 C958.29104,26.2584635 957.234738,22.6959635 958.146108,19.5751953 C959.513163,14.894043 961.538032,7.16489931 977.363903,7.16489931 C983.083008,9.42895508 974.613895,7.64108073 965.439453,15.8029785 C963.154745,17.8355335 961.779932,22.6554391 961.315014,30.2626953 Z" id="Path-21-Copy" fill="#EF9C53"></path>
        </g>
    </g>
</svg>