<?xml version="1.0" encoding="UTF-8"?>
<svg width="4000px" height="1282px" viewBox="0 0 4000 1282" version="1.1" xmlns="http://www.w3.org/2000/svg" xmlns:xlink="http://www.w3.org/1999/xlink">
    <title>header</title>
    <g id="header" stroke="none" stroke-width="1" fill="none" fill-rule="evenodd">
        <g id="4" transform="translate(-885.993127, 847.774224)">
            <path d="M2552.5512,738.570589 C3839.92695,738.570589 5246.39026,637.687067 5246.39026,481.942768 C5246.39026,326.198468 3839.92695,174.570589 2552.5512,174.570589 C1265.17545,174.570589 221.551198,300.82629 221.551198,456.570589 C221.551198,612.314889 1265.17545,738.570589 2552.5512,738.570589 Z" id="Oval" fill="#EF9C53" transform="translate(2733.970727, 456.570589) rotate(-4.000000) translate(-2733.970727, -456.570589) "></path>
            <path d="M2344.30066,760.396107 C3631.67641,760.396107 5243.84054,673.896588 5243.84054,518.152288 C5243.84054,362.407989 3631.67641,196.396107 2344.30066,196.396107 C1056.92491,196.396107 13.3006595,322.651808 13.3006595,478.396107 C13.3006595,634.140406 1056.92491,760.396107 2344.30066,760.396107 Z" id="Oval-Copy-8" fill="#C86832" transform="translate(2628.570601, 478.396107) rotate(-4.000000) translate(-2628.570601, -478.396107) "></path>
        </g>
    </g>
</svg>