<?xml version="1.0" encoding="UTF-8"?>
<svg width="4000px" height="1282px" viewBox="0 0 4000 1282" version="1.1" xmlns="http://www.w3.org/2000/svg" xmlns:xlink="http://www.w3.org/1999/xlink">
    <title>header</title>
    <g id="header" stroke="none" stroke-width="1" fill="none" fill-rule="evenodd">
        <g id="5" transform="translate(818.945312, 914.609375)">
            <path d="M77.5351563,187.326172 C79.0280206,187.326172 82.9877558,187.378631 88.7495206,187.074018 C107.939058,186.059506 147.117079,181.084279 181.722656,157.019208 C226.71875,125.728467 325.886719,85.7559385 414.226563,111 C502.566406,136.244061 606.179687,217.320371 805.867187,122.84767 C1005.55469,28.3749703 1331.39063,28.3749703 1597,98.390625 C1862.60938,168.40628 1905,38 2019.88281,38 C2096.47135,38 2166.7526,56.9855295 2230.72656,94.9565885 L2230.72656,195.123535 L18.328125,260.5625 C53.4895833,211.738281 73.2252604,187.326172 77.5351563,187.326172 Z" id="Path-17" fill="#EEBC87"></path>
            <polygon id="Path-10-Copy-7" fill="#090F29" points="333 201.148437 375.367188 33.9565885 425.453125 213"></polygon>
            <polygon id="Path-10-Copy-8" fill="#090F29" points="281 262.148437 323.367188 94.9565885 373.453125 274"></polygon>
            <polygon id="Path-10-Copy-9" fill="#090F29" points="368 205.997644 410.367188 79 460.453125 215"></polygon>
            <polygon id="Path-10-Copy-10" fill="#090F29" points="1568 126.997644 1610.36719 -1.12051908e-15 1660.45313 136"></polygon>
            <polygon id="Path-10-Copy-11" fill="#090F29" points="1597 164.997644 1639.36719 38 1689.45313 174"></polygon>
            <polygon id="Path-10-Copy" fill="#090F29" points="84 205.255326 111.685805 96 144.415603 213"></polygon>
            <polygon id="Path-10-Copy-4" fill="#090F29" points="1905 126.255326 1932.6858 17 1965.4156 134"></polygon>
            <polygon id="Path-10-Copy-2" fill="#090F29" points="0 220.255326 27.6858048 111 60.4156028 228"></polygon>
        </g>
    </g>
</svg>