<?xml version="1.0" encoding="UTF-8"?>
<svg width="4000px" height="1282px" viewBox="0 0 4000 1282" version="1.1" xmlns="http://www.w3.org/2000/svg" xmlns:xlink="http://www.w3.org/1999/xlink">
    <title>header</title>
    <g id="header" stroke="none" stroke-width="1" fill="none" fill-rule="evenodd">
        <g id="6" transform="translate(0.000000, 381.000000)">
            <polygon id="Path-9" fill="#FBDDBD" points="2051.44531 620 2254.64022 366.156594 2377.50028 493.078297 2730.20347 -2.85663379e-14 3002.87716 305.641842 3058.39573 234.451282 3420.44531 552.245585"></polygon>
            <polygon id="Path-8" fill="#FBDDBD" points="357.054688 781.757812 755.479576 247.757812 888.51443 424.270302 958.79272 338.403154 1075.0283 497.578716 1139.77857 411.725948 1398.05469 693.943737"></polygon>
            <polygon id="Rectangle-Copy" fill="#FBDDBD" points="1.30104261e-14 682 4000 453 4000 953 1.30104261e-14 953"></polygon>
            <path d="M1356.59375,487.769531 L1601.59375,487.769531 C1600.86076,445.153729 1581.97087,423.845827 1544.92408,423.845827 C1507.87728,423.845827 1489.35389,431.259909 1489.35389,446.088073 C1474.11009,400.542378 1449.6808,377.769531 1416.06599,377.769531 C1382.45119,377.769531 1362.62711,414.436198 1356.59375,487.769531 Z" id="Path-30" fill="#FFFFFF"></path>
            <path d="M2553.40321,283.3125 C2555.99033,283.3125 2593.18016,283.3125 2664.97272,283.3125 C2656.92433,257.475754 2645.61477,244.55738 2631.04405,244.55738 C2616.47332,244.55738 2606.23153,251.016567 2600.31866,263.93494 C2596.03231,232.315447 2583.96116,217.88537 2564.10521,220.644708 C2544.24926,223.404047 2534.32129,236.450628 2534.32129,259.784451 C2520.68151,247.830507 2509.88,247.830507 2501.91676,259.784451 C2493.95353,271.738395 2493.95353,279.581078 2501.91676,283.3125 C2533.65394,283.3125 2550.81609,283.3125 2553.40321,283.3125 Z" id="Path-31" fill="#FFFFFF"></path>
        </g>
    </g>
</svg>