<?xml version="1.0" encoding="UTF-8"?>
<svg width="4000px" height="1282px" viewBox="0 0 4000 1282" version="1.1" xmlns="http://www.w3.org/2000/svg" xmlns:xlink="http://www.w3.org/1999/xlink">
    <title>header</title>
    <g id="header" stroke="none" stroke-width="1" fill="none" fill-rule="evenodd">
        <g id="7" transform="translate(-356.329137, -289.195312)">
            <path d="M2700.64164,993.511576 C3071.28226,959.766784 3278.40726,939.20168 3322.01664,931.816263 C3387.4307,920.738138 3459.01664,865.995951 3459.01664,865.995951 C3459.01664,865.995951 3768.57892,817.800638 3746.00882,800.910013 C3723.43873,784.019388 3650.75101,749.722513 3637.50101,749.722513 C3624.25101,749.722513 3464.89945,769.824076 3429.71976,769.824076 C3405.29109,769.824076 2951.97415,752.62279 2905.93937,726.613138 C2885.67953,715.166331 3111.36906,704.316263 3212.23625,664.076581 C3278.99803,637.442816 3469.27445,634.402201 3583.48225,634.402201 C3697.69005,634.402201 3963.79789,583.206888 4013.72757,583.206888 C4063.65726,583.206888 4296.41921,562.558451 4382.35871,509.667826 C4468.29822,456.777201 4449.68851,362.456888 4278.57132,393.878763 C4107.45414,425.300638 3874.72757,393.878763 3880.50101,393.878763 C3886.27445,393.878763 3724.37601,314.128763 4042.29007,314.128763 C4360.20414,314.128763 4420.6118,324.527201 4594.49364,314.128763 C4768.37549,303.730326 4680.09926,195.316263 4479.33529,195.316263 C4373.88228,195.316263 3930.77229,207.442783 3530.67897,218.956703 C3456.32564,221.09645 3390.95542,214.270053 3322.01664,216.285723 C3308.99467,216.666466 3259.15624,207.6391 3266.72843,185.206888 C3272.1165,169.245024 3348.37844,156.822597 3363.53312,144.058451 C3375.97409,133.579948 3471.75968,41.2431597 3408.31437,5.31626325 C3371.9081,-15.2993537 3233.99724,30.3469046 3120.05656,35.3162633 C3035.43248,39.0070206 2968.81028,-1.04700024 2941.54093,5.31626325 C2767.43828,45.9428736 2837.61751,239.269388 2832.32132,239.269388 C2810.68851,239.269388 2714.54007,234.378763 2714.54007,314.128763 C2714.54007,367.29543 2709.90726,593.756367 2700.64164,993.511576 Z" id="Path-27-Copy" fill="#FFFFFF" transform="translate(3694.028785, 496.755788) scale(-1, -1) translate(-3694.028785, -496.755788) "></path>
            <path d="M2358.73992,1220.80469 L2509.50269,980.195312 C2572.72461,1075.52865 2604.33557,1123.19531 2604.33557,1123.19531 C2604.33557,1123.19531 2653.24228,1050.05208 2751.0557,903.765625 L2925.47757,1131.92822 L3531.18851,1112.69043 L3641.5557,963.390625 L3878.9932,1180.12972 L3198.66507,1292.22594 L2537.28746,1330.25644 L2358.73992,1220.80469 Z" id="Path-22" fill="#FFE9D2"></path>
            <polygon id="Path-11" fill="#FFE9D2" points="1490.27445 1301.38138 1674.00882 1080.96875 1747.93159 1151.81274 1772.62992 1112.69043 1808.1329 1145.47276 1876.50492 1014.90756 1979.45169 1199.24501 2086.98444 1135.76128 2193.33982 1296.08886"></polygon>
            <circle id="Oval" fill="#FFFFFF" cx="1531.32914" cy="958.195312" r="86"></circle>
            <path d="M17.6416371,979.195312 C388.282262,945.450521 595.407262,924.885417 639.016637,917.5 C704.4307,906.421875 776.016637,851.679688 776.016637,851.679688 C776.016637,851.679688 1048.92289,817.679688 1063.00882,786.59375 C1077.09476,755.507813 1041.54052,743.960781 954.501012,735.40625 C867.461505,726.851719 781.89945,755.507813 746.719762,755.507813 C711.540075,755.507813 489.1182,698.257813 554.219762,670.96875 C619.321325,643.679688 786.27445,620.085938 900.482251,620.085938 C1014.69005,620.085938 1280.79789,568.890625 1330.72757,568.890625 C1380.65726,568.890625 1613.41921,548.242188 1699.35871,495.351563 C1785.29822,442.460938 1766.68851,348.140625 1595.57132,379.5625 C1500.42225,397.034517 730.873912,328.95959 342.516637,329.4375 C32.4477592,329.819069 92.7037188,404.053965 0.586949598,379.5625 C-1.94960348,378.888096 3.73529235,578.7657 17.6416371,979.195312 Z" id="Path-27" fill="#FFFFFF"></path>
        </g>
    </g>
</svg>