<?xml version="1.0" encoding="UTF-8"?>
<svg width="4000px" height="1282px" viewBox="0 0 4000 1282" version="1.1" xmlns="http://www.w3.org/2000/svg" xmlns:xlink="http://www.w3.org/1999/xlink">
    <title>header</title>
    <g id="header" stroke="none" stroke-width="1" fill="none" fill-rule="evenodd">
        <g id="2" transform="translate(491.242554, 389.030540)" fill="#090F29">
            <polygon id="Path-10-Copy-12" points="209.322013 625.631309 227.131936 555.34876 281.099243 513.054057 235.500031 522.3261 267.912972 394.416272 305.054321 361.846413 273.407031 372.735299 342.772821 99 383.136832 243.290203 367.629457 239.290203 387.840484 260.104464 500.53663 662.962099 367.629457 646.732295 374.234532 809 325.698032 801 328.847894 639.741984"></polygon>
            <polygon id="Path-10-Copy-15" transform="translate(2802.929321, 355.000000) scale(-1, 1) translate(-2802.929321, -355.000000) " points="2657.32201 526.631309 2675.13194 456.34876 2729.09924 414.054057 2683.50003 423.3261 2715.91297 295.416272 2753.05432 262.846413 2721.40703 273.735299 2790.77282 -4.64654628e-15 2831.13683 144.290203 2815.62946 140.290203 2835.84048 161.104464 2948.53663 563.962099 2815.62946 547.732295 2822.23453 710 2773.69803 702 2776.84789 540.741984"></polygon>
            <polygon id="Path-10-Copy-13" points="377.322013 720.101986 388.156986 678.293454 412.259399 663.970163 392.57902 661.230308 474.014002 347 520.551788 509.667148 496.809633 501.727272 526.563726 530.681142 568.441994 677.061517 541.806274 667.893288 573.878254 696.063299 588.322013 746.549696 492.023916 735.051382 496.809633 782 461.642437 782 463.924675 730.098963"></polygon>
            <polygon id="Path-10-Copy-16" transform="translate(2969.822013, 419.500000) scale(-1, 1) translate(-2969.822013, -419.500000) " points="2864.32201 575.101986 2875.15699 533.293454 2899.2594 518.970163 2879.57902 516.230308 2961.014 202 3007.55179 364.667148 2983.80963 356.727272 3013.56373 385.681142 3055.44199 532.061517 3028.80627 522.893288 3060.87825 551.063299 3075.32201 601.549696 2979.02392 590.051382 2983.80963 637 2948.64244 637 2950.92467 585.098963"></polygon>
            <polygon id="Path-10-Copy-14" points="0.000173989077 731.928171 21.405786 651.506008 44.0786144 620.356244 28.2667234 624.98328 84.4667393 406 122.499222 538.937899 109.260312 532.689467 127.257225 555.568917 184.322013 755.031918 100.199538 744.987414 104.380164 786 73.6593951 786 75.653074 740.661163"></polygon>
            <polygon id="Path-10-Copy-17" transform="translate(2637.821913, 432.500000) scale(-1, 1) translate(-2637.821913, -432.500000) " points="2532.32201 588.101986 2556.82581 496.039772 2582.78023 460.38149 2564.67977 465.678228 2593.21279 354.499371 2613.37076 330.863569 2598.8129 332.678541 2629.014 215 2672.55119 367.17891 2657.39612 360.0261 2677.99785 386.21705 2715.80377 518.363035 2685.72232 504.052404 2724.19545 547.695145 2743.32201 614.549696 2647.02392 603.051382 2651.80963 650 2616.64244 650 2618.92467 598.098963"></polygon>
        </g>
        <g id="1" transform="translate(-4.000000, 975.000000)" fill="#090F29">
            <polygon id="Rectangle" points="1.30104261e-14 229 4008 1.56336749e-13 4008 325 1.30104261e-14 325"></polygon>
            <path d="M633.697266,216.271484 C614.504557,192.185205 609.70638,175.59471 619.302734,166.5 C633.697266,152.857935 604.195312,82.7280729 646.939453,92.0876692 C689.683594,101.447266 675.605469,50.9272907 717.050781,69.2285156 C758.496094,87.5297405 794.056641,63.6928197 816.796875,91.3464099 C839.537109,119 827.204665,112.636719 875.153114,129.916016 C923.101562,147.195313 938.291016,148.664063 945.226562,175.210938 C949.85026,192.908854 953.279297,203.500651 955.513672,206.986328 L633.697266,216.271484 Z" id="Path-14"></path>
            <path d="M1298.69727,199.199416 C1225.55273,187.825871 1193.77865,179.309646 1203.375,173.650739 C1217.76953,165.162379 1269.19531,116.106089 1311.93945,121.929814 C1354.68359,127.753538 1340.60547,96.31902 1382.05078,107.706401 C1423.49609,119.093781 1459.05664,104.261982 1481.79688,121.468588 C1504.53711,138.675193 1492.20467,134.715835 1540.15311,145.467352 C1588.10156,156.218869 1603.29102,157.132754 1610.22656,173.650739 C1614.85026,184.662729 1618.2793,191.253153 1620.51367,193.422009 L1298.69727,199.199416 Z" id="Path-14-Copy"></path>
            <path d="M3219.69727,102.199416 C3146.55273,90.8258712 3114.77865,82.3096457 3124.375,76.6507391 C3138.76953,68.1623792 3190.19531,19.1060894 3232.93945,24.9298136 C3275.68359,30.7535378 3261.60547,-0.680980038 3303.05078,10.7064005 C3344.49609,22.0937811 3380.05664,7.26198212 3402.79688,24.4685875 C3425.53711,41.6751929 3413.20467,37.7158347 3461.15311,48.4673516 C3509.10156,59.2188685 3524.29102,60.1327536 3531.22656,76.6507391 C3535.85026,87.6627295 3539.2793,94.2531529 3541.51367,96.4220095 L3219.69727,102.199416 Z" id="Path-14-Copy-2"></path>
            <path d="M2580.85937,99.3317307 C2580.85937,99.3317307 2570.43359,90.4279558 2612.07227,82.2578125 C2653.71094,74.0876692 2678.78125,65.6756841 2696.70508,61.3378421 C2714.62891,57 2696.0625,47.1790008 2730.41016,53.6430037 C2764.75781,60.1070066 2866,63.3714168 2885,63.3714168 C2904,63.3714168 2979.23047,46.2647251 2986.46484,47 C2993.69922,47.7352749 2991.34375,40.2627091 3024.89453,53.6430037 C3047.26172,62.5632001 3085.37891,69.4357601 3139.24609,74.2606837 C3081.34766,98.5184365 3052.39844,110.647313 3052.39844,110.647313 C3052.39844,110.647313 2892.95964,106.875452 2574.08203,99.3317307 C2578.60026,99.3317307 2580.85937,99.3317307 2580.85937,99.3317307 Z" id="Path-28"></path>
        </g>
    </g>
</svg>