<svg height="619" viewBox="0 0 1394 619" width="1394" xmlns="http://www.w3.org/2000/svg"><path d="m17.6416371 979.195312c370.6406249-33.744791 577.7656249-54.309895 621.3749999-61.695312 65.414063-11.078125 137-65.820312 137-65.820312s272.906253-34 286.992183-65.085938c14.08594-31.085937-21.4683-42.632969-108.507808-51.1875-87.039507-8.554531-172.601562 20.101563-207.78125 20.101563-35.179687 0-257.601562-57.25-192.5-84.539063 65.101563-27.289062 232.054688-50.882812 346.262489-50.882812 114.207799 0 380.315639-51.195313 430.245319-51.195313 49.92969 0 282.69164-20.648437 368.63114-73.539062 85.93951-52.890625 67.3298-147.210938-103.78739-115.789063-95.14907 17.472017-864.697408-50.60291-1253.054683-50.125-310.0688778.381569-249.8129182 74.616465-341.9296874 50.125-2.53655308-.674404 3.14834275 199.2032 17.0546875 599.632812z" fill="#fff" fill-rule="evenodd" transform="translate(-356.329137 -329.195312)"/></svg>