<svg height="705" viewBox="0 0 1656 705" width="1656" xmlns="http://www.w3.org/2000/svg"><path d="m2700.64164 993.511576c370.64062-33.744792 577.76562-54.309896 621.375-61.695313 65.41406-11.078125 137-65.820312 137-65.820312s309.56228-48.195313 286.99218-65.085938c-22.57009-16.890625-95.25781-51.1875-108.50781-51.1875s-172.60156 20.101563-207.78125 20.101563c-24.42867 0-477.74561-17.201286-523.78039-43.210938-20.25984-11.446807 205.42969-22.296875 306.29688-62.536557 66.76178-26.633765 257.0382-29.67438 371.246-29.67438s380.31564-51.195313 430.24532-51.195313c49.92969 0 282.69164-20.648437 368.63114-73.539062 85.93951-52.890625 67.3298-147.210938-103.78739-115.789063-171.11718 31.421875-403.84375 0-398.07031 0s-156.125-79.75 161.78906-79.75c317.91407 0 378.32173 10.398438 552.20357 0 173.88185-10.398437 85.60562-118.8125-115.15835-118.8125-105.45301 0-548.563 12.12652-948.65632 23.64044-74.35333 2.139747-139.72355-4.68665-208.66233-2.67098-13.02197.380743-62.8604-8.646623-55.28821-31.078835 5.38807-15.961864 81.65001-28.384291 96.80469-41.148437 12.44097-10.478503 108.22656-102.8152913 44.78125-138.74218775-36.40627-20.61561695-174.31713 25.03064135-288.25781 30.00000005-84.62408 3.6907573-151.24628-36.36326354-178.51563-30.00000005-174.10265 40.62661035-103.92342 233.95312475-109.21961 233.95312475-21.63281 0-117.78125-4.890625-117.78125 74.859375 0 53.166667-4.63281 279.627604-13.89843 679.382813z" fill="#fff" fill-rule="evenodd" transform="matrix(-1 0 0 -1 4687.728433 704.316264)"/></svg>