<svg height="1283" viewBox="0 0 1269 1283" width="1269" xmlns="http://www.w3.org/2000/svg"><g fill="#090f29" fill-rule="evenodd" transform="translate(.875 .526242)"><path d="m407.689567 908.135607 17.809922-70.282548 8.368095-33.022661 32.412942-127.909827 37.141349-32.56986-31.64729 10.888886 69.36579-273.735299 40.36401 144.290204-15.507374-4 20.211027 20.814261 112.696145 402.857634-132.907172-16.229803 6.605075 162.267706-48.5365-8 3.149862-161.258017z" transform="matrix(-1 0 0 1 1106.59375 0)"/><path d="m631.839613 386.787286 125.885563-325.2829875 123.636298 289.3933085-47.4996-8.022535 61.907044 41.745786 372.356082 897.161842h-687.992188z" transform="matrix(-1 0 0 1 1848.257812 0)"/><path d="m894.40625 1282.47376 123.13393-421.484718 173.45764-121.641948-146.56154 26.666916 104.17923-367.87587-51.44364-107.633842 157.91407-290.504298 13.03906.47375815v1281.30894185z"/><path d="m607.689567 943.606284 10.834973-41.808531 24.102413-14.323292-19.680379-2.739854 81.434982-314.230309 46.537786 162.667149-23.742155-7.939876 29.754092 28.953869 41.878269 146.380376-26.63572-9.16823 32.07198 28.170011 14.443759 50.486397-96.298097-11.498314 4.785717 94.94862h-35.167196l2.282238-99.901039z" transform="matrix(-1 0 0 1 1426.379134 0)"/><path d="m291.689567 977.606284 24.503792-92.062213 25.954422-35.658282-18.100454 5.296737 28.533017-111.178857 20.157965-23.635802-14.557853 1.814972 30.2011-117.678541 43.537184 152.178911-15.155068-7.15281 20.601729 26.190949 37.805922 132.145985-30.081451-14.310631 38.473136 43.642742 19.126559 66.854546-96.298097-11.49831 1.156954 63.48448-31.538433-16.53586 2.282238-51.901039z" transform="matrix(-1 0 0 1 794.378934 0)"/><path d="m678.336826 829.497253 25.050642-131.638384 69.887236-50.987244-34.056272 7.573726 53.685293-158.972987 37.92751-33.79648-27.390816 2.595202 56.823817-168.266788 81.915856 217.59835-28.514485-10.227696 38.762459 37.450048 71.132404 188.953569-56.598698-20.462558 72.387778 62.404104 35.9869 95.594323-96.97187 31.558733-75.210026 19.131127h-66.167601l4.294064-74.212517z" transform="matrix(-1 0 0 1 1753.672902 0)"/><path d="m0 1282.47376c18.2868691-33.13405 64.7569212-76.03639 139.410156-128.70703 85.472235-60.30385 131.410157-60.30385 203.273438-97.72657 71.863281-37.42271 111.636719-61.460312 154.380859-55.63659 42.744141 5.82373 28.666016-25.610792 70.111328-14.223411 41.445313 11.38738 77.00586-3.444419 99.746094 13.762187 22.740234 17.206604 10.40779 13.247244 58.356239 23.998764s63.137902 11.6654 70.073449 28.18339c4.623697 11.01199 7.069699 87.79507 7.338004 230.34926z"/></g></svg>