<svg height="1282" viewBox="0 0 1203 1282" width="1203" xmlns="http://www.w3.org/2000/svg"><g fill="#090f29" fill-rule="evenodd"><path d="m687.564567 1017.66185 17.809922-70.28255 53.967308-42.294702-45.599213 9.272042 32.412942-127.909828 37.141349-32.569859-31.64729 10.888886 69.36579-273.735299 40.36401 144.290203-15.507374-4 20.211027 20.814262 39.649272 141.73521-29.167743-13.878027 38.808624 48.341518 63.405992 226.658934-132.907172-16.2298 6.605075 162.2677-48.5365-8 3.149862-161.25802z"/><path d="m46.0635524 504.486997 171.8651246-414.4564567 136.942447 299.1481397-52.611665-8.292958 68.569686 43.152947 390.93648 857.270271h-591.292969z"/><path d="m0 1281.30894 169.820312-957.71519 171.125-323.59375v1282z" transform="matrix(-1 0 0 1 340.945312 0)"/><path d="m258.711957 1116.32248 27.94402-110.27431 84.675466-66.360982-71.545807 14.547965 50.856362-200.692321 58.2753-51.102568-49.655044 17.084815 108.835901-429.494539 63.331701 226.393361-24.331289-6.276056 31.711386 32.657869 176.82184 632.089306-208.533226-25.46479-60.848818-10.9679z" transform="matrix(-1 0 0 1 974.34375 0)"/><path d="m870.564567 1100.13253 10.834973-41.80854 24.102413-14.32329-19.680379-2.73985 81.434982-314.23031 46.537784 162.667149-23.742153-7.939876 29.754093 28.953869 41.87827 146.380378-26.63572-9.16823 32.07198 28.17001 14.44376 50.4864-96.2981-11.49832 9.227671 114.94542-42.759766-41.27343 5.432854-78.62441z"/><path d="m547.916342 1103.08479 34.023657-127.828911 36.037864-49.511729-25.132584 7.354551 89.328446-348.068161 60.45163 211.301292-21.042899-9.931718 28.605619 36.366284 90.70298 317.041192-133.710461-15.96548 6.644996 65.18843h-48.829854l3.1689-72.06489z"/><path d="m615.302734 1281.30894c-9.596354-84.11125-9.596354-130.71423 0-139.80894 14.394532-13.64206-15.107421-83.77193 27.636719-74.41233 42.744141 9.3596 28.666016-41.16038 70.111328-22.85915 41.445313 18.30122 77.00586-5.5357 99.746094 22.11789s10.40779 21.29031 58.356239 38.56961c47.948449 17.27929 63.137902 18.74804 70.073449 45.29492 4.623697 17.69791 91.876297 61.39725 261.757817 131.098z"/></g></svg>