<?xml version="1.0" encoding="UTF-8"?>
<svg width="14px" height="15px" viewBox="0 0 14 15" version="1.1" xmlns="http://www.w3.org/2000/svg" xmlns:xlink="http://www.w3.org/1999/xlink">
    <title>Icons/Cross</title>
    <g id="Page-1" stroke="none" stroke-width="1" fill="none" fill-rule="evenodd">
        <g id="header" transform="translate(-533.000000, -1094.000000)" fill="#FFFFFF">
            <g id="Icons/Cross" transform="translate(532.966318, 1094.360252)">
                <path d="M13.6066017,0.292893219 C13.997126,0.683417511 13.997126,1.31658249 13.6066017,1.70710678 L8.69974747,6.94974747 L13.6066017,12.1923882 C13.997126,12.5829124 13.997126,13.2160774 13.6066017,13.6066017 C13.2160774,13.997126 12.5829124,13.997126 12.1923882,13.6066017 L6.94974747,8.69974747 L1.70710678,13.6066017 C1.31658249,13.997126 0.683417511,13.997126 0.292893219,13.6066017 C-0.0976310729,13.2160774 -0.0976310729,12.5829124 0.292893219,12.1923882 L5.19974747,6.94974747 L0.292893219,1.70710678 C-0.0976310729,1.31658249 -0.0976310729,0.683417511 0.292893219,0.292893219 C0.683417511,-0.0976310729 1.31658249,-0.0976310729 1.70710678,0.292893219 L6.94974747,5.19974747 L12.1923882,0.292893219 C12.5829124,-0.0976310729 13.2160774,-0.0976310729 13.6066017,0.292893219 Z" id="Path"></path>
            </g>
        </g>
    </g>
</svg>
