<?xml version="1.0" encoding="utf-8"?>
<svg width="16px" height="16px" viewBox="0 0 16 16" version="1.1" xmlns="http://www.w3.org/2000/svg">
  <title>facebook</title>
  <desc>Created with sketchtool.</desc>
  <g id="icons" stroke="none" stroke-width="1" fill="none" fill-rule="evenodd">
    <g id="v1" transform="translate(-176.000000, -176.000000)" fill="#000000">
      <g id="facebook" transform="translate(176.000000, 176.000000)">
        <path d="M15.1169849,16.0001242 C15.6045895,16.0001242 16,15.6047137 16,15.1169849 L16,0.883077174 C16,0.395286302 15.6046516,0 15.1169849,0 L0.883077174,0 C0.395286302,0 0,0.395286302 0,0.883077174 L0,15.1169849 C0,15.6046516 0.395224219,16.0001242 0.883077174,16.0001242 L15.1169849,16.0001242 L15.1169849,16.0001242 Z M10.9850811,16.0001242 L10.9850811,9.83468787 L13.0545174,9.83468787 L13.3643861,7.43190795 L10.9850811,7.43190795 L10.9850811,5.89788478 C10.9850811,5.20222455 11.1782548,4.72815506 12.1758147,4.72815506 L13.4481544,4.72759907 L13.4481544,2.57853343 C13.2281081,2.54925158 12.472834,2.48383073 11.5941313,2.48383073 C9.75969112,2.48383073 8.50378378,3.60358363 8.50378378,5.6599234 L8.50378378,7.43190795 L6.42903475,7.43190795 L6.42903475,9.83468787 L8.50378378,9.83468787 L8.50378378,16.0001242 L10.9850811,16.0001242 L10.9850811,16.0001242 Z" id="icon" style="fill: rgb(255, 255, 255);"/>
      </g>
    </g>
  </g>
</svg>