<?xml version="1.0" encoding="UTF-8"?>
<svg width="658px" height="167px" viewBox="0 0 658 167" version="1.1" xmlns="http://www.w3.org/2000/svg" xmlns:xlink="http://www.w3.org/1999/xlink">
    <title>Group 4</title>
    <g id="Page-1" stroke="none" stroke-width="1" fill="none" fill-rule="evenodd">
        <g id="Artboard" transform="translate(-126.000000, -167.000000)">
            <g id="Group-4" transform="translate(134.325301, 167.870000)">
                <g id="TECH-BIKERS" transform="translate(256.851270, 0.000000)" fill-rule="nonzero">
                    <path d="M17.8784289,73.13 L31.4744289,73.13 C32.9164289,73.13 34.2554289,71.997 34.5644289,70.555 L45.9974289,17.201 L64.2284289,17.201 C65.7734289,17.201 67.0094289,16.068 67.3184289,14.626 L69.6874289,3.605 C69.9964289,2.163 69.0694289,1.03 67.6274289,1.03 L12.2134289,1.03 C10.7714289,1.03 9.43242886,2.163 9.12342886,3.605 L6.75442886,14.626 C6.44542886,16.068 7.37242886,17.201 8.81442886,17.201 L27.1484289,17.201 L15.7154289,70.555 C15.4064289,71.997 16.4364289,73.13 17.8784289,73.13 Z" id="Path" fill="#090F29"></path>
                    <path d="M66.7004289,73.13 L115.625429,73.13 C117.170429,73.13 118.406429,71.997 118.715429,70.555 L120.775429,60.873 C121.084429,59.328 120.260429,58.298 118.715429,58.298 L85.1374289,58.298 L88.1244289,43.981 L118.715429,43.981 C120.157429,43.981 121.496429,42.848 121.805429,41.406 L123.762429,32.445 C124.071429,30.9 123.144429,29.767 121.702429,29.767 L91.1114289,29.767 L94.2014289,15.862 L126.955429,15.862 C128.500429,15.862 129.736429,14.729 130.148429,13.287 L132.208429,3.605 C132.517429,2.163 131.590429,1.03 130.045429,1.03 L81.9444289,1.03 C80.5024289,1.03 79.1634289,2.163 78.8544289,3.605 L64.6404289,70.555 C64.3314289,71.997 65.2584289,73.13 66.7004289,73.13 Z" id="Path" fill="#090F29"></path>
                    <path d="M160.739429,74.16 C180.103429,74.16 192.669429,64.684 196.480429,49.337 C196.789429,48.101 195.965429,47.174 194.729429,47.174 L180.721429,47.174 C178.867429,47.174 177.940429,47.689 176.910429,49.852 C173.614429,56.959 168.464429,59.328 162.078429,59.328 C154.559429,59.328 150.851429,55.517 152.602429,45.732 C153.632429,39.861 154.868429,34.093 156.310429,28.428 C158.679429,18.643 164.447429,14.832 171.966429,14.832 C178.352429,14.832 182.575429,17.201 182.369429,24.308 C182.575429,26.368 183.399429,26.986 185.253429,26.986 L199.261429,26.986 C200.497429,26.986 201.424429,26.059 201.733429,24.823 C204.720429,9.167 191.021429,0 173.408429,0 C153.735429,0 141.787429,9.888 137.255429,27.913 C135.813429,33.784 134.268429,40.685 133.341429,46.247 C130.148429,64.581 141.993429,74.16 160.739429,74.16 Z" id="Path" fill="#090F29"></path>
                    <path d="M204.617429,73.13 L217.904429,73.13 C219.449429,73.13 220.788429,71.997 221.097429,70.555 L226.556429,44.908 L251.894429,44.908 L246.435429,70.555 C246.126429,71.997 247.053429,73.13 248.495429,73.13 L261.782429,73.13 C263.327429,73.13 264.563429,71.997 264.872429,70.555 L279.189429,3.605 C279.498429,2.163 278.571429,1.03 277.026429,1.03 L263.739429,1.03 C262.297429,1.03 260.958429,2.163 260.649429,3.605 L255.396429,28.428 L230.058429,28.428 L235.311429,3.605 C235.620429,2.163 234.693429,1.03 233.148429,1.03 L219.861429,1.03 C218.419429,1.03 217.080429,2.163 216.771429,3.605 L202.557429,70.555 C202.248429,72.1 203.175429,73.13 204.617429,73.13 Z" id="Path" fill="#090F29"></path>
                    <path d="M2.11942886,162.13 L35.8004289,162.13 C53.4134289,162.13 62.3744289,153.89 65.2584289,140.294 C66.8034289,132.775 63.4044289,127.007 58.5634289,124.329 C62.5804289,122.681 68.4514289,118.252 70.0994289,110.424 C72.7774289,97.755 64.0224289,90.03 47.5424289,90.03 L17.3634289,90.03 C15.9214289,90.03 14.5824289,91.163 14.2734289,92.605 L0.0594288571,159.555 C-0.249571143,160.997 0.677428857,162.13 2.11942886,162.13 Z M27.2514289,118.664 L30.5474289,103.42 L44.3494289,103.42 C49.9114289,103.42 51.6624289,106.613 50.7354289,110.939 C49.8084289,115.368 45.9974289,118.664 40.4354289,118.664 L27.2514289,118.664 Z M20.8654289,148.74 L24.4704289,131.745 L38.8904289,131.745 C45.1734289,131.745 47.0274289,135.556 45.9974289,140.294 C45.0704289,144.723 40.9504289,148.74 35.1824289,148.74 L20.8654289,148.74 Z" id="Shape" fill="#24B0A4"></path>
                    <path d="M74.7344289,162.13 L88.6394289,162.13 C90.0814289,162.13 91.4204289,160.997 91.7294289,159.555 L105.943429,92.605 C106.252429,91.163 105.325429,90.03 103.883429,90.03 L89.9784289,90.03 C88.5364289,90.03 87.1974289,91.163 86.8884289,92.605 L72.5714289,159.555 C72.2624289,160.997 73.2924289,162.13 74.7344289,162.13 Z" id="Path" fill="#24B0A4"></path>
                    <path d="M108.106429,162.13 L121.187429,162.13 C122.732429,162.13 123.865429,160.997 124.174429,159.555 L129.633429,134.32 L145.083429,160.07 C145.598429,161.1 146.628429,162.13 148.791429,162.13 L163.211429,162.13 C164.756429,162.13 166.507429,160.482 165.374429,158.731 L145.907429,125.874 L177.528429,93.429 C178.661429,92.296 178.146429,90.03 176.189429,90.03 L160.945429,90.03 C158.576429,90.03 157.237429,91.163 156.516429,91.987 L133.650429,115.059 L138.491429,92.605 C138.800429,91.163 137.873429,90.03 136.328429,90.03 L123.247429,90.03 C121.805429,90.03 120.569429,91.163 120.260429,92.605 L106.046429,159.555 C105.737429,160.997 106.664429,162.13 108.106429,162.13 Z" id="Path" fill="#24B0A4"></path>
                    <path d="M175.674429,162.13 L224.599429,162.13 C226.144429,162.13 227.380429,160.997 227.689429,159.555 L229.749429,149.873 C230.058429,148.328 229.234429,147.298 227.689429,147.298 L194.111429,147.298 L197.098429,132.981 L227.689429,132.981 C229.131429,132.981 230.470429,131.848 230.779429,130.406 L232.736429,121.445 C233.045429,119.9 232.118429,118.767 230.676429,118.767 L200.085429,118.767 L203.175429,104.862 L235.929429,104.862 C237.474429,104.862 238.710429,103.729 239.122429,102.287 L241.182429,92.605 C241.491429,91.163 240.564429,90.03 239.019429,90.03 L190.918429,90.03 C189.476429,90.03 188.137429,91.163 187.828429,92.605 L173.614429,159.555 C173.305429,160.997 174.232429,162.13 175.674429,162.13 Z" id="Path" fill="#24B0A4"></path>
                    <path d="M242.830429,162.13 L256.117429,162.13 C257.662429,162.13 259.001429,160.997 259.310429,159.555 L264.254429,136.689 L274.760429,136.689 L281.661429,159.349 C281.970429,160.482 282.691429,162.13 285.266429,162.13 L298.965429,162.13 C300.098429,162.13 301.334429,161.1 301.540429,159.967 C301.643429,159.452 301.643429,159.246 301.540429,158.834 L292.785429,133.496 C301.231429,130.097 307.720429,123.402 309.780429,113.514 C312.973429,98.476 304.012429,90.03 286.193429,90.03 L258.177429,90.03 C256.735429,90.03 255.293429,91.163 254.984429,92.605 L240.770429,159.555 C240.461429,160.997 241.388429,162.13 242.830429,162.13 Z M267.241429,122.063 L271.052429,104.347 L282.897429,104.347 C289.592429,104.347 291.755429,107.952 290.725429,113.308 C289.489429,118.767 285.678429,122.063 279.189429,122.063 L267.241429,122.063 Z" id="Shape" fill="#24B0A4"></path>
                    <path d="M338.105429,163.16 C357.469429,163.16 369.314429,155.847 372.301429,141.839 C374.979429,129.17 368.696429,122.475 350.774429,118.973 C339.856429,116.501 336.663429,114.647 337.590429,110.321 C338.517429,105.995 342.740429,103.832 348.714429,103.832 C353.967429,103.832 357.263429,106.51 357.366429,109.497 C357.984429,110.836 359.014429,111.248 360.456429,111.248 L374.258429,111.248 C375.494429,111.248 376.524429,110.218 376.730429,109.085 C378.275429,100.536 367.769429,89 350.156429,89 C332.646429,89 321.419429,96.931 318.741429,109.497 C315.960429,122.372 323.376429,129.376 338.414429,132.569 C349.950429,135.247 354.276429,136.792 353.246429,141.427 C352.319429,145.65 347.375429,148.328 339.444429,148.328 C332.749429,148.328 329.659429,145.341 328.835429,142.148 C328.011429,141.015 327.393429,140.294 325.539429,140.294 L312.355429,140.294 C311.119429,140.294 310.089429,141.324 309.883429,142.457 C308.132429,153.272 317.608429,163.16 338.105429,163.16 Z" id="Path" fill="#24B0A4"></path>
                </g>
                <g id="Group" transform="translate(0.000000, 7.006953)">
                    <circle id="Oval-Copy-12" stroke="#090F29" stroke-width="15" cx="45" cy="106.123047" r="45"></circle>
                    <circle id="Oval-Copy-13" stroke="#090F29" stroke-width="15" fill="#090F29" cx="192.349398" cy="106.123047" r="45"></circle>
                    <path d="M192.349398,146.123047 C204.460425,146.123047 215.31432,140.740625 222.649501,132.237362 M226.121583,84.6790543 C219.023669,73.5238483 206.550808,66.1230469 192.349398,66.1230469" id="Shape" stroke="#FFFFFF" stroke-width="5" stroke-linecap="round" stroke-linejoin="round"></path>
                    <path d="M189.797977,88.5945854 C186.713564,88.5945854 183.770957,89.2017314 181.08315,90.3030302 M189.797977,134.594585 C198.446298,134.594585 205.979772,129.821365 209.907658,122.765669 M212.797977,111.594585 C212.797977,104.225087 209.332015,97.6651077 203.941251,93.4558065" id="Shape" stroke="#FFFFFF" stroke-width="5" stroke-linecap="round" stroke-linejoin="round" transform="translate(196.940564, 111.594585) rotate(50.000000) translate(-196.940564, -111.594585) "></path>
                    <polyline id="Path-16" stroke="#090F29" stroke-width="15" stroke-linecap="round" stroke-linejoin="round" points="45 106.123047 75.72548 25.5625 142.624894 25.5625"></polyline>
                    <line x1="157" y1="0.5" x2="209.899414" y2="0.5" id="Path-16-Copy" stroke="#090F29" stroke-width="15" stroke-linecap="round" stroke-linejoin="round"></line>
                    <line x1="561" y1="1.5" x2="613.899414" y2="1.5" id="Path-16-Copy-3" stroke="#090F29" stroke-width="15" stroke-linecap="round" stroke-linejoin="round"></line>
                    <line x1="555" y1="30.5" x2="641.550675" y2="30.5" id="Path-16-Copy-4" stroke="#090F29" stroke-width="15" stroke-linecap="round" stroke-linejoin="round"></line>
                    <line x1="547" y1="60.5" x2="599.899414" y2="60.5" id="Path-16-Copy-5" stroke="#090F29" stroke-width="15" stroke-linecap="round" stroke-linejoin="round"></line>
                    <path d="M45,37 L37.5,37 C27.2827321,37 19,28.7172679 19,18.5 C19,8.28273213 27.2827321,1.87688166e-15 37.5,0 L71.8994141,0 L71.8994141,0" id="Path-16-Copy-2" stroke="#090F29" stroke-width="15" stroke-linecap="round" stroke-linejoin="round"></path>
                    <line x1="169.674699" y1="37.1230469" x2="184.259436" y2="3.06101005" id="Path-23" stroke="#090F29" stroke-width="15" stroke-linecap="round" stroke-linejoin="round"></line>
                    <path d="M85.2346095,39.7116628 C86.1385501,39.2817217 87.1713127,39.1226258 88.2051506,39.2951351 L88.2051506,39.2951351 L143.974068,48.6009041 C145.880704,48.919051 147.477884,49.9798957 148.518868,51.4378624 C149.559852,52.8958292 150.044641,54.7509181 149.726494,56.6575535 C149.60851,57.3646247 149.382617,58.0493778 149.056715,58.6878592 L149.056715,58.6878592 L141.679651,73.1404621 L195.410397,100.824134 C196.637775,101.456516 197.492635,102.526524 197.882554,103.745281 C198.272474,104.964038 198.197453,106.331545 197.565071,107.558923 C197.046142,108.566102 196.220983,109.33583 195.24886,109.793178 C194.276737,110.250526 193.157651,110.395493 192.050869,110.15315 L192.050869,110.15315 L113.824103,93.0245015 C111.935842,92.6110451 110.393929,91.4713616 109.427445,89.9629768 C108.460961,88.4545921 108.069907,86.5775063 108.483363,84.6892453 C108.613539,84.0947329 108.820689,83.5197353 109.099575,82.9787978 L109.099575,82.9787978 L117.324172,67.0260611 L84.9085275,48.5721607 C83.70863,47.8890711 82.8992035,46.7842951 82.5605237,45.550317 C82.221844,44.316339 82.3539109,42.9531589 83.0370005,41.7532615 C83.5555504,40.8423902 84.3306689,40.1416039 85.2346095,39.7116628 Z" id="Path-24" stroke="#FFFFFF" stroke-width="6" fill="#24B0A4"></path>
                </g>
            </g>
        </g>
    </g>
</svg>