<?xml version="1.0" encoding="UTF-8"?>
<svg width="4000px" height="1282px" viewBox="0 0 4000 1282" version="1.1" xmlns="http://www.w3.org/2000/svg" xmlns:xlink="http://www.w3.org/1999/xlink">
    <title>header</title>
    <defs>
        <radialGradient cx="50%" cy="50%" fx="50%" fy="50%" r="42.3082942%" id="radialGradient-1">
            <stop stop-color="#F7E3C7" offset="0%"></stop>
            <stop stop-color="#FFFFFF" stop-opacity="0" offset="100%"></stop>
        </radialGradient>
        <ellipse id="path-2" cx="50" cy="136.64281" rx="50" ry="73"></ellipse>
        <ellipse id="path-3" cx="200.332172" cy="137.13064" rx="50" ry="73"></ellipse>
        <ellipse id="path-4" cx="50" cy="136.64281" rx="50" ry="73"></ellipse>
        <ellipse id="path-5" cx="200.332172" cy="137.13064" rx="50" ry="73"></ellipse>
        <ellipse id="path-6" cx="74.9598071" cy="140.891405" rx="74.9598071" ry="75.1085952"></ellipse>
        <ellipse id="path-7" cx="298.040193" cy="140.891405" rx="74.9598071" ry="75.1085952"></ellipse>
    </defs>
    <g id="header" stroke="none" stroke-width="1" fill="none" fill-rule="evenodd">
        <rect fill="#FFF1E2" x="0" y="0" width="4000" height="1282"></rect>
        <path d="M1790.54931,772.782717 C1793.81895,766.766167 1798.92496,765.69002 1805.86734,769.554278 C1816.28091,775.350665 1808.0742,791.398984 1810.56807,797.078183 C1813.06195,802.757383 1809.29832,808.299863 1807.38193,804.69 C1805.46553,801.080137 1797.75054,792.352723 1800.78481,788.128113 C1801.55552,787.055046 1801.53731,785.648283 1800.73017,783.907825 C1799.85597,782.022755 1796.46235,778.314386 1790.54931,772.782717 Z" id="Path-43-Copy" fill="#090F29" transform="translate(1800.972020, 786.563506) rotate(-20.000000) translate(-1800.972020, -786.563506) "></path>
        <path d="M1796.24646,773.11725 C1799.51609,767.100699 1804.6221,766.024553 1811.56448,769.888811 C1821.97806,775.685197 1808.13318,789.681396 1810.62706,795.360595 C1813.12093,801.039794 1809.35731,806.582275 1807.44091,802.972412 C1805.52452,799.362548 1803.44768,792.687255 1806.48195,788.462646 C1807.25267,787.389579 1807.23446,785.982816 1806.42732,784.242357 C1805.55311,782.357288 1802.15949,778.648919 1796.24646,773.11725 Z" id="Path-43" fill="#562205" transform="translate(1805.871977, 785.871978) rotate(-20.000000) translate(-1805.871977, -785.871978) "></path>
        <path d="M2344.3125,704.316263 C2714.95312,670.571472 2922.07812,650.006367 2965.6875,642.620951 C3031.10156,631.542826 3102.6875,576.800638 3102.6875,576.800638 C3102.6875,576.800638 3412.24978,528.605326 3389.67969,511.714701 C3367.10959,494.824076 3294.42187,460.527201 3281.17187,460.527201 C3267.92187,460.527201 3108.57031,480.628763 3073.39062,480.628763 C3048.96196,480.628763 2595.64502,463.427478 2549.61023,437.417826 C2529.3504,425.971018 2755.03992,415.120951 2855.90711,374.881269 C2922.66889,348.247504 3112.94531,345.206888 3227.15311,345.206888 C3341.36092,345.206888 3607.46875,294.011576 3657.39844,294.011576 C3707.32812,294.011576 3940.09007,273.363138 4026.02957,220.472513 C4111.96908,167.581888 4093.35937,73.2615758 3922.24219,104.683451 C3751.125,136.105326 3518.39844,104.683451 3524.17187,104.683451 C3529.94531,104.683451 3368.04687,24.9334508 3685.96094,24.9334508 C4003.875,24.9334508 4064.28266,35.3318883 4238.16451,24.9334508 C4412.04636,14.5350133 4323.77012,-93.8790492 4123.00615,-93.8790492 C4017.55315,-93.8790492 3574.44315,-81.75253 3174.34984,-70.2386093 C3099.9965,-68.0988625 3034.62628,-74.9252594 2965.6875,-72.9095896 C2952.66554,-72.5288463 2902.82711,-81.5562123 2910.3993,-103.988424 C2915.78736,-119.950289 2992.0493,-132.372716 3007.20398,-145.136862 C3019.64495,-155.615365 3115.43055,-247.952153 3051.98523,-283.879049 C3015.57896,-304.494666 2877.6681,-258.848408 2763.72742,-253.879049 C2679.10334,-250.188292 2612.48114,-290.242313 2585.2118,-283.879049 C2411.10914,-243.252439 2481.28837,-49.9259242 2475.99219,-49.9259242 C2454.35937,-49.9259242 2358.21094,-54.8165492 2358.21094,24.9334508 C2358.21094,78.1001174 2353.57812,304.561055 2344.3125,704.316263 Z" id="Path-27-Copy" fill="#FFFFFF" transform="translate(3337.699648, 207.560475) scale(-1, -1) translate(-3337.699648, -207.560475) "></path>
        <path d="M2002.41079,931.609375 L2153.17355,691 C2216.39547,786.333333 2248.00643,834 2248.00643,834 C2248.00643,834 2296.91314,760.856771 2394.72656,614.570312 L2569.14844,842.73291 L3174.85938,823.495117 L3285.22656,674.195312 L3522.66406,890.934405 L2842.33594,1003.03063 L2180.95832,1041.06113 L2002.41079,931.609375 Z" id="Path-22" fill="#FFE9D2"></path>
        <polygon id="Path-11" fill="#FFE9D2" points="1133.94531 1012.18607 1317.67969 791.773437 1391.60245 862.617426 1416.30078 823.495117 1451.80377 856.277452 1520.17578 725.71225 1623.12255 910.049693 1730.6553 846.565963 1837.01068 1006.89355"></polygon>
        <polygon id="Path-9" fill="#FBDDBD" points="2051.44531 1001 2254.64022 747.156594 2377.50028 874.078297 2730.20347 381 3002.87716 686.641842 3058.39573 615.451282 3420.44531 933.245585"></polygon>
        <polygon id="Path-8" fill="#FBDDBD" points="357.054688 1162.75781 755.479576 628.757812 888.51443 805.270302 958.79272 719.403154 1075.0283 878.578716 1139.77857 792.725948 1398.05469 1074.94374"></polygon>
        <polygon id="Rectangle-Copy" fill="#FBDDBD" points="1.30104261e-14 1063 4000 834 4000 1334 1.30104261e-14 1334"></polygon>
        <path d="M896.480469,1101.93555 C897.973333,1101.93555 901.933068,1101.98801 907.694833,1101.68339 C926.88437,1100.66888 966.062391,1095.69365 1000.66797,1071.62858 C1045.66406,1040.33784 1141.37891,1027.84361 1229.71875,1053.08767 C1318.05859,1078.33173 1425.125,1091.92975 1624.8125,997.457045 C1824.5,902.984345 2119.42187,899.990234 2405.21094,936.495117 C2691,973 2793.36719,967.5 2867.44531,973 C2916.83073,976.666667 2948.02344,984.188654 2961.02344,995.565963 L3049.67188,1109.73291 L837.273438,1175.17188 C872.434896,1126.34766 892.170573,1101.93555 896.480469,1101.93555 Z" id="Path-17" fill="#EEBC87"></path>
        <polygon id="Path-10-Copy-7" fill="#090F29" points="1151.94531 1115.75781 1194.3125 948.565963 1244.39844 1127.60938"></polygon>
        <polygon id="Path-10-Copy-8" fill="#090F29" points="1099.94531 1176.75781 1142.3125 1009.56596 1192.39844 1188.60938"></polygon>
        <polygon id="Path-10-Copy-9" fill="#090F29" points="1186.94531 1120.60702 1229.3125 993.609375 1279.39844 1129.60938"></polygon>
        <polygon id="Path-10-Copy-10" fill="#090F29" points="2386.94531 1041.60702 2429.3125 914.609375 2479.39844 1050.60938"></polygon>
        <polygon id="Path-10-Copy-11" fill="#090F29" points="2415.94531 1079.60702 2458.3125 952.609375 2508.39844 1088.60938"></polygon>
        <polygon id="Path-10-Copy" fill="#090F29" points="902.945312 1119.8647 930.631117 1010.60938 963.360915 1127.60938"></polygon>
        <polygon id="Path-10-Copy-4" fill="#090F29" points="2723.94531 1040.8647 2751.63112 931.609375 2784.36092 1048.60938"></polygon>
        <polygon id="Path-10-Copy-2" fill="#090F29" points="818.945312 1134.8647 846.631117 1025.60938 879.360915 1142.60938"></polygon>
        <circle id="Oval" fill="#FFFFFF" cx="1175" cy="669" r="86"></circle>
        <ellipse id="Oval" fill="#EF9C53" transform="translate(1667.000000, 1317.000000) rotate(-4.000000) translate(-1667.000000, -1317.000000) " cx="1667" cy="1317" rx="2331" ry="282"></ellipse>
        <ellipse id="Oval-Copy-8" fill="#C86832" transform="translate(1459.000000, 1346.000000) rotate(-4.000000) translate(-1459.000000, -1346.000000) " cx="1459" cy="1346" rx="2331" ry="282"></ellipse>
        <circle id="Oval-Copy-9" fill="url(#radialGradient-1)" style="mix-blend-mode: soft-light;" cx="1952" cy="1210" r="1131"></circle>
        <path d="M1028.03906,1151.78125 C1028.03906,1151.78125 1048.04297,1130.88455 1068.52148,1123.31 C1089,1115.73545 1108.98828,1121.39883 1116.56836,1127.19942 C1124.14844,1133 1124.55469,1130.27972 1129.25,1133 C1132.38021,1134.81352 1134.80924,1139.99451 1136.53711,1148.54297 C1064.20508,1150.70182 1028.03906,1151.78125 1028.03906,1151.78125 Z" id="Path-36" fill="#F7BF7F"></path>
        <path d="M1784.26518,761 C1777.22112,761.501125 1773.25949,765.513225 1771.23298,770.010919 L1771.01572,770.512507 C1770.98081,770.596387 1770.94656,770.680395 1770.91295,770.764512 L1770.71892,771.270366 C1770.53248,771.777219 1770.36861,772.286609 1770.22575,772.794386 L1770.08984,773.301471 L1769.96758,773.806558 L1769.85862,774.308726 L1769.76261,774.807051 L1769.67921,775.300611 L1769.60807,775.788485 C1769.58636,775.950059 1769.56663,776.110532 1769.54883,776.269749 L1769.50114,776.743483 L1769.46466,777.208762 C1769.4595,777.285553 1769.45478,777.361954 1769.45052,777.437944 L1769.43019,777.888815 C1769.42767,777.963089 1769.42559,778.036915 1769.42392,778.110273 L1769.41896,778.544659 C1769.41896,778.591844 1769.32893,778.671151 1769.16524,778.776687 L1768.9776,778.890748 L1768.7445,779.020985 L1768.46956,779.166089 L1767.98667,779.408755 L1767.23036,779.772121 L1765.67925,780.488078 L1761.72058,782.271836 L1760.46376,782.850867 L1759.75488,783.189503 L1759.31075,783.41147 L1759.06289,783.541854 L1758.85765,783.656699 L1758.69854,783.754752 C1758.58613,783.829117 1758.52539,783.884684 1758.52539,783.918186 C1758.52539,785.944445 1760.68501,786.621281 1763.37578,786.789349 L1763.88613,786.815105 L1764.40654,786.830169 C1764.49398,786.831857 1764.58174,786.83315 1764.66977,786.834075 L1765.20081,786.835408 L1765.73594,786.829127 L1766.54111,786.808122 L1767.86976,786.752488 L1769.87833,786.652536 L1770.78795,786.618446 L1771.21074,786.609683 L1771.49492,786.606807 C1771.98372,789.555887 1772.81874,793.040793 1774,797.061523 C1774.98339,800.29643 1777.57321,802.243779 1781.76945,802.90357 C1781.97393,804.570396 1781.97393,806.743815 1781.76945,809.423828 C1781.9009,809.490359 1781.89561,809.569115 1781.76476,809.672302 L1781.68099,809.731083 L1781.57273,809.79515 L1781.36528,809.902124 L1780.90274,810.113081 L1778.88016,810.974659 L1778.11928,811.309336 L1777.28299,811.689808 L1776.37451,812.119596 L1775.64771,812.476419 L1774.88349,812.864449 L1774.35389,813.141207 L1773.80866,813.432935 L1772.9624,813.899558 L1772.37987,814.230637 L1771.78313,814.578226 L1771.17257,814.942767 L1770.54861,815.324699 L1769.91164,815.724462 L1769.26207,816.142497 C1769.15278,816.213716 1769.04298,816.285716 1768.93268,816.358504 L1768.26497,816.804771 L1767.58566,817.27041 C1767.4715,817.349656 1767.35687,817.429726 1767.24179,817.510632 L1766.54584,818.006155 C1766.42896,818.090436 1766.31164,818.17557 1766.19388,818.261566 L1765.48221,818.787962 L1764.76057,819.335491 L1764.02935,819.904593 L1763.28895,820.495709 L1762.53979,821.109277 L1761.78226,821.745739 C1761.52841,821.961757 1761.27322,822.181665 1761.01677,822.405535 L1760.24373,823.089104 C1760.11428,823.205038 1759.98453,823.321981 1759.85449,823.439941 C1759.36368,823.875045 1758.81464,824.58668 1758.20735,825.574847 L1757.92293,826.050559 L1757.63024,826.565542 C1757.58077,826.654645 1757.53095,826.745385 1757.48079,826.83776 L1757.17569,827.411649 L1756.86233,828.024809 L1756.54069,828.67724 L1756.21078,829.368941 L1755.8726,830.099913 L1755.52615,830.870156 L1755.17143,831.679669 L1754.80844,832.528454 C1754.74725,832.67319 1754.68572,832.819563 1754.62384,832.967572 L1754.05764,834.343834 L1753.66984,835.310431 L1753.27376,836.316298 L1752.86942,837.361436 L1752.45681,838.445844 L1752.03592,839.569524 L1751.60677,840.732474 L1750.94752,842.550532 L1750.26967,844.456949 L1749.33693,847.136285 L1748.61566,849.248874 L1747.87578,851.449821 L1746.86033,854.521865 L1745.81179,857.750992 L1745.00368,860.275923 L1744.17696,862.889213 L1743.33163,865.590863 L1742.4677,868.380871 L1741.28683,872.23833 L1740.07289,876.252872 L1738.82586,880.424496 L1738.18994,882.569215 L1738.15518,882.693791 L1738.10373,882.84813 L1737.99524,883.135445 L1737.84919,883.489726 L1737.59603,884.066271 L1737.27609,884.761868 L1736.78226,885.798781 L1736.18408,887.021712 L1735.17135,889.046326 L1733.9541,891.435537 L1731.62809,895.926644 L1728.79706,901.31808 L1725.46102,907.609845 L1721.99002,914.110908 L1716.42944,924.462441 C1716.28731,924.726268 1716.14448,924.991335 1716.00096,925.257642 C1715.94509,928.499474 1718.33146,929.733795 1723.16005,928.960605 L1723.73939,928.860379 C1724.13313,928.787388 1724.54189,928.702047 1724.96567,928.604357 L1725.61261,928.448561 L1726.28209,928.27424 C1726.39555,928.243643 1726.50994,928.212274 1726.62528,928.180134 L1727.32856,927.978028 C1727.44765,927.9428 1727.56768,927.9068 1727.68865,927.870028 L1728.42573,927.640137 C1728.55046,927.600278 1728.67612,927.559647 1728.80272,927.518244 L1729.57361,927.260567 L1730.36703,926.984366 C1730.63526,926.889212 1730.90724,926.79097 1731.18298,926.689642 L1731.24588,926.622064 L1731.38609,926.456512 L1731.54501,926.251458 L1731.81708,925.872514 L1732.02003,925.574108 L1732.35525,925.06092 L1732.72558,924.472739 L1733.27034,923.579041 L1733.71445,922.832075 L1734.18668,922.024001 L1734.5161,921.453393 L1735.38622,919.924249 L1736.50711,917.917818 L1738.1044,915.006332 L1740.21039,911.098372 L1741.51749,908.641469 L1742.83281,906.148074 L1744.69363,902.587009 L1746.75916,898.58776 L1748.44544,895.281289 L1749.90408,892.379838 L1751.0733,890.006434 L1751.57508,888.961327 L1751.89135,888.2841 L1752.12605,887.759781 L1752.28603,887.371626 L1752.46038,886.911317 L1752.65925,886.355008 L1753.06626,885.150472 L1753.62332,883.413864 L1754.36722,881.001186 L1755.33931,877.75044 L1756.83205,872.627483 L1758.87618,865.456396 L1761.09501,857.545397 L1763.42394,849.152885 L1763.21726,853.159194 L1762.94846,857.807819 L1762.72424,861.397397 L1762.37811,866.561676 L1762.13414,869.97868 L1761.81403,874.228159 L1761.50849,878.068451 L1761.17349,882.065993 L1760.87134,885.500034 L1760.6143,888.304494 L1760.27354,891.869903 L1759.88894,895.730297 L1759.68895,897.882229 L1759.44275,900.753689 L1759.18266,904.013783 L1758.82788,908.776386 L1758.40677,914.821639 L1757.91083,922.387482 L1757.43024,930.098308 L1757.33196,933.264253 L1757.12,941.7261 L1756.87797,952.953026 L1756.55299,969.530434 L1758.95184,1002.80375 L1758.49069,1029.7376 L1758.69198,1034.73342 L1759.30593,1047.98715 L1760.48895,1072.14623 L1761.92557,1100.76825 C1761.77931,1101.63839 1761.23217,1102.37042 1760.47411,1103.18843 L1759.91794,1103.77125 L1759.09575,1104.61963 L1758.65943,1105.0854 C1758.51188,1105.24609 1758.36246,1105.41249 1758.21184,1105.58541 L1757.73211,1106.14429 L1757.45215,1106.46022 L1756.98165,1106.97434 L1756.45048,1107.53671 L1755.85863,1108.14732 L1755.20612,1108.80619 L1754.24171,1109.75974 L1753.16945,1110.79906 L1751.98933,1111.92416 L1750.70134,1113.13505 L1748.56712,1115.11221 L1746.60322,1116.90727 L1744.47078,1118.83637 C1742.97307,1121.83201 1744.13212,1123.57222 1747.94792,1124.05701 L1748.4607,1124.11312 L1748.73149,1124.13536 L1770.35244,1120.37987 C1775.88969,1119.93698 1778.45823,1116.57556 1778.05805,1110.2956 L1778.00912,1109.66849 C1777.8726,1108.18326 1777.5797,1106.5443 1777.13043,1104.75162 L1776.92831,1103.97391 C1776.89303,1103.84272 1776.85695,1103.71075 1776.82007,1103.578 L1777.2426,1097.63049 L1777.44011,1094.74224 L1777.68919,1090.97991 L1778.03225,1085.52642 L1778.19002,1082.88518 L1778.38613,1079.4522 L1778.60833,1075.30348 L1778.80507,1071.31311 L1778.94412,1068.23481 L1779.09501,1064.52944 L1779.19738,1061.67916 L1779.28345,1058.93021 L1779.35322,1056.2826 L1779.40669,1053.73633 L1779.4361,1051.89313 L1779.46104,1049.5242 L1779.46905,1047.81401 L1779.46546,1045.62242 L1779.45208,1044.04523 L1779.43806,1043.02544 L1779.40939,1041.54326 L1779.38518,1040.58681 L1779.34123,1039.19963 L1779.28811,1037.86945 L1779.20302,1036.18456 L1779.1285,1034.98739 L1779.07373,1034.22094 L1779.23236,1032.36482 L1779.5099,1029.39464 L1779.83493,1026.20127 L1780.20747,1022.78471 L1780.62752,1019.14496 L1781.01384,1015.94135 L1781.34665,1013.26686 L1781.97987,1008.34781 L1782.47175,1004.64822 L1783.21581,999.208398 L1783.78687,995.13682 L1784.64177,989.176221 L1785.292,984.732658 L1786.40098,977.300572 L1787.13698,972.454028 L1787.12413,973.078957 C1787.12282,973.18508 1787.12192,973.292187 1787.12144,973.400279 L1787.1235,974.060637 L1787.13551,974.744616 L1787.15745,975.452214 L1787.18934,976.183432 L1787.23116,976.938269 L1787.28292,977.716726 L1787.34463,978.518803 L1787.41627,979.344499 L1787.49785,980.193815 L1787.63887,981.512076 L1787.7453,982.420442 L1787.86167,983.352427 L1787.98798,984.308031 L1788.12423,985.287255 L1788.27043,986.290099 L1788.42656,987.316563 L1788.59263,988.366646 L1788.76864,989.440349 L1788.95459,990.537672 L1789.15048,991.658614 L1789.46295,993.384314 L1789.79779,995.163159 L1790.15499,996.995148 L1790.53456,998.880281 L1790.93649,1000.81856 L1791.21686,1002.14027 L1791.80744,1004.85455 L1792.27646,1006.95226 L1792.76785,1009.10311 L1793.2816,1011.30711 L1793.81772,1013.56425 L1794.56733,1016.65644 L1795.15563,1019.03759 L1795.56026,1020.65455 L1795.55192,1020.89662 L1795.53997,1021.42116 L1795.53389,1022.30894 L1795.53774,1022.96811 L1795.5479,1023.68112 L1795.57498,1024.85162 L1795.60092,1025.69926 L1795.65169,1027.07169 L1795.71666,1028.56529 L1795.79585,1030.18005 L1795.92354,1032.52153 L1796.03588,1034.41901 L1796.20777,1037.13745 L1796.40493,1040.07129 L1796.68691,1044.0415 L1796.94091,1047.45999 L1797.14799,1050.16522 L1797.60478,1055.93917 L1798.02886,1061.12101 L1798.68889,1068.94101 L1799.20771,1074.93061 L1799.766,1081.25677 L1800.36376,1087.9195 L1801.001,1094.91879 L1802.10269,1106.81771 L1802.54187,1111.50194 C1802.62336,1112.01959 1802.14745,1112.92505 1801.36107,1114.06915 L1801.03055,1114.53916 L1800.67042,1115.03251 L1800.28421,1115.54707 L1799.66364,1116.35404 L1797.38036,1119.26226 L1796.67661,1120.17265 L1796.21361,1120.78266 L1795.75964,1121.39268 L1795.31822,1122.00057 L1794.89284,1122.60422 C1793.02005,1125.30791 1791.74157,1127.81828 1792.49761,1129.26544 C1794.46161,1133.02488 1798.73815,1133.5599 1803.36083,1132.55503 L1803.97906,1132.41207 C1804.90897,1132.18438 1805.84923,1131.89809 1806.78411,1131.56668 L1807.4064,1131.3392 L1808.02605,1131.09924 L1808.64203,1130.84768 L1808.25332,1130.58542 L1808.85886,1130.31333 L1809.45764,1130.03231 L1810.0486,1129.74324 L1810.63072,1129.44702 L1811.20295,1129.14452 C1811.29744,1129.09363 1811.39148,1129.04251 1811.48504,1128.99119 L1812.04051,1128.68095 C1812.13208,1128.62888 1812.22313,1128.57664 1812.31364,1128.52425 L1812.85002,1128.20826 C1812.93827,1128.15535 1813.02595,1128.10232 1813.11301,1128.04919 L1813.62797,1127.72945 C1813.71252,1127.67602 1813.79643,1127.62253 1813.87967,1127.569 L1814.37086,1127.24751 C1814.45133,1127.19389 1814.53109,1127.14028 1814.6101,1127.08668 L1815.07522,1126.76543 L1814.52164,1126.44544 C1814.66722,1126.33909 1814.80951,1126.2331 1814.94835,1126.12762 L1815.3543,1125.81283 C1815.42017,1125.76067 1815.48513,1125.70868 1815.54916,1125.65686 L1815.92203,1125.34831 L1816.27156,1125.04502 C1817.52588,1123.92875 1818.16487,1121.44252 1818.18852,1117.58633 L1818.18604,1116.8701 C1818.1845,1116.74822 1818.18239,1116.62507 1818.17972,1116.50067 L1818.15689,1115.73916 C1818.15196,1115.60973 1818.14646,1115.47904 1818.1404,1115.34709 L1818.09723,1114.54029 L1818.04051,1113.7033 C1818.01934,1113.41927 1817.99591,1113.13021 1817.97022,1112.83612 L1817.88637,1111.93875 C1817.87127,1111.78667 1817.8556,1111.63333 1817.83936,1111.47874 L1817.73517,1110.53608 C1817.71668,1110.37645 1817.69762,1110.21557 1817.67799,1110.05343 L1817.8988,1107.5588 L1818.10945,1105.08709 L1818.30993,1102.63828 L1818.50026,1100.21239 L1818.68042,1097.8094 L1818.85042,1095.42932 L1819.01027,1093.07215 L1819.15995,1090.73789 L1819.29947,1088.42654 L1819.42883,1086.1381 L1819.54803,1083.87257 L1819.65707,1081.62995 L1819.75595,1079.41024 L1819.84467,1077.21343 L1819.92323,1075.03954 L1819.99163,1072.88855 C1820.00218,1072.53196 1820.01231,1072.17633 1820.02202,1071.82165 L1820.07517,1069.70502 L1820.11817,1067.61131 L1820.151,1065.54051 L1820.17368,1063.49261 C1820.17954,1062.8138 1820.18371,1062.1388 1820.18619,1061.46763 L1820.18854,1059.46555 L1820.18074,1057.48638 C1820.17859,1057.15843 1820.17602,1056.83143 1820.17302,1056.50539 L1820.14998,1054.56059 C1820.14529,1054.23836 1820.14018,1053.91709 1820.13464,1053.59677 L1820.09635,1051.68633 C1820.08912,1051.36984 1820.08147,1051.05429 1820.0734,1050.7397 L1820.01987,1048.86363 C1820.00033,1048.24209 1819.9791,1047.62437 1819.95618,1047.01046 L1819.88232,1045.1802 L1819.79831,1043.37285 L1819.70414,1041.58841 C1819.6876,1041.29292 1819.67063,1040.99837 1819.65324,1040.70478 L1819.54383,1038.95471 C1819.50566,1038.37517 1819.46581,1037.79945 1819.42425,1037.22754 L1819.29452,1035.52328 L1819.15462,1033.84194 L1819.00457,1032.1835 L1818.84435,1030.54796 C1818.8168,1030.27729 1818.78883,1030.00756 1818.76043,1029.73879 L1818.58497,1028.13762 C1818.2239,1024.9582 1817.80186,1021.91623 1817.31885,1019.01172 L1817.07227,1017.57091 C1816.82061,1016.14156 1816.5537,1014.74658 1816.27156,1013.38596 L1816.38933,1012.40026 L1816.55626,1010.87623 L1816.66107,1009.82989 L1816.76069,1008.7593 L1816.85512,1007.66444 L1816.94437,1006.54533 L1817.02843,1005.40197 L1817.10731,1004.23434 L1817.21589,1002.43742 L1817.2818,1001.20916 L1817.34253,999.956632 L1817.39807,998.679851 L1817.44842,997.378813 L1817.51422,995.381774 L1817.56835,993.330157 L1817.61082,991.223961 L1817.63265,989.78951 L1817.64929,988.330802 L1817.66453,986.097257 L1817.6681,983.809135 L1817.66,981.466434 L1817.64811,979.874312 L1817.63104,978.257933 L1817.58135,974.952405 L1817.53046,972.409584 L1817.49006,970.684049 L1817.41972,968.050264 L1817.36635,966.264086 L1817.24405,962.61896 L1818.10101,958.876806 L1817.98011,956.006516 L1817.84754,953.081647 L1817.7033,950.102201 L1817.5474,947.068176 L1817.32137,942.93791 L1817.13824,939.776536 L1816.94344,936.560584 L1816.80709,934.386295 C1816.72707,934.067064 1816.68522,933.705922 1816.68522,933.299041 L1816.68495,932.894862 C1816.63815,932.804623 1816.63823,932.669606 1816.68522,932.489812 L1814.6884,907.470441 C1812.45947,893.111907 1811.72502,881.099863 1812.48504,871.434307 C1813.24506,861.768752 1815.64271,852.629181 1819.67799,844.015593 L1822.34391,847.788916 L1825.52839,852.260001 L1827.49941,855.003018 L1828.7459,856.726048 L1830.51431,859.152122 L1832.42382,861.742194 L1833.92884,863.756243 L1835.31229,865.580127 L1836.37231,866.954765 L1837.3479,868.197343 L1838.0676,869.096324 L1838.57191,869.715094 L1839.04583,870.286323 L1839.63045,870.974008 L1840.03346,871.434307 L1840.52352,871.974086 L1840.85562,872.323456 L1841.15732,872.625284 L1841.34157,872.800091 L1841.31712,872.930166 L1839.54014,879.982 L1838.80018,882.956937 L1838.23972,885.245456 L1837.65649,887.664964 L1837.05983,890.186865 L1836.65922,891.910896 L1836.25957,893.659253 L1835.86366,895.423464 L1835.45302,897.292845 L1835.09672,898.953369 L1834.75101,900.605531 C1834.6944,900.879806 1834.63833,901.153441 1834.58284,901.426291 L1834.25729,903.052801 C1834.20433,903.321927 1834.15204,903.589976 1834.10049,903.856803 L1833.80026,905.441932 C1833.36414,907.794129 1832.99462,910.023726 1832.72645,912.024549 C1832.56571,912.254419 1832.43946,912.779406 1832.33894,913.519514 L1832.28661,913.944062 L1832.21699,914.654579 L1832.15708,915.444872 L1832.122,916.011247 L1832.07589,916.912866 L1832.02491,918.197052 L1831.96577,920.252224 L1831.89441,923.723589 C1834.87712,923.501979 1838.32901,923.612973 1842.24876,924.055709 C1842.96813,923.326078 1843.79861,921.677497 1844.68163,919.39007 L1844.99537,918.556673 C1845.04799,918.413504 1845.10077,918.268239 1845.1537,918.120935 L1845.47291,917.213089 L1845.79506,916.259032 C1845.84897,916.096323 1845.90297,915.931803 1845.95706,915.765529 L1846.28253,914.747286 L1846.60951,913.689673 L1846.93741,912.595427 L1847.26568,911.467285 L1847.59373,910.307982 L1847.921,909.120257 C1847.97544,908.920086 1848.02983,908.718845 1848.08416,908.51659 L1848.40917,907.291361 L1848.89235,905.413906 L1849.21075,904.139853 L1849.5255,902.85106 L1849.83603,901.550263 L1850.14177,900.2402 L1850.44215,898.923606 L1850.73658,897.603219 L1851.02452,896.281774 L1851.30537,894.962009 L1851.71211,892.991497 L1852.09971,891.040158 L1852.34651,889.754477 L1852.58338,888.48416 L1852.80973,887.231941 L1853.12829,885.393536 L1853.32585,884.198539 L1853.51089,883.031219 L1853.68285,881.894313 L1853.84115,880.790558 L1853.98521,879.722691 L1854.11446,878.693447 L1854.22834,877.705564 L1854.32627,876.761778 C1854.34123,876.608308 1854.3555,876.456788 1854.36908,876.307277 L1854.44201,875.434769 L1854.49756,874.613199 C1854.53645,873.950542 1854.55664,873.343797 1854.55664,872.800091 C1854.55664,869.139859 1851.47165,862.515738 1847.11907,855.119384 L1846.33818,853.806575 C1846.07375,853.366597 1845.8053,852.924394 1845.5332,852.48041 L1844.70633,851.143566 C1844.42731,850.696468 1844.14501,850.248037 1843.85981,849.798718 L1842.99585,848.448545 C1842.85053,848.223221 1842.70457,847.997787 1842.55802,847.772298 L1841.67207,846.419153 L1840.77422,845.067374 L1839.8667,843.719637 C1839.71477,843.4955 1839.56252,843.271642 1839.41001,843.04812 L1838.49215,841.711464 L1837.57017,840.385541 L1836.64628,839.073028 C1836.49227,838.855542 1836.33826,838.638726 1836.18432,838.422636 L1835.26174,837.135256 L1834.34281,835.867977 L1833.42975,834.623475 C1833.27819,834.418105 1833.12696,834.213796 1832.97611,834.010603 L1832.07601,832.805286 L1831.18732,831.629439 L1830.31227,830.485737 L1829.45307,829.376858 L1828.61195,828.305477 L1827.79112,827.274271 C1827.65613,827.105901 1827.52207,826.939315 1827.38901,826.774571 L1826.60278,825.808647 L1825.84239,824.88959 L1825.11006,824.020076 C1824.75128,823.598151 1824.40386,823.195808 1824.06904,822.814554 L1823.41658,822.080608 C1822.35838,820.905714 1821.44947,819.976284 1820.7361,819.34808 L1820.52595,819.166992 L1819.06747,817.941927 L1818.42968,817.418453 L1817.99537,817.070175 L1817.55148,816.722547 L1817.09607,816.375644 L1816.62718,816.02954 C1816.5478,815.971927 1816.46778,815.91435 1816.38708,815.856811 L1815.89431,815.512046 L1815.38319,815.168265 C1815.29637,815.111055 1815.2087,815.053889 1815.12014,814.996768 L1814.57783,814.654605 C1813.10154,813.743701 1811.37741,812.845292 1809.23886,811.965733 L1808.41715,811.636794 C1807.29478,811.199421 1806.0636,810.766958 1804.70279,810.340201 L1803.75365,810.049823 L1801.55134,809.412547 L1799.79184,808.920956 L1797.29149,808.236319 L1797.09642,808.105138 L1796.93021,807.982579 C1796.89931,807.958976 1796.86695,807.933807 1796.83336,807.907108 L1796.61862,807.728814 C1796.27933,807.434642 1795.87435,807.02204 1795.56026,806.516113 C1795.53599,806.477013 1795.51115,806.43044 1795.48576,806.376393 L1795.40791,806.191835 L1795.32671,805.962438 C1795.3129,805.920468 1795.29894,805.876631 1795.28485,805.830925 L1795.19862,805.53427 L1795.063,805.005215 L1794.91983,804.375273 L1794.76911,803.644445 L1794.61086,802.812729 L1794.44507,801.880127 C1797.19565,799.571333 1799.04339,794.751407 1800.05329,791.009393 L1800.24411,790.276425 C1800.27406,790.157014 1800.30309,790.039066 1800.33119,789.922715 L1800.48872,789.244827 C1800.53754,789.025959 1800.5827,788.814541 1800.62419,788.611635 L1800.73773,788.02952 C1800.75483,787.937111 1800.77102,787.847097 1800.78631,787.759609 L1800.86716,787.266071 L1800.92636,786.839561 L1801.00638,786.17987 L1801.15268,784.896601 C1801.19842,784.478009 1801.24117,784.069342 1801.281,783.672878 L1801.39182,782.522373 L1802.02305,782.487305 C1802.21263,777.708241 1801.8793,773.853521 1801.02305,770.923145 L1800.92311,770.594104 L1800.81327,770.258726 L1800.69307,769.917837 L1800.56203,769.572262 L1800.41968,769.222825 C1800.39499,769.16431 1800.36981,769.105668 1800.34413,769.046917 L1800.18396,768.693237 C1800.15624,768.634117 1800.12799,768.574923 1800.09922,768.515671 L1799.92017,768.159603 L1799.72796,767.802976 L1799.5221,767.446614 L1799.30215,767.091343 L1799.06763,766.737988 L1798.81807,766.387375 C1796.46011,763.188505 1792.14829,760.439185 1784.26518,761 Z" id="Path" fill="#090F29"></path>
        <path d="M2231.26425,735 C2224.22019,735.501125 2220.25856,739.513225 2218.23205,744.010919 L2218.01479,744.512507 C2217.97989,744.596387 2217.94563,744.680395 2217.91202,744.764512 L2217.71799,745.270366 C2217.53155,745.777219 2217.36769,746.286609 2217.22483,746.794386 L2217.08891,747.301471 L2216.96665,747.806558 L2216.85769,748.308726 L2216.76169,748.807051 L2216.67829,749.300611 L2216.60714,749.788485 C2216.58543,749.950059 2216.5657,750.110532 2216.5479,750.269749 L2216.50022,750.743483 L2216.46374,751.208762 C2216.45857,751.285553 2216.45386,751.361954 2216.44959,751.437944 L2216.42926,751.888815 C2216.42675,751.963089 2216.42466,752.036915 2216.423,752.110273 L2216.41803,752.544659 C2216.41803,752.591844 2216.328,752.671151 2216.16431,752.776687 L2215.97668,752.890748 L2215.74357,753.020985 L2216.87741,760.652536 L2217.78702,760.618446 L2218.20981,760.609683 L2218.494,760.606807 C2218.98279,763.555887 2219.81782,767.040793 2220.99907,771.061523 C2221.98247,774.29643 2224.57229,776.243779 2228.76853,776.90357 C2228.97301,778.570396 2228.97301,780.743815 2228.76853,783.423828 C2228.89998,783.490359 2228.89468,783.569115 2228.76383,783.672302 L2228.68007,783.731083 L2228.57181,783.79515 L2228.36436,783.902124 L2227.90182,784.113081 L2225.87923,784.974659 L2225.11835,785.309336 L2224.28206,785.689808 L2223.37358,786.119596 L2222.64679,786.476419 L2221.88257,786.864449 L2221.35297,787.141207 L2220.80774,787.432935 L2219.96148,787.899558 L2219.37895,788.230637 L2218.7822,788.578226 L2218.17165,788.942767 L2217.54768,789.324699 L2216.91071,789.724462 L2216.26114,790.142497 C2216.15185,790.213716 2216.04206,790.285716 2215.93176,790.358504 L2215.26404,790.804771 L2214.58473,791.27041 C2214.47057,791.349656 2214.35595,791.429726 2214.24086,791.510632 L2213.54492,792.006155 C2213.42804,792.090436 2213.31071,792.17557 2213.19295,792.261566 L2212.48129,792.787962 L2211.75964,793.335491 L2211.02842,793.904593 L2210.28803,794.495709 L2209.53887,795.109277 L2208.78134,795.745739 C2208.52748,795.961757 2208.27229,796.181665 2208.01585,796.405535 L2207.2428,797.089104 C2207.11335,797.205038 2206.9836,797.321981 2206.85357,797.439941 C2206.36276,797.875045 2205.81371,798.58668 2205.20642,799.574847 L2204.922,800.050559 L2204.62931,800.565542 C2204.57984,800.654645 2204.53002,800.745385 2204.47986,800.83776 L2204.17477,801.411649 L2203.8614,802.024809 L2203.53976,802.67724 L2203.20985,803.368941 L2202.87167,804.099913 L2202.52522,804.870156 L2202.1705,805.679669 L2201.80751,806.528454 C2201.74632,806.67319 2201.68479,806.819563 2201.62291,806.967572 L2201.05672,808.343834 L2200.66891,809.310431 L2200.27284,810.316298 L2199.86849,811.361436 L2199.45588,812.445844 L2199.03499,813.569524 L2198.60584,814.732474 L2197.9466,816.550532 L2197.26875,818.456949 L2196.336,821.136285 L2195.61473,823.248874 L2194.87485,825.449821 L2193.8594,828.521865 L2192.81087,831.750992 L2192.00276,834.275923 L2191.17604,836.889213 L2190.33071,839.590863 L2189.46677,842.380871 L2188.28591,846.23833 L2187.07196,850.252872 L2185.82493,854.424496 L2185.18902,856.569215 L2185.15426,856.693791 L2185.1028,856.84813 L2184.99432,857.135445 L2184.84827,857.489726 L2184.59511,858.066271 L2184.27517,858.761868 L2183.78133,859.798781 L2183.18316,861.021712 L2182.17042,863.046326 L2180.95317,865.435537 L2178.62716,869.926644 L2175.79613,875.31808 L2172.46009,881.609845 L2168.98909,888.110908 L2163.42852,898.462441 C2163.28639,898.726268 2163.14356,898.991335 2162.99907,899.257642 C2162.94417,902.499474 2165.33053,903.733795 2170.15912,902.960605 L2170.73846,902.860379 C2171.1322,902.787388 2171.54096,902.702047 2171.96474,902.604357 L2172.61168,902.448561 L2173.28116,902.27424 C2173.39462,902.243643 2173.50902,902.212274 2173.62435,902.180134 L2174.32763,901.978028 C2174.44672,901.9428 2174.56675,901.9068 2174.68772,901.870028 L2175.4248,901.640137 C2175.54953,901.600278 2175.67519,901.559647 2175.8018,901.518244 L2176.57268,901.260567 L2177.3661,900.984366 C2177.63433,900.889212 2177.90632,900.79097 2178.18206,900.689642 L2178.24496,900.622064 L2178.38517,900.456512 L2178.54408,900.251458 L2178.81615,899.872514 L2179.0191,899.574108 L2179.35433,899.06092 L2179.72465,898.472739 L2180.26942,897.579041 L2180.71352,896.832075 L2181.18575,896.024001 L2181.51518,895.453393 L2182.3853,893.924249 L2183.50619,891.917818 L2185.10347,889.006332 L2187.20947,885.098372 L2188.51656,882.641469 L2189.83189,880.148074 L2191.6927,876.587009 L2193.75823,872.58776 L2195.44452,869.281289 L2196.90315,866.379838 L2198.07237,864.006434 L2198.57415,862.961327 L2198.89042,862.2841 L2199.12512,861.759781 L2199.2851,861.371626 L2199.45946,860.911317 L2199.65833,860.355008 L2200.06533,859.150472 L2200.62239,857.413864 L2201.36629,855.001186 L2202.33838,851.75044 L2203.83113,846.627483 L2205.87525,839.456396 L2208.09409,831.545397 L2210.42301,823.152885 L2210.21633,827.159194 L2209.94753,831.807819 L2209.72331,835.397397 L2209.37718,840.561676 L2209.13321,843.97868 L2208.8131,848.228159 L2208.50756,852.068451 L2208.17256,856.065993 L2207.87041,859.500034 L2207.61338,862.304494 L2207.27261,865.869903 L2206.88801,869.730297 L2206.68803,871.882229 L2206.44182,874.753689 L2206.18174,878.013783 L2205.82695,882.776386 L2205.40584,888.821639 L2204.9099,896.387482 L2204.42931,904.098308 L2204.33104,907.264253 L2204.11907,915.7261 L2203.87704,926.953026 L2203.55207,943.530434 L2205.95091,976.80375 L2205.48976,1003.7376 L2205.69105,1008.73342 L2206.305,1021.98715 L2207.48802,1046.14623 L2208.92465,1074.76825 C2208.77838,1075.63839 2208.23125,1076.37042 2207.47319,1077.18843 L2206.91701,1077.77125 L2206.09482,1078.61963 L2205.65851,1079.0854 C2205.51096,1079.24609 2205.36153,1079.41249 2205.21091,1079.58541 L2204.73119,1080.14429 L2204.45123,1080.46022 L2203.98073,1080.97434 L2203.44955,1081.53671 L2202.85771,1082.14732 L2202.20519,1082.80619 L2201.24079,1083.75974 L2200.16852,1084.79906 L2198.9884,1085.92416 L2197.70041,1087.13505 L2195.5662,1089.11221 L2193.60229,1090.90727 L2191.46986,1092.83637 C2189.97215,1095.83201 2191.13119,1097.57222 2194.94699,1098.05701 L2195.45977,1098.11312 L2195.73057,1098.13536 L2217.35151,1094.37987 C2222.88877,1093.93698 2225.45731,1090.57556 2225.05713,1084.2956 L2225.00819,1083.66849 C2224.87167,1082.18326 2224.57877,1080.5443 2224.1295,1078.75162 L2223.92738,1077.97391 C2223.8921,1077.84272 2223.85602,1077.71075 2223.81914,1077.578 L2224.24167,1071.63049 L2224.43918,1068.74224 L2224.68826,1064.97991 L2225.03132,1059.52642 L2225.1891,1056.88518 L2225.3852,1053.4522 L2225.60741,1049.30348 L2225.80414,1045.31311 L2225.94319,1042.23481 L2226.09408,1038.52944 L2226.19646,1035.67916 L2226.28253,1032.93021 L2226.3523,1030.2826 L2226.40577,1027.73633 L2226.43517,1025.89313 L2226.46011,1023.5242 L2226.46812,1021.81401 L2226.46454,1019.62242 L2226.45115,1018.04523 L2226.43713,1017.02544 L2226.40846,1015.54326 L2226.38426,1014.58681 L2226.3403,1013.19963 L2226.28718,1011.86945 L2226.20209,1010.18456 L2226.12758,1008.98739 L2226.07281,1008.22094 L2226.23144,1006.36482 L2226.50897,1003.39464 L2226.83401,1000.20127 L2227.20655,996.784713 L2227.62659,993.144964 L2228.01291,989.941348 L2228.34572,987.266859 L2228.97894,982.347815 L2229.47083,978.64822 L2230.21489,973.208398 L2230.78594,969.13682 L2231.64084,963.176221 L2232.29107,958.732658 L2233.40005,951.300572 L2234.13605,946.454028 L2234.12321,947.078957 C2234.1219,947.18508 2234.121,947.292187 2234.12051,947.400279 L2234.12258,948.060637 L2234.13458,948.744616 L2234.15653,949.452214 L2234.18841,950.183432 L2234.23023,950.938269 L2234.282,951.716726 L2234.3437,952.518803 L2234.41534,953.344499 L2234.49693,954.193815 L2234.63794,955.512076 L2234.74437,956.420442 L2234.86074,957.352427 L2234.98706,958.308031 L2235.12331,959.287255 L2235.2695,960.290099 L2235.42563,961.316563 L2235.5917,962.366646 L2235.76771,963.440349 L2235.95366,964.537672 L2236.14955,965.658614 L2236.46202,967.384314 L2236.79686,969.163159 L2237.15406,970.995148 L2237.53363,972.880281 L2237.93556,974.818558 L2238.21594,976.140268 L2238.80651,978.854546 L2239.27554,980.952256 L2239.76693,983.103111 L2240.28068,985.307109 L2240.8168,987.564252 L2241.56641,990.656445 L2242.15471,993.037591 L2242.55933,994.654547 L2242.55099,994.896623 L2242.53905,995.421163 L2242.53297,996.308942 L2242.53681,996.968108 L2242.54697,997.681124 L2242.57405,998.851617 L2242.6,999.699259 L2242.65076,1001.07169 L2242.71574,1002.56529 L2242.79492,1004.18005 L2242.92261,1006.52153 L2243.03495,1008.41901 L2243.20685,1011.13745 L2243.40401,1014.07129 L2243.68598,1018.0415 L2243.93998,1021.45999 L2244.14706,1024.16522 L2244.60386,1029.93917 L2245.02794,1035.12101 L2245.68796,1042.94101 L2246.20678,1048.93061 L2246.76507,1055.25677 L2247.36284,1061.9195 L2248.00007,1068.91879 L2249.10176,1080.81771 L2249.54094,1085.50194 C2249.62244,1086.01959 2249.14652,1086.92505 2248.36015,1088.06915 L2248.02963,1088.53916 L2247.6695,1089.03251 L2247.28328,1089.54707 L2246.66271,1090.35404 L2244.37943,1093.26226 L2243.67568,1094.17265 L2243.21269,1094.78266 L2242.75872,1095.39268 L2242.31729,1096.00057 L2241.89192,1096.60422 C2240.01912,1099.30791 2238.74065,1101.81828 2239.49668,1103.26544 C2241.46068,1107.02488 2245.73723,1107.5599 2250.3599,1106.55503 L2250.97814,1106.41207 C2251.90805,1106.18438 2252.84831,1105.89809 2253.78319,1105.56668 L2254.40547,1105.3392 L2255.02512,1105.09924 L2255.64111,1104.84768 L2255.25239,1104.58542 L2255.85794,1104.31333 L2256.45671,1104.03231 L2257.04767,1103.74324 L2257.62979,1103.44702 L2258.20203,1103.14452 C2258.29652,1103.09363 2258.39056,1103.04251 2258.48412,1102.99119 L2259.03959,1102.68095 C2259.13116,1102.62888 2259.22221,1102.57664 2259.31271,1102.52425 L2259.84909,1102.20826 C2259.93735,1102.15535 2260.02502,1102.10232 2260.11209,1102.04919 L2260.62704,1101.72945 C2260.7116,1101.67602 2260.7955,1101.62253 2260.87874,1101.569 L2261.36994,1101.24751 C2261.45041,1101.19389 2261.53016,1101.14028 2261.60918,1101.08668 L2262.07429,1100.76543 L2261.52072,1100.44544 C2261.6663,1100.33909 2261.80859,1100.2331 2261.94742,1100.12762 L2262.35337,1099.81283 C2262.41924,1099.76067 2262.4842,1099.70868 2262.54824,1099.65686 L2262.92111,1099.34831 L2263.27063,1099.04502 C2264.52496,1097.92875 2265.16395,1095.44252 2265.1876,1091.58633 L2265.18511,1090.8701 C2265.18357,1090.74822 2265.18146,1090.62507 2265.17879,1090.50067 L2265.15597,1089.73916 C2265.15103,1089.60973 2265.14553,1089.47904 2265.13947,1089.34709 L2265.09631,1088.54029 L2265.03958,1087.7033 C2265.01841,1087.41927 2264.99498,1087.13021 2264.96929,1086.83612 L2264.88545,1085.93875 C2264.87034,1085.78667 2264.85467,1085.63333 2264.83844,1085.47874 L2264.73425,1084.53608 C2264.71575,1084.37645 2264.69669,1084.21557 2264.67707,1084.05343 L2264.89787,1081.5588 L2265.10852,1079.08709 L2265.309,1076.63828 L2265.49933,1074.21239 L2265.67949,1071.8094 L2265.8495,1069.42932 L2266.00934,1067.07215 L2266.15902,1064.73789 L2266.29855,1062.42654 L2266.42791,1060.1381 L2266.54711,1057.87257 L2266.65615,1055.62995 L2266.75503,1053.41024 L2266.84375,1051.21343 L2266.9223,1049.03954 L2266.9907,1046.88855 C2267.00125,1046.53196 2267.01138,1046.17633 2267.02109,1045.82165 L2267.07425,1043.70502 L2267.11724,1041.61131 L2267.15008,1039.54051 L2267.17275,1037.49261 C2267.17862,1036.8138 2267.18279,1036.1388 2267.18527,1035.46763 L2267.18762,1033.46555 L2267.17981,1031.48638 C2267.17766,1031.15843 2267.17509,1030.83143 2267.1721,1030.50539 L2267.14905,1028.56059 C2267.14436,1028.23836 2267.13925,1027.91709 2267.13371,1027.59677 L2267.09543,1025.68633 C2267.0882,1025.36984 2267.08055,1025.05429 2267.07247,1024.7397 L2267.01894,1022.86363 C2266.9994,1022.24209 2266.97817,1021.62437 2266.95525,1021.01046 L2266.8814,1019.1802 L2266.79739,1017.37285 L2266.70321,1015.58841 C2266.68667,1015.29292 2266.6697,1014.99837 2266.65232,1014.70478 L2266.5429,1012.95471 C2266.50474,1012.37517 2266.46488,1011.79945 2266.42333,1011.22754 L2266.29359,1009.52328 L2266.1537,1007.84194 L2266.00364,1006.1835 L2265.84342,1004.54796 C2265.81587,1004.27729 2265.7879,1004.00756 2265.7595,1003.73879 L2265.58405,1002.13762 C2265.22297,998.9582 2264.80093,995.91623 2264.31793,993.011715 L2264.07134,991.570913 C2263.81968,990.141564 2263.55278,988.74658 2263.27063,987.385959 L2263.3884,986.400262 L2263.55534,984.876234 L2263.66014,983.829895 L2263.75976,982.759298 L2263.8542,981.664444 L2263.94344,980.545334 L2264.0275,979.401966 L2264.10638,978.234341 L2264.21497,976.437423 L2264.28088,975.209156 L2264.3416,973.956632 L2264.39714,972.679851 L2264.44749,971.378813 L2264.51329,969.381774 L2264.56743,967.330157 L2264.60989,965.223961 L2264.63172,963.78951 L2264.64836,962.330802 L2264.6636,960.097257 L2264.66717,957.809135 L2264.65907,955.466434 L2264.64719,953.874312 L2264.63012,952.257933 L2264.58042,948.952405 L2264.52954,946.409584 L2264.48913,944.684049 L2264.4188,942.050264 L2264.36543,940.264086 L2264.24313,936.61896 L2265.10008,932.876806 L2264.97918,930.006516 L2264.84661,927.081647 L2264.70238,924.102201 L2264.54647,921.068176 L2264.32045,916.93791 L2264.13732,913.776536 L2263.94252,910.560584 L2263.80617,908.386295 C2263.72614,908.067064 2263.68429,907.705922 2263.68429,907.299041 L2263.68403,906.894862 C2263.63722,906.804623 2263.63731,906.669606 2263.68429,906.489812 L2261.68748,881.470441 C2259.45855,867.111907 2258.72409,855.099863 2259.48412,845.434307 C2260.24414,835.768752 2262.64179,826.629181 2266.67707,818.015593 L2269.34298,821.788916 L2272.52746,826.260001 L2274.49849,829.003018 L2275.74497,830.726048 L2277.51338,833.152122 L2279.42289,835.742194 L2280.92791,837.756243 L2282.31137,839.580127 L2283.37138,840.954765 L2284.34698,842.197343 L2285.06667,843.096324 L2285.57098,843.715094 L2286.0449,844.286323 L2286.62952,844.974008 L2287.03253,845.434307 L2287.5226,845.974086 L2287.85469,846.323456 L2288.15639,846.625284 L2288.34064,846.800091 L2288.31619,846.930166 L2286.53922,853.982 L2285.79925,856.956937 L2285.2388,859.245456 L2284.65556,861.664964 L2284.0589,864.186865 L2283.65829,865.910896 L2283.25865,867.659253 L2282.86274,869.423464 L2282.45209,871.292845 L2282.0958,872.953369 L2281.75008,874.605531 C2281.69347,874.879806 2281.6374,875.153441 2281.58191,875.426291 L2281.25636,877.052801 C2281.2034,877.321927 2281.15112,877.589976 2281.09956,877.856803 L2280.79933,879.441932 C2280.36321,881.794129 2279.9937,884.023726 2279.72553,886.024549 C2279.56479,886.254419 2279.43853,886.779406 2279.33801,887.519514 L2279.28568,887.944062 L2279.21606,888.654579 L2279.15615,889.444872 L2279.12107,890.011247 L2279.07497,890.912866 L2279.02398,892.197052 L2278.96484,894.252224 L2278.89348,897.723589 C2281.87619,897.501979 2285.32809,897.612973 2289.24784,898.055709 C2289.9672,897.326078 2290.79768,895.677497 2291.6807,893.39007 L2291.99444,892.556673 C2292.04707,892.413504 2292.09985,892.268239 2292.15277,892.120935 L2292.47199,891.213089 L2292.79414,890.259032 C2292.84804,890.096323 2292.90204,889.931803 2292.95613,889.765529 L2293.2816,888.747286 L2293.60858,887.689673 L2293.93649,886.595427 L2294.26475,885.467285 L2294.59281,884.307982 L2294.92007,883.120257 C2294.97452,882.920086 2295.02891,882.718845 2295.08323,882.51659 L2295.40824,881.291361 L2295.89143,879.413906 L2296.20982,878.139853 L2296.52457,876.85106 L2296.8351,875.550263 L2297.14084,874.2402 L2297.44122,872.923606 L2297.73566,871.603219 L2298.02359,870.281774 L2298.30444,868.962009 L2298.71119,866.991497 L2299.09878,865.040158 L2299.34559,863.754477 L2299.58245,862.48416 L2299.8088,861.231941 L2300.12736,859.393536 L2300.32492,858.198539 L2300.50997,857.031219 L2300.68192,855.894313 L2300.84022,854.790558 L2300.98428,853.722691 L2301.11354,852.693447 L2301.22742,851.705564 L2301.32535,850.761778 C2301.34031,850.608308 2301.35458,850.456788 2301.36815,850.307277 L2301.44108,849.434769 L2301.49663,848.613199 C2301.53552,847.950542 2301.55571,847.343797 2301.55571,846.800091 C2301.55571,843.139859 2298.47072,836.515738 2294.11815,829.119384 L2293.33726,827.806575 C2293.07282,827.366597 2292.80437,826.924394 2292.53227,826.48041 L2291.70541,825.143566 C2291.42639,824.696468 2291.14409,824.248037 2290.85888,823.798718 L2289.99492,822.448545 C2289.8496,822.223221 2289.70364,821.997787 2289.5571,821.772298 L2288.67114,820.419153 L2287.77329,819.067374 L2286.86578,817.719637 C2286.71384,817.4955 2286.56159,817.271642 2286.40908,817.04812 L2285.49122,815.711464 L2284.56924,814.385541 L2283.64536,813.073028 C2283.49134,812.855542 2283.33734,812.638726 2283.18339,812.422636 L2282.26082,811.135256 L2281.34189,809.867977 L2280.42883,808.623475 C2280.27726,808.418105 2280.12603,808.213796 2279.97519,808.010603 L2279.07509,806.805286 L2278.1864,805.629439 L2277.31135,804.485737 L2276.45215,803.376858 L2275.61102,802.305477 L2274.79019,801.274271 C2274.6552,801.105901 2274.52115,800.939315 2274.38808,800.774571 L2273.60185,799.808647 L2272.84146,798.88959 L2272.10913,798.020076 C2271.75036,797.598151 2271.40293,797.195808 2271.06811,796.814554 L2270.41565,796.080608 C2269.35745,794.905714 2268.44855,793.976284 2267.73517,793.34808 L2267.52503,793.166992 L2266.06654,791.941927 L2265.42875,791.418453 L2264.99444,791.070175 L2264.55056,790.722547 L2264.09514,790.375644 L2263.62626,790.02954 C2263.54688,789.971927 2263.46686,789.91435 2263.38615,789.856811 L2262.89339,789.512046 L2262.38227,789.168265 C2262.29544,789.111055 2262.20777,789.053889 2262.11921,788.996768 L2261.5769,788.654605 C2260.10062,787.743701 2258.37648,786.845292 2256.23793,785.965733 L2255.41623,785.636794 C2254.29385,785.199421 2253.06267,784.766958 2251.70186,784.340201 L2250.75273,784.049823 L2248.55042,783.412547 L2246.79092,782.920956 L2244.29056,782.236319 L2244.0955,782.105138 L2243.92928,781.982579 C2243.89838,781.958976 2243.86603,781.933807 2243.83243,781.907108 L2243.61769,781.728814 C2243.2784,781.434642 2242.87342,781.02204 2242.55933,780.516113 C2242.53506,780.477013 2242.51023,780.43044 2242.48484,780.376393 L2242.40699,780.191835 L2242.32578,779.962438 C2242.31197,779.920468 2242.29802,779.876631 2242.28393,779.830925 L2242.1977,779.53427 L2242.06207,779.005215 L2241.9189,778.375273 L2241.76819,777.644445 L2241.60994,776.812729 L2241.44414,775.880127 C2244.19472,773.571333 2246.04246,768.751407 2247.05236,765.009393 L2247.24319,764.276425 C2247.27314,764.157014 2247.30216,764.039066 2247.33026,763.922715 L2247.48779,763.244827 C2247.53662,763.025959 2247.58177,762.814541 2247.62327,762.611635 L2247.73681,762.02952 C2247.75391,761.937111 2247.7701,761.847097 2247.78538,761.759609 L2247.86623,761.266071 L2247.92543,760.839561 L2248.00546,760.17987 L2248.15175,758.896601 C2248.19749,758.478009 2248.24025,758.069342 2248.28008,757.672878 L2248.39089,756.522373 L2249.02212,756.487305 C2249.21171,751.708241 2248.87837,747.853521 2248.02212,744.923145 L2247.92218,744.594104 L2247.81235,744.258726 L2247.69214,743.917837 L2247.5611,743.572262 L2247.41876,743.222825 C2247.39407,743.16431 2247.36888,743.105668 2247.3432,743.046917 L2247.18303,742.693237 C2247.15531,742.634117 2247.12707,742.574923 2247.0983,742.515671 L2246.91925,742.159603 L2246.72703,741.802976 L2246.52118,741.446614 L2246.30122,741.091343 L2246.0667,740.737988 L2245.81714,740.387375 C2243.45918,737.188505 2239.14736,734.439185 2231.26425,735 Z" id="Path-Copy" fill="#090F29" transform="translate(2232.277394, 920.963448) scale(-1, 1) translate(-2232.277394, -920.963448) "></path>
        <g id="Group-Copy-2" transform="translate(2231.219749, 990.256111) rotate(-4.000000) translate(-2231.219749, -990.256111) translate(2106.053663, 885.190790)">
            <ellipse id="Oval-Copy-4" fill="#090F29" cx="113.136048" cy="144.065038" rx="13.5" ry="20"></ellipse>
            <rect id="Rectangle-Copy-2" fill="#090F29" x="128.631745" y="166.896797" width="15" height="6" rx="3"></rect>
            <line x1="116.322218" y1="143.285395" x2="132.103094" y2="169.615087" id="Path-39" stroke="#090F29" stroke-width="4"></line>
            <g id="Oval">
                <use stroke="#090F29" stroke-width="10.2" xlink:href="#path-2"></use>
                <ellipse stroke="#47210C" stroke-width="10" stroke-linejoin="square" cx="50" cy="136.64281" rx="45" ry="68"></ellipse>
            </g>
            <ellipse id="Oval-Copy-2" fill="#090F29" cx="50.498782" cy="136.677688" rx="9.5" ry="14"></ellipse>
            <ellipse id="Oval-Copy-3" fill="#090F29" cx="43.4460772" cy="137.186957" rx="9.5" ry="14"></ellipse>
            <ellipse id="Oval-Copy-6" fill="#090F29" cx="192.35166" cy="136.572588" rx="5" ry="7"></ellipse>
            <ellipse id="Oval-Copy-11" fill="#090F29" cx="208.452198" cy="135.693564" rx="5" ry="7"></ellipse>
            <ellipse id="Oval-Copy-5" fill="#090F29" cx="54.0112296" cy="150.957489" rx="5" ry="7"></ellipse>
            <g id="Oval-Copy">
                <use stroke="#090F29" stroke-width="10.2" xlink:href="#path-3"></use>
                <ellipse stroke="#47210C" stroke-width="10" stroke-linejoin="square" cx="200.332172" cy="137.13064" rx="45" ry="68"></ellipse>
            </g>
            <path d="M170.767326,32.6725094 L166.57677,17.6725094 L196.481748,19.7636692 C200.529692,21.8326046 203.131273,24.2872706 204.286492,27.1276671 C209.403398,39.7088725 200.436948,46.9030223 186.821257,45.9509204" id="Path-4" stroke="#090F29" stroke-width="6.984" stroke-linecap="round" stroke-linejoin="round"></path>
            <line x1="89.3723267" y1="32.8907408" x2="83.3723267" y2="2.8907408" id="Path-5" stroke="#090F29" stroke-width="6.984" stroke-linecap="round" stroke-linejoin="round"></line>
            <path d="M93.6341887,47.7392689 L86.1405173,69.5766009 M77.2269815,95.5515644 L64.9957633,131.194597 L68.8377914,141.855372 L114.034739,140.739269" id="Shape" stroke="#090F29" stroke-width="4.85" stroke-linecap="round" stroke-linejoin="round"></path>
            <polyline id="Path" stroke="#EF9C53" stroke-width="6.984" stroke-linecap="round" stroke-linejoin="round" points="93.6341887 47.7392689 41.0542261 129.520441 44.8962542 140.181217 114.034739 140.739269"></polyline>
            <polygon id="Path-2" stroke="#EF9C53" stroke-width="6.984" stroke-linecap="round" stroke-linejoin="round" points="89.644166 33.2875483 170.833046 33.2875483 175.644166 51.101183 112.674227 141.287548"></polygon>
            <path d="M175.369458,50.1541607 L187.962219,63.2164838 M192.380437,78.4151528 L209.347534,136.781969" id="Shape" stroke="#090F29" stroke-width="6.984" stroke-linecap="round" stroke-linejoin="round"></path>
            <polyline id="Path-3" stroke="#EF9C53" stroke-width="6.984" stroke-linecap="round" stroke-linejoin="round" points="175.369458 50.1541607 171.00363 62.0306238 192.388945 135.596109"></polyline>
            <path d="M70.4535442,2.7466061 C69.0910296,4.42738188 68.7850387,5.80833889 69.5355714,6.88947712 C70.2861042,7.97061536 72.5476838,8.78577465 76.3203104,9.334955 L100.135699,13.1761377 C97.217408,11.5893349 94.110378,10.0269003 90.8146091,8.48883373 C88.7117753,7.50748509 87.6384086,3.50282821 83.2348443,2.54169633 C81.8585608,2.24130559 77.5981275,2.30960885 70.4535442,2.7466061 Z" id="Path-6" stroke="#090F29" stroke-width="6.984" fill="#090F29" stroke-linecap="round" stroke-linejoin="round" transform="translate(84.635699, 7.767139) rotate(-9.000000) translate(-84.635699, -7.767139) "></path>
            <line x1="208.452149" y1="135.694265" x2="192.851173" y2="136.607518" id="Path-15" stroke="#090F29" stroke-width="4"></line>
            <rect id="Rectangle-Copy-3" fill="#090F29" x="88.9392347" y="133.397515" width="15" height="6" rx="3"></rect>
            <path d="M170.767326,32.6725094 L166.57677,17.6725094 L139.513657,16.4798131 C141.265994,24.4443224 141.662526,29.8974013 140.703252,32.8390497 C138.686758,39.0227071 134.900128,43.8198913 125.613508,45.3427361" id="Path-4-Copy" stroke="#090F29" stroke-width="6.984" stroke-linecap="round" stroke-linejoin="round"></path>
        </g>
        <g id="Group-Copy" transform="translate(1780.219749, 1020.256111) scale(-1, 1) rotate(-4.000000) translate(-1780.219749, -1020.256111) translate(1655.053663, 915.190790)">
            <ellipse id="Oval-Copy-4" fill="#090F29" cx="113.136048" cy="144.065038" rx="13.5" ry="20"></ellipse>
            <rect id="Rectangle-Copy-2" fill="#090F29" x="128.631745" y="166.896797" width="15" height="6" rx="3"></rect>
            <line x1="116.322218" y1="143.285395" x2="132.103094" y2="169.615087" id="Path-39" stroke="#090F29" stroke-width="4"></line>
            <g id="Oval">
                <use stroke="#090F29" stroke-width="10.2" xlink:href="#path-4"></use>
                <ellipse stroke="#47210C" stroke-width="10" stroke-linejoin="square" cx="50" cy="136.64281" rx="45" ry="68"></ellipse>
            </g>
            <ellipse id="Oval-Copy-2" fill="#090F29" cx="50.498782" cy="136.677688" rx="9.5" ry="14"></ellipse>
            <ellipse id="Oval-Copy-3" fill="#090F29" cx="43.4460772" cy="137.186957" rx="9.5" ry="14"></ellipse>
            <ellipse id="Oval-Copy-6" fill="#090F29" cx="192.35166" cy="136.572588" rx="5" ry="7"></ellipse>
            <ellipse id="Oval-Copy-11" fill="#090F29" cx="208.452198" cy="135.693564" rx="5" ry="7"></ellipse>
            <ellipse id="Oval-Copy-5" fill="#090F29" cx="54.0112296" cy="150.957489" rx="5" ry="7"></ellipse>
            <g id="Oval-Copy">
                <use stroke="#090F29" stroke-width="10.2" xlink:href="#path-5"></use>
                <ellipse stroke="#47210C" stroke-width="10" stroke-linejoin="square" cx="200.332172" cy="137.13064" rx="45" ry="68"></ellipse>
            </g>
            <path d="M170.767326,32.6725094 L166.57677,17.6725094 L196.481748,19.7636692 C200.529692,21.8326046 203.131273,24.2872706 204.286492,27.1276671 C209.403398,39.7088725 200.436948,46.9030223 186.821257,45.9509204" id="Path-4" stroke="#090F29" stroke-width="6.984" stroke-linecap="round" stroke-linejoin="round"></path>
            <line x1="89.3723267" y1="32.8907408" x2="83.3723267" y2="2.8907408" id="Path-5" stroke="#090F29" stroke-width="6.984" stroke-linecap="round" stroke-linejoin="round"></line>
            <path d="M93.6341887,47.7392689 L86.1405173,69.5766009 M77.2269815,95.5515644 L64.9957633,131.194597 L68.8377914,141.855372 L114.034739,140.739269" id="Shape" stroke="#090F29" stroke-width="4.85" stroke-linecap="round" stroke-linejoin="round"></path>
            <polyline id="Path" stroke="#24B0A4" stroke-width="6.984" stroke-linecap="round" stroke-linejoin="round" points="92.809901 47.6816291 41.0542261 129.520441 44.8962542 140.181217 114.034739 140.739269"></polyline>
            <polygon id="Path-2" stroke="#24B0A4" stroke-width="6.984" stroke-linecap="round" stroke-linejoin="round" points="89.644166 33.2875483 170.833046 33.2875483 175.644166 51.101183 112.674227 141.287548"></polygon>
            <line x1="208.452149" y1="135.694265" x2="192.851173" y2="136.607518" id="Path-15" stroke="#090F29" stroke-width="4"></line>
            <path d="M175.369458,50.1541607 L187.962219,63.2164838 M192.380437,78.4151528 L209.347534,136.781969" id="Shape" stroke="#090F29" stroke-width="6.984" stroke-linecap="round" stroke-linejoin="round"></path>
            <polyline id="Path-3" stroke="#24B0A4" stroke-width="6.984" stroke-linecap="round" stroke-linejoin="round" points="175.369458 50.1541607 171.00363 62.0306238 192.388945 135.596109"></polyline>
            <path d="M70.4535442,2.7466061 C69.0910296,4.42738188 68.7850387,5.80833889 69.5355714,6.88947712 C70.2861042,7.97061536 72.5476838,8.78577465 76.3203104,9.334955 L100.135699,13.1761377 C97.217408,11.5893349 94.110378,10.0269003 90.8146091,8.48883373 C88.7117753,7.50748509 87.6384086,3.50282821 83.2348443,2.54169633 C81.8585608,2.24130559 77.5981275,2.30960885 70.4535442,2.7466061 Z" id="Path-6" stroke="#090F29" stroke-width="6.984" fill="#090F29" stroke-linecap="round" stroke-linejoin="round" transform="translate(84.635699, 7.767139) rotate(-9.000000) translate(-84.635699, -7.767139) "></path>
            <rect id="Rectangle-Copy-3" fill="#090F29" x="88.9392347" y="133.397515" width="15" height="6" rx="3"></rect>
            <path d="M170.767326,32.6725094 L166.57677,17.6725094 L139.513657,16.4798131 C141.265994,24.4443224 141.662526,29.8974013 140.703252,32.8390497 C138.686758,39.0227071 134.900128,43.8198913 125.613508,45.3427361" id="Path-4-Copy" stroke="#090F29" stroke-width="6.984" stroke-linecap="round" stroke-linejoin="round"></path>
        </g>
        <path d="M1354.15311,1103.31 C1352.2423,1060.11213 1360.10226,1033.72028 1377.73299,1024.13446 C1386.59623,1019.31552 1407.52217,1037.31304 1419.25604,1034.56611 C1489.37404,1018.15129 1436.3507,1047.24056 1485.95765,1047.24056 C1500.94843,1047.24056 1515.82098,1034.202 1526.85896,1034.56611 C1535.73431,1034.85888 1545.55288,1039.96975 1556.31468,1049.89871 C1559.47527,1058.18491 1561.3604,1063.99848 1561.97009,1067.33941 C1564.27786,1079.98543 1563.06354,1086.88082 1563.06354,1086.88082 C1563.06354,1086.88082 1493.42673,1092.35722 1354.15311,1103.31 Z" id="Path-7" fill="#F7BF7F"></path>
        <path d="M2882.38281,1102.76355 C2884.0751,1021.87241 2918.2521,971.328008 2984.91381,951.130337 C3084.90637,920.833831 3010.68254,993.776804 3081.42508,993.776804 C3128.58678,993.776804 3162.03126,995.412168 3181.75852,998.682897 C3188.17471,1044.18766 3191.38281,1066.94004 3191.38281,1066.94004 C3191.38281,1066.94004 3182.46432,1147.72765 3054.85938,1162.52137 C3031.84168,1165.18989 2974.34949,1145.27062 2882.38281,1102.76355 Z" id="Path-7-Copy" fill="#EFAD61" transform="translate(3036.882812, 1053.260684) scale(-1, -1) translate(-3036.882812, -1053.260684) "></path>
        <polygon id="Rectangle" fill="#090F29" points="-4 1204 4004 975 4004 1300 -4 1300"></polygon>
        <polygon id="Path-10-Copy-3" fill="#090F29" points="2765.94531 1014.75781 2773.14444 986.348209 2782.78125 977.986816 2774.8731 979.526468 2788.88392 924.236152 2798.18213 914.829531 2790.67698 917.160288 2808.3125 847.565963 2834.60919 941.569368 2826.79834 938.882324 2836.78565 949.349625 2858.39844 1026.60937 2816.20384 1021.45683 2818.30078 1042.49512 2802.8917 1042.49512 2803.8917 1019.23759"></polygon>
        <polygon id="Path-10-Copy-5" fill="#090F29" points="2821.94531 1044.29721 2863.6466 910.495117 2912.94531 1053.7819 2871.41391 1049.65837 2873.47789 1066.49512 2858.31099 1066.49512 2859.29528 1047.88233"></polygon>
        <polygon id="Path-10-Copy-6" fill="#090F29" points="2864.44531 1017.33661 2900.08609 893.76291 2910.17773 883.9375 2902.39293 885.764647 2920.35253 823.495117 2942.47298 892.970325 2933.53294 890.124023 2945.35055 902.008129 2963.2879 958.345175 2953.22559 954.402344 2966.38433 968.070345 2986.44531 1031.07726 2930.76584 1025.10342 2933.53294 1049.49512 2913.1993 1049.49512 2914.51889 1022.53044"></polygon>
        <polygon id="Path-12" fill="#090F29" points="2703.57422 1060.25781 2713.69475 704.078125 2716.50879 699 2719.25537 701.40332 2713.34628 1061.25781"></polygon>
        <g id="Group-2" transform="translate(2709.500000, 824.000000) rotate(2.000000) translate(-2709.500000, -824.000000) translate(2694.000000, 777.000000)">
            <ellipse id="Oval-Copy-10" fill="#090F29" cx="18" cy="47" rx="13" ry="47"></ellipse>
            <ellipse id="Oval-Copy-7" fill="#EFAD61" cx="13" cy="47" rx="13" ry="47"></ellipse>
            <ellipse id="Oval" fill="#090F29" cx="13" cy="47" rx="8.21052632" ry="36"></ellipse>
        </g>
        <g id="Group-3" transform="translate(2690.304688, 711.563477)" fill="#090F29">
            <polygon id="Path-13" points="1.31542355 16.8798828 42.8534073 1.97325028e-14 54 12.9658203 45.21464 30.3408203 -3.92566236e-13 47.6279297"></polygon>
            <polygon id="Path-13-Copy" points="4.31542355 17.8798828 42.8534073 1.37838862e-17 45.8534073 1 57 13.9658203 48.21464 31.3408203 3 48.6279297 0.6953125 47.6279297"></polygon>
        </g>
        <path d="M629.697266,1191.27148 C610.504557,1167.1852 605.70638,1150.59471 615.302734,1141.5 C629.697266,1127.85794 600.195312,1057.72807 642.939453,1067.08767 C685.683594,1076.44727 671.605469,1025.92729 713.050781,1044.22852 C754.496094,1062.52974 790.056641,1038.69282 812.796875,1066.34641 C835.537109,1094 823.204665,1087.63672 871.153114,1104.91602 C919.101562,1122.19531 934.291016,1123.66406 941.226562,1150.21094 C945.85026,1167.90885 949.279297,1178.50065 951.513672,1181.98633 L629.697266,1191.27148 Z" id="Path-14" fill="#090F29"></path>
        <path d="M2005.40297,706.165039 C2021.22884,706.165039 2026.52668,718.081055 2026.52668,724.849609 C2026.52668,726.881237 2025.77434,728.384837 2024.26967,729.360411 C2023.78917,734.170346 2022.11126,740.953652 2019.23584,749.709961 C2018.18915,753.155046 2016.2376,754.58042 2013.38119,753.986083 C2012.02446,754.071966 2011.15803,755.873325 2010.78188,759.39016 C2009.50995,760.034279 2021.72705,762.17041 2035.56778,774.73291 C2039.58626,778.297321 2046.40709,798.053017 2056.03027,834 C2056.49882,835.947033 2063.8425,851.645309 2078.06132,881.094827 C2078.1476,886.104278 2072.76117,886.612625 2061.90204,882.619866 C2060.47425,881.14461 2055.74336,871.539558 2051.19626,861.879871 L2050.66236,860.743672 C2046.49012,851.849103 2042.5901,843.17708 2041.69141,841.047852 C2040.43184,838.063624 2037.38445,827.867823 2032.54922,810.460448 L2032.37388,809.831039 L2032.37555,809.84372 C2032.43638,810.347921 2033.96722,823.077097 2036.48946,847.847261 L2036.56778,848.617188 C2037.27481,855.574028 2038.18125,868.118299 2039.28711,886.25 C2039.64477,896.474369 2038.55895,931.845388 2036.02966,992.363057 C2035.81332,998.843382 2034.59466,1024.0586 2032.37367,1068.00871 C2032.67306,1069.79078 2034.55038,1071.02887 2036.56778,1073.42041 C2037.20761,1074.17889 2038.11862,1075.15316 2039.30082,1076.34322 L2039.75685,1076.79961 C2042.33497,1079.36538 2046.06669,1082.84909 2050.95202,1087.25074 C2052.6501,1090.64908 2051.13954,1092.53035 2046.42035,1092.89453 C2046.42035,1092.89453 2037.68399,1091.5612 2020.21127,1088.89453 C2012.48184,1088.27596 2010.18719,1082.31145 2013.32732,1071.00101 C2011.47641,1045.53827 2010.53658,1025.74257 2010.50782,1011.61392 L2010.50756,1010.43344 C2010.51615,1005.18199 2010.65649,1000.75007 2010.92859,997.13769 C2010.11788,987.241457 2008.41531,973.152493 2005.82088,954.870799 L2005.43426,952.161438 C2004.51073,945.724148 2003.48141,938.789554 2002.34631,931.357655 C2002.61809,940.716676 1999.6296,957.827411 1993.38083,982.689858 C1993.70479,991.04438 1991.22779,1023.29435 1985.94982,1079.43978 C1985.53346,1082.08597 1998.78648,1094.24757 1996.64062,1098.35742 C1991.99523,1107.25452 1975.1948,1099.19404 1969.20762,1093.86279 C1967.14433,1092.02555 1966.64534,1086.70368 1967.71065,1077.89716 C1963.70352,1033.41545 1964.20251,999.099399 1969.20762,974.949016 C1967.06948,957.644861 1966.89387,929.547327 1968.68078,890.656415 C1968.73808,890.35723 1968.76733,890.025404 1968.76733,889.658691 L1968.76784,889.247836 C1968.82102,889.152154 1968.82086,889.001837 1968.76733,888.796885 L1968.76733,862.260254 C1968.76733,862.260254 1968.11426,839.822917 1966.80811,794.948242 C1954.8716,812.511719 1947.48643,822.605306 1944.6526,825.229004 C1944.65602,825.657715 1951.8401,852.20459 1953.82227,867.001953 C1954.40659,867.838038 1954.5627,872.340098 1954.66209,877.114325 L1954.67627,877.814542 L1954.67627,877.814542 L1954.69208,878.630059 C1954.69737,878.907196 1954.7026,879.184047 1954.70785,879.459956 C1951.53231,879.225122 1947.85859,879.343354 1943.68701,879.814801 C1939.18307,875.244003 1926.92188,836.809645 1926.92188,825.229004 C1926.92188,813.648363 1956.34644,774.085324 1963.58634,767.988281 C1968.41294,763.923586 1977.73021,760.084291 1991.53816,756.470396 C1991.53816,756.470396 1993.02733,755.552549 1993.78882,753.066406 C1993.92566,752.619628 1993.78912,751.750728 1993.3792,750.459706 C1989.46537,749.020012 1988.29481,734.137932 1987.98916,727.267705 C1986.02898,724.065531 1985.42801,721.167917 1986.18517,718.575195 C1986.25352,718.341138 1986.32352,718.09946 1986.3968,717.851511 L1986.48643,717.551046 C1987.90333,712.849855 1990.68491,706.165039 2005.40297,706.165039 Z" id="Combined-Shape" fill="#090F29"></path>
        <path d="M1989.35408,729.262695 C1986.3301,725.258464 1985.2738,721.695964 1986.18517,718.575195 C1987.55223,713.894043 1989.57709,706.164899 2005.40297,706.164899 C2011.12207,708.428955 2002.65296,706.641081 1993.47852,714.802979 C1991.19381,716.835533 1989.81899,721.655439 1989.35408,729.262695 Z" id="Path-21-Copy" fill="#EF9C53"></path>
        <path d="M1294.69727,1174.19942 C1221.55273,1162.82587 1189.77865,1154.30965 1199.375,1148.65074 C1213.76953,1140.16238 1265.19531,1091.10609 1307.93945,1096.92981 C1350.68359,1102.75354 1336.60547,1071.31902 1378.05078,1082.7064 C1419.49609,1094.09378 1455.05664,1079.26198 1477.79688,1096.46859 C1500.53711,1113.67519 1488.20467,1109.71583 1536.15311,1120.46735 C1584.10156,1131.21887 1599.29102,1132.13275 1606.22656,1148.65074 C1610.85026,1159.66273 1614.2793,1166.25315 1616.51367,1168.42201 L1294.69727,1174.19942 Z" id="Path-14-Copy" fill="#090F29"></path>
        <path d="M2576.85937,1074.33173 C2576.85937,1074.33173 2566.43359,1065.42796 2608.07227,1057.25781 C2649.71094,1049.08767 2674.78125,1040.67568 2692.70508,1036.33784 C2710.62891,1032 2692.0625,1022.179 2726.41016,1028.643 C2760.75781,1035.10701 2862,1038.37142 2881,1038.37142 C2900,1038.37142 2975.23047,1021.26473 2982.46484,1022 C2989.69922,1022.73527 2987.34375,1015.26271 3020.89453,1028.643 C3043.26172,1037.5632 3081.37891,1044.43576 3135.24609,1049.26068 C3077.34766,1073.51844 3048.39844,1085.64731 3048.39844,1085.64731 C3048.39844,1085.64731 2888.95964,1081.87545 2570.08203,1074.33173 C2574.60026,1074.33173 2576.85937,1074.33173 2576.85937,1074.33173 Z" id="Path-28" fill="#090F29"></path>
        <path d="M1033,1164.19942" id="Path-29" stroke="#979797"></path>
        <path d="M-338.6875,690 C31.953125,656.255208 239.078125,635.690104 282.6875,628.304688 C348.101563,617.226563 419.6875,562.484375 419.6875,562.484375 C419.6875,562.484375 692.59375,528.484375 706.679687,497.398438 C720.765625,466.3125 685.211382,454.765469 598.171875,446.210938 C511.132368,437.656406 425.570313,466.3125 390.390625,466.3125 C355.210938,466.3125 132.789062,409.0625 197.890625,381.773438 C262.992187,354.484375 429.945313,330.890625 544.153114,330.890625 C658.360915,330.890625 924.46875,279.695313 974.398438,279.695313 C1024.32813,279.695313 1257.09007,259.046875 1343.02957,206.15625 C1428.96908,153.265625 1410.35937,58.9453125 1239.24219,90.3671875 C1144.09311,107.839205 374.544774,39.7642779 -13.8125,40.2421875 C-323.881378,40.623756 -263.625418,114.858652 -355.742188,90.3671875 C-358.278741,89.6927837 -352.593845,289.570388 -338.6875,690 Z" id="Path-27" fill="#FFFFFF"></path>
        <path d="M1356.59375,868.769531 L1601.59375,868.769531 C1600.86076,826.153729 1581.97087,804.845827 1544.92408,804.845827 C1507.87728,804.845827 1489.35389,812.259909 1489.35389,827.088073 C1474.11009,781.542378 1449.6808,758.769531 1416.06599,758.769531 C1382.45119,758.769531 1362.62711,795.436198 1356.59375,868.769531 Z" id="Path-30" fill="#FFFFFF"></path>
        <path d="M2553.40321,664.3125 C2555.99033,664.3125 2593.18016,664.3125 2664.97272,664.3125 C2656.92433,638.475754 2645.61477,625.55738 2631.04405,625.55738 C2616.47332,625.55738 2606.23153,632.016567 2600.31866,644.93494 C2596.03231,613.315447 2583.96116,598.88537 2564.10521,601.644708 C2544.24926,604.404047 2534.32129,617.450628 2534.32129,640.784451 C2520.68151,628.830507 2509.88,628.830507 2501.91676,640.784451 C2493.95353,652.738395 2493.95353,660.581078 2501.91676,664.3125 C2533.65394,664.3125 2550.81609,664.3125 2553.40321,664.3125 Z" id="Path-31" fill="#FFFFFF"></path>
        <rect id="Rectangle" fill="#090F29" x="2002" y="1044" width="23" height="6" rx="3"></rect>
        <line x1="1987.5498" y1="1019.25909" x2="2005.2915" y2="1047" id="Path-33" stroke="#090F29" stroke-width="4"></line>
        <path d="M1966.80811,794.948242 C1972.60205,798.108398 1975.26188,802.294596 1974.7876,807.506836 C1974.31331,812.719076 1972.30656,835.638835 1968.76733,876.266113 L1966.80811,794.948242 Z" id="Path-34" fill="#EF9C53"></path>
        <path d="M2032.37367,809.828125 L2047.31982,841.461426 L2070.05469,880.357422 L2060.27539,881.042334 C2057.15956,874.557234 2054.95383,870.014314 2053.6582,867.413574 C2046.7097,853.465726 2042.84044,844.432199 2041.21143,840.115723 C2039.12679,834.59196 2036.18087,824.496094 2032.37367,809.828125 Z" id="Path-35" fill="#EF9C53"></path>
        <g id="Group" transform="translate(2000.500000, 978.000000) rotate(-3.500000) translate(-2000.500000, -978.000000) translate(1814.000000, 870.000000)">
            <ellipse id="Oval-Copy-4" fill="#090F29" cx="168.509646" cy="148.10183" rx="20.3890675" ry="20.4295379"></ellipse>
            <g id="Oval">
                <use stroke="#090F29" stroke-width="10.2" xlink:href="#path-6"></use>
                <ellipse stroke="#FFFFFF" stroke-width="14" stroke-linejoin="square" cx="74.9598071" cy="140.891405" rx="67.9598071" ry="68.1085952"></ellipse>
            </g>
            <ellipse id="Oval-Copy-2" fill="#D8D8D8" cx="74.9598071" cy="140.891405" rx="14.392283" ry="14.4208503"></ellipse>
            <ellipse id="Oval-Copy-3" fill="#090F29" cx="74.9598071" cy="140.891405" rx="14.392283" ry="14.4208503"></ellipse>
            <ellipse id="Oval-Copy-6" fill="#090F29" cx="297.959807" cy="140.891405" rx="6.98613318" ry="7"></ellipse>
            <ellipse id="Oval-Copy-5" fill="#090F29" cx="79.7572347" cy="155.312255" rx="7.19614148" ry="7.21042514"></ellipse>
            <g id="Oval-Copy">
                <use stroke="#090F29" stroke-width="10.2" xlink:href="#path-7"></use>
                <ellipse stroke="#FFFFFF" stroke-width="14" stroke-linejoin="square" cx="298.040193" cy="140.891405" rx="67.9598071" ry="68.1085952"></ellipse>
            </g>
            <path d="M254.256638,33.9655177 L247.887983,18.6052232 L298.040193,18.6052232 C298.040193,33.6394603 291.973914,43.8796567 279.841357,49.3258122" id="Path-4" stroke="#090F29" stroke-width="7.2" stroke-linecap="round" stroke-linejoin="round"></path>
            <line x1="133.417915" y1="33.9754931" x2="123.264648" y2="3.1671769" id="Path-5" stroke="#090F29" stroke-width="7.2" stroke-linecap="round" stroke-linejoin="round"></line>
            <polyline id="Path" stroke="#EC5B00" stroke-width="7.2" stroke-linecap="round" stroke-linejoin="round" points="137.667199 49.3258122 71.8887975 134.284196 77.5552904 145.284084 167.755363 145.284084"></polyline>
            <polygon id="Path-2" stroke="#EC5B00" stroke-width="7.2" stroke-linecap="round" stroke-linejoin="round" points="133.417915 33.9754931 254.469219 33.9754931 261.642522 52.3348503 167.755363 145.284084"></polygon>
            <line x1="261.642522" y1="52.3348503" x2="298.040193" y2="140.891405" id="Path-3" stroke="#EC5B00" stroke-width="7.2" stroke-linecap="round" stroke-linejoin="round"></line>
            <polygon id="Path-6" stroke="#090F29" stroke-width="7.2" stroke-linecap="round" stroke-linejoin="round" points="100.66985 0 109.788593 6.33435379 149.919614 3.24962032"></polygon>
        </g>
        <polygon id="Path-10-Copy-12" fill="#090F29" points="700.564567 1014.66185 718.374489 944.3793 772.341797 902.084598 726.742584 911.35664 759.155526 783.446812 796.296875 750.876953 764.649585 761.765839 834.015375 488.03054 874.379385 632.320743 858.872011 628.320743 879.083038 649.135005 991.779183 1051.99264 858.872011 1035.76284 865.477086 1198.03054 816.940586 1190.03054 820.090448 1028.77252"></polygon>
        <polygon id="Path-10-Copy-15" fill="#090F29" transform="translate(3294.171875, 744.030540) scale(-1, 1) translate(-3294.171875, -744.030540) " points="3148.56457 915.661849 3166.37449 845.3793 3220.3418 803.084598 3174.74258 812.35664 3207.15553 684.446812 3244.29688 651.876953 3212.64958 662.765839 3282.01538 389.03054 3322.37939 533.320743 3306.87201 529.320743 3327.08304 550.135005 3439.77918 952.992639 3306.87201 936.762835 3313.47709 1099.03054 3264.94059 1091.03054 3268.09045 929.772525"></polygon>
        <polygon id="Path-10-Copy-13" fill="#090F29" points="868.564567 1109.13253 879.39954 1067.32399 903.501953 1053.0007 883.821574 1050.26085 965.256556 736.03054 1011.79434 898.697689 988.052187 890.757812 1017.80628 919.711682 1059.68455 1066.09206 1033.04883 1056.92383 1065.12081 1085.09384 1079.56457 1135.58024 983.26647 1124.08192 988.052187 1171.03054 952.884991 1171.03054 955.167229 1119.1295"></polygon>
        <polygon id="Path-10-Copy-16" fill="#090F29" transform="translate(3461.064567, 808.530540) scale(-1, 1) translate(-3461.064567, -808.530540) " points="3355.56457 964.132526 3366.39954 922.323994 3390.50195 908.000703 3370.82157 905.260848 3452.25656 591.03054 3498.79434 753.697689 3475.05219 745.757812 3504.80628 774.711682 3546.68455 921.092058 3520.04883 911.923828 3552.12081 940.093839 3566.56457 990.580236 3470.26647 979.081922 3475.05219 1026.03054 3439.88499 1026.03054 3442.16723 974.129503"></polygon>
        <polygon id="Path-10-Copy-14" fill="#090F29" points="491.242728 1120.95871 512.64834 1040.53655 535.321168 1009.38678 519.509277 1014.01382 575.709293 795.03054 613.741775 927.968439 600.502865 921.720007 618.499778 944.599457 675.564567 1144.06246 591.442091 1134.01795 595.622718 1175.03054 564.901949 1175.03054 566.895628 1129.6917"></polygon>
        <polygon id="Path-10-Copy-17" fill="#090F29" transform="translate(3129.064467, 821.530540) scale(-1, 1) translate(-3129.064467, -821.530540) " points="3023.56457 977.132526 3048.06836 885.070312 3074.02278 849.412031 3055.92233 854.708768 3084.45534 743.529911 3104.61331 719.894109 3090.05546 721.709081 3120.25656 604.03054 3163.79374 756.209451 3148.63867 749.056641 3169.2404 775.24759 3207.04632 907.393575 3176.96487 893.082944 3215.43801 936.725686 3234.56457 1003.58024 3138.26647 992.081922 3143.05219 1039.03054 3107.88499 1039.03054 3110.16723 987.129503"></polygon>
        <line x1="1985.35083" y1="999.060547" x2="1891.5259" y2="1004" id="Path-32" stroke="#090F29" stroke-width="2"></line>
        <line x1="1984.40183" y1="1039.10701" x2="1897.31759" y2="1039.10701" id="Path-32-Copy" stroke="#090F29" stroke-width="2"></line>
        <path d="M1541.62012,1098.7465 C1541.62012,1098.7465 1555.76693,1097.6894 1584.06055,1095.5752 C1587.54622,1085.18262 1585.68099,1078.21126 1578.46484,1074.66113 C1567.64063,1069.33594 1570.97168,1076.09442 1557.03906,1071.58237 C1543.10645,1067.07031 1543.19434,1061.25357 1538.42773,1066.41797 C1533.66113,1071.58237 1532.13672,1070.1048 1535.28223,1077.13477 C1538.42773,1084.16474 1543,1087.11426 1543,1091.34473 C1543,1095.5752 1541.62012,1098.7465 1541.62012,1098.7465 Z" id="Path-40" fill="#090F29"></path>
        <path d="M1510.02637,1103.31 C1515.12012,1103.31 1521.08594,1104.57801 1523.37109,1103.31 C1525.65625,1102.04199 1530.94922,1099.07324 1523.37109,1097.43066 C1515.79297,1095.78809 1512.05176,1094.61986 1512.05176,1097.43066 C1512.05176,1100.24147 1504.93262,1103.31 1510.02637,1103.31 Z" id="Path-41" fill="#090F29"></path>
        <path d="M1758.52539,783.918186 L1769.41896,778.544659 C1770.03353,767.409418 1775.17749,761.53683 1784.85083,760.926896 C1788.89347,763.656296 1788.28922,765.020996 1783.03809,765.020996 C1775.16139,765.020996 1772.06099,778.054829 1775.70801,778.138916 C1793.30591,778.544659 1775.63103,779.039042 1775.16139,779.498469 C1772.25755,782.339168 1759.55255,785.241864 1759.07739,784.929443 C1758.70939,784.687477 1758.52539,784.350392 1758.52539,783.918186 Z" id="Path-44" fill="#EF9C53"></path>
        <path d="M2403.38281,1045.75781 C2394.42239,1025.07616 2392.74522,1011.90511 2398.3513,1006.24466 C2401.16957,1003.39906 2407.82344,1014.02664 2411.55448,1012.40457 C2433.85007,1002.71158 2416.99011,1019.88886 2432.76375,1019.88886 C2437.5304,1019.88886 2442.25946,1012.18956 2445.76924,1012.40457 C2448.59135,1012.57745 2451.71339,1015.59543 2455.13534,1021.45851 C2456.14032,1026.35153 2456.73974,1029.78445 2456.93361,1031.75728 C2457.66741,1039.22478 2453.28129,1043.29653 2453.28129,1043.29653 C2453.28129,1043.29653 2436.64847,1044.11696 2403.38281,1045.75781 Z" id="Path-7-Copy-2" fill="#F7BF7F"></path>
        <path d="M2454.29688,1053.16474 L2483.19922,1051.75781 C2487.25781,1042.55208 2487.25781,1037.94922 2483.19922,1037.94922 C2477.11133,1037.94922 2472.35156,1033.66827 2470.27002,1033.66827 C2468.18848,1033.66827 2466.77539,1032.28516 2466.77539,1035.11719 C2466.77539,1037.94922 2463.96875,1034.89844 2460.53613,1037.94922 C2457.10352,1041 2454.29688,1039.16358 2454.29688,1043.74765 C2454.29688,1046.80371 2454.29688,1049.94273 2454.29688,1053.16474 Z" id="Path-42" fill="#090F29"></path>
    </g>
</svg>