<svg width="4000" height="1282" xmlns="http://www.w3.org/2000/svg" xmlns:xlink="http://www.w3.org/1999/xlink"><defs><ellipse id="b" cx="50" cy="136.6" rx="50" ry="73"/><ellipse id="c" cx="200.3" cy="137.1" rx="50" ry="73"/><ellipse id="d" cx="50" cy="136.6" rx="50" ry="73"/><ellipse id="e" cx="200.3" cy="137.1" rx="50" ry="73"/><ellipse id="f" cx="75" cy="140.9" rx="75" ry="75.1"/><ellipse id="g" cx="298" cy="140.9" rx="75" ry="75.1"/><radialGradient cx="50%" cy="50%" fx="50%" fy="50%" r="42.3%" id="a"><stop stop-color="#F7E3C7" offset="0%"/><stop stop-color="#FFF" stop-opacity="0" offset="100%"/></radialGradient></defs><g fill="none" fill-rule="evenodd"><g transform="translate(-356.3 -289.2)"><path d="m2358.7 1220.8 150.8-240.6 94.8 143 146.8-219.4 174.4 228.1 605.7-19.2 110.4-149.3 427.4 394.9-870.3-66-661.4 38-178.6-109.5ZM1372.1 1408.9 1674 1081l73.9 70.8 24.7-39.1 35.5 32.8 68.4-130.6 103 184.3 107.5-63.4 214 289.1z" fill="#FFE9D2"/><circle fill="#FFF" cx="1531.3" cy="958.2" r="86"/></g><path fill="#FBDDBD" d="m2051.4 1001 203.2-253.8 123 126.9L2730.1 381 3003 686.6l55.5-71.1 464.3 451zM315.4 1210l440.1-581.2 133 176.5 70.3-85.9L1075 878.6l64.8-85.9 258.2 282.2z"/><path d="M1356.6 868.8h245c-.7-42.6-19.6-64-56.7-64-37 0-55.5 7.5-55.5 22.3-15.3-45.6-39.7-68.3-73.3-68.3-33.6 0-53.5 36.6-59.5 110ZM2553.4 664.3H2665c-8-25.8-19.4-38.7-34-38.7a31.2 31.2 0 0 0-30.7 19.3c-4.3-31.6-16.3-46-36.2-43.3-19.9 2.8-29.8 15.9-29.8 39.2-13.6-12-24.4-12-32.4 0s-8 19.8 0 23.5h51.5Z" fill="#FFF"/><path d="M896.5 1102c1.5 0 5.4 0 11.2-.3 19.2-1 58.4-6 93-30 45-31.4 144.1-71.3 232.5-46 88.3 25.2 192 106.2 391.6 11.8C1824.5 943 2150.3 943 2416 1013c265.7 70 308-60.4 423-60.4 76.5 0 146.8 19 210.8 57v100.1l-2212.4 65.5c35.1-48.9 54.9-73.3 59.2-73.3Z" fill="#EEBC87"/><path fill="#090F29" d="m1152 1115.7 42.3-167 50.1 179z"/><path fill="#090F29" d="m1100 1176.7 42.3-167 50.1 179zM1187 1120.6l42.3-127 50.1 136zM2387 1041.6l42.3-127 50.1 136z"/><path fill="#090F29" d="m2416 1079.6 42.3-127 50.1 136zM903 1120l27.6-109.4 32.7 117zM2724 1041l27.6-109.4 32.7 117zM819 1135l27.6-109.4 32.7 117z"/><g transform="translate(-886 79)"><path d="M2572.7 1519.3c1284.2-89.8 2680.2-288.5 2669.3-443.9-10.8-155.4-1424.4-208.5-2708.7-118.7-1284.2 89.8-2316.5 288.5-2305.6 443.9 10.8 155.4 1060.7 208.5 2345 118.7Z" fill="#EF9C53"/><path d="M2364.7 1548.3c1284.2-89.8 2886.4-288.5 2875.5-443.9-10.8-155.4-1630.6-208.5-2914.9-118.7C1041.1 1075.5 8.8 1274.2 19.7 1429.6c10.8 155.4 1060.7 208.5 2345 118.7Z" fill="#C86832"/><circle fill="url(#a)" style="mix-blend-mode:soft-light" cx="2838" cy="1131" r="1131"/></g><g transform="translate(1028 699)"><path d="M0 452.8s20-21 40.5-28.5c20.5-7.6 40.4-1.9 48 3.9 7.6 5.8 8 3 12.7 5.8 3.1 1.8 5.6 7 7.3 15.5L0 452.8Z" fill="#F7BF7F"/><path d="M756.2 62c-7 .5-11 4.5-13 9l-.2.5-.1.3-.2.5-.5 1.5-.1.5-.2.5v.5l-.2.5v.5l-.1.5v.5l-.1.4v.7l-.1.5V79.5l-.3.3h-.2l-.2.2-.3.2-.5.2-.7.4-1.6.7-4 1.8-1.2.6-.7.3-.4.2-.3.1-.2.2h-.1l-.2.2c0 2 2.1 2.7 4.8 2.9h4.5l2-.1h1.7c.4 2.9 1.3 6.3 2.5 10.4 1 3.2 3.5 5.1 7.7 5.8a34.3 34.3 0 0 1 0 6.8l-.2.1-.2.1-.4.2-2 .9-.8.3-.9.4-.9.4-.7.4-.8.4-.5.2-.5.3-.9.5-.6.3-.6.4-.6.3-.6.4-.6.4-.7.4-.3.3-.7.4-.7.5-.3.2-.7.5-.3.3-.8.5-.7.5-.7.6-.8.6-.7.6-.8.6-.7.7-.8.7-.4.3c-.5.5-1 1.2-1.6 2.2l-.3.5-.3.5-.2.2-.3.6-.3.6-.3.7-.3.7-.4.7-.3.8-.4.8-.3.8-.2.5-.6 1.3-.4 1-.4 1-.4 1-.4 1.1-.4 1.2-.4 1.1-.7 1.9-.7 1.9-.9 2.6-.7 2.1-.8 2.2-1 3.1-1 3.3-.8 2.5-.9 2.6-.8 2.7-.9 2.8-1.2 3.8-1.2 4-1.2 4.2-.6 2.2-.1.2-.1.3-.2.4-.2.6-.4.7-.5 1-.6 1.2-1 2-1.2 2.4-2.3 4.5-2.8 5.4-3.4 6.3-3.4 6.5-5.6 10.4-.4.8c0 3.2 2.3 4.4 7.1 3.7l.6-.1 1.2-.3.7-.2.6-.1.4-.1.7-.2.3-.1.8-.3h.4l.7-.3.8-.3.8-.3h.1l.1-.2.2-.2.3-.4.2-.3.3-.5.4-.6.5-1 .5-.7.4-.8.4-.5.8-1.6 1.2-2 1.6-2.9 2-3.9 1.4-2.5 1.3-2.5 1.9-3.5 2-4 1.7-3.3 1.5-3 1.1-2.3.5-1 .4-.7.2-.5.1-.4.2-.5.2-.5.4-1.2.6-1.8.7-2.4 1-3.2 1.5-5.2 2-7.1 2.3-8 2.3-8.3-.2 4-.3 4.6-.2 3.6-.4 5.2-.2 3.4-.3 4.2-.3 3.9-.4 4-.3 3.4-.2 2.8-.4 3.6-.4 3.8-.2 2.2-.2 2.9-.3 3.2-.3 4.8-.4 6-.5 7.6-.5 7.7-.1 3.2-.2 8.4-.3 11.3-.3 16.5 2.4 33.3-.4 27 .2 5 .6 13.2 1.1 24.1 1.5 28.7c-.2.8-.7 1.6-1.5 2.4l-.5.6-.8.8-.5.5-.4.5-.5.5-.3.4-.5.5-.5.5-.6.6-.6.7-1 1-1 1-1.2 1.1-1.3 1.2-2.2 2-2 1.8-2 2c-1.6 3-.4 4.7 3.4 5.2h.8l21.6-3.7c5.6-.5 8.1-3.8 7.7-10.1v-.6c-.2-1.5-.5-3.2-1-5l-.1-.7-.1-.4.4-6 .2-2.9.3-3.7.3-5.5.2-2.6.1-3.4.3-4.2.2-4 .1-3 .2-3.8v-2.8l.1-2.8.1-2.6v-2.6l.1-1.8v-11.4l-.1-1.3v-1.3l-.1-1.7-.1-1.2v-2.6l.4-3 .3-3.2.4-3.4.4-3.7.4-3.2.3-2.6.6-5 .5-3.7.8-5.4.5-4 .9-6 .7-4.5 1-7.4.8-4.8v4.4l.1.8.1.8v.8l.2.9.1 1.3.1 1 .1.9.1 1 .2.9.1 1 .2 1 .2 1 .1 1.1.2 1.1.2 1.2.3 1.7.4 1.8.3 1.8.4 1.9.4 2 .3 1.2.6 2.8.4 2 .5 2.2.5 2.2.6 2.3.7 3 .6 2.4.4 1.7v5l.1 1.4v1.5l.2 1.6v2.3l.2 2 .2 2.6.2 3 .2 4 .3 3.4.2 2.7.5 5.7.4 5.2.6 7.8.6 6 .5 6.4.6 6.6.7 7 1 12 .5 4.6c0 .5-.4 1.4-1.2 2.6l-.3.4-.4.5-.4.5-.6.9-2.3 2.9-.7.9-.4.6-.5.6-.4.6-.4.6c-2 2.7-3.2 5.2-2.4 6.7 2 3.7 6.2 4.3 10.8 3.3l.6-.2 2.8-.8.7-.3.6-.2.6-.3-.4-.2.6-.3.6-.3.6-.3.6-.3.6-.3.2-.1.6-.3.3-.2.5-.3.3-.2.5-.3.2-.1.5-.4.3-.1.4-.3-.5-.4.4-.3.4-.3.2-.1.4-.4.3-.3c1.3-1 2-3.6 2-7.4V416.7l-.1-.4v-.8l-.1-.8v-.9l-.2-.9v-.4l-.1-1v-.4l.2-2.5.2-2.5.2-2.5.2-2.4.1-2.4.2-2.4.2-2.3.1-2.4.2-2.3v-2.3l.2-2.2.1-2.3.1-2.2.1-2.2V376l.2-2.1v-5.2l.1-2.2v-14.8l-.1-1.8V348l-.2-1.8v-1.8l-.1-1.8v-.9l-.2-1.7-.1-1.8-.1-1.7-.2-1.7-.1-1.6-.2-1.7v-.8l-.3-1.6c-.3-3.1-.7-6.2-1.2-9l-.3-1.5-.8-4.2.2-1 .1-1.5.1-1 .1-1.1.1-1.1.1-1.2v-1.1l.2-1.2v-1.8l.1-1.2.1-1.2v-1.3l.1-1.3v-2l.1-2v-3.6l.1-1.5V276l-.1-2.6v-1.7l-.1-2.6v-1.8l-.2-3.7.9-3.7-.2-2.9v-3l-.2-2.9-.2-3-.2-4.2-.2-3.1-.2-3.2-.1-2.2-.2-1.1v-.8l-2-25a160 160 0 0 1-2.2-36c.8-9.7 3.2-18.9 7.2-27.5l2.7 3.8 3.2 4.5 2 2.7 1.2 1.7 1.8 2.5 1.9 2.5 1.5 2 1.4 1.9 1 1.4 1 1.2.7.9.5.6.5.6.6.7.4.4.5.6.3.3.3.3.2.2v.1l-1.8 7-.7 3-.6 2.3-.6 2.5-.6 2.5-.4 1.7-.4 1.8-.4 1.7-.4 1.9-.3 1.7-.4 1.6-.2.8-.3 1.7-.1.8-.3 1.5a135.6 135.6 0 0 0-1.5 8.1v.4l-.1.8v.7l-.1.6v1l-.1 1.2v2l-.1 3.5c3-.2 6.4 0 10.3.4.7-.8 1.6-2.4 2.4-4.7l.4-.8.1-.5.3-.9.4-1 .1-.4.3-1 .4-1.1.3-1.1.3-1.1.4-1.2.3-1.2.1-.6.4-1.2.5-1.9.3-1.3.3-1.2.3-1.3.3-1.4.3-1.3.3-1.3.3-1.3.3-1.3.4-2 .4-2 .2-1.2.2-1.3.3-1.3.3-1.8.2-1.2.2-1.2.1-1.1.2-1.1.1-1 .2-1.1v-1l.2-1v-.4l.1-.9v-.8l.1-1.8c0-3.7-3-10.3-7.4-17.7l-.8-1.3-.8-1.3-.8-1.4-.9-1.3-.8-1.4-.5-.6-.9-1.4-.9-1.3-.9-1.4-.4-.7-1-1.3-.9-1.3-.9-1.3-.5-.7-.9-1.3-.9-1.2-1-1.3c0-.2-.2-.4-.4-.6l-.9-1.2-.9-1.2-.8-1.1-.9-1.1-.8-1-.8-1.1-.5-.5-.7-1-.8-1-.7-.8-1-1.2-.7-.7c-1-1.2-2-2.1-2.7-2.8l-.2-.1-1.5-1.3-.6-.5-.4-.3-.5-.4-.4-.3-.5-.4-.3-.1-.4-.4-.6-.3-.2-.2-.6-.3c-1.4-1-3.2-1.9-5.3-2.7l-.8-.4-3.7-1.3-1-.3-2.2-.6-1.7-.5-2.5-.7h-.2l-.2-.2h-.1l-.2-.3a5.5 5.5 0 0 1-1.2-1.3v-.2l-.1-.2v-.2l-.1-.3-.2-.5-.1-.6-.2-.8-.1-.8-.2-1A23 23 0 0 0 772 92l.2-.7v-.4l.2-.7.2-.6.1-.6v-.2l.1-.5v-.5l.2-.6.1-1.3.1-1.2.2-1.2h.6c.2-4.8-.2-8.6-1-11.6l-.1-.3-.1-.3-.1-.4-.2-.3-.1-.4V70l-.3-.3v-.2l-.2-.3-.2-.4-.2-.4-.2-.3-.3-.4-.2-.3c-2.4-3.2-6.7-6-14.6-5.4ZM1205.3 36c7 .5 11 4.5 13 9l.2.5.1.3.2.5.5 1.5.1.5.1.5.2.5v.5l.1.5.1.5v.5l.1.4v1.4l.1.4s0 .2.3.3h.1l.3.2-1.2 7.7h-1.6c-.5 2.9-1.3 6.3-2.5 10.4-1 3.2-3.6 5.1-7.8 5.8a34.3 34.3 0 0 0 0 6.8h.1l.1.1.3.1.4.2 2 .9.8.3.8.4 1 .4.7.4.7.4.6.2.5.3.9.5.5.3.6.4.6.3.7.4.6.4.7.4.3.3.7.4.6.5.4.2.7.5.3.3.7.5.8.5.7.6.7.6.8.6.7.6.8.7.8.7.4.3c.5.5 1 1.2 1.6 2.2l.3.5.3.5.1.2.3.6.4.6.3.7.3.7.3.7.4.8.3.8.4.8.2.5.6 1.3.3 1 .4 1 .4 1 .5 1.1.4 1.2.4 1.1.7 1.9.6 1.9 1 2.6.7 2.1.7 2.2 1 3.1 1.1 3.3.8 2.5.8 2.6.9 2.7.8 2.8 1.2 3.8 1.2 4 1.3 4.2.6 2.2.1.2.1.3.2.4.2.6.3.7.5 1 .6 1.2 1 2 1.3 2.4 2.3 4.5 2.8 5.4 3.4 6.3 3.4 6.5 5.6 10.4.4.8c0 3.2-2.3 4.4-7.1 3.7l-.6-.1-1.2-.3-.7-.2-.7-.1-.3-.1-.7-.2-.4-.1-.7-.3h-.4l-.8-.3-.8-.3a77 77 0 0 1-.8-.3l-.2-.2-.1-.2-.3-.4-.2-.3-.3-.5-.4-.6-.6-1-.4-.7-.5-.8-.3-.5-.9-1.6-1-2-1.7-2.9-2-3.9-1.4-2.5-1.3-2.5-1.9-3.5-2-4-1.7-3.3-1.5-3-1.2-2.3-.5-1-.3-.7-.2-.5-.2-.4-.1-.5-.2-.5-.4-1.2-.6-1.8-.8-2.4-1-3.2-1.4-5.2-2-7.1-2.3-8-2.3-8.3.2 4 .3 4.6.2 3.6.3 5.2.3 3.4.3 4.2.3 3.9.3 4 .3 3.4.3 2.8.3 3.6.4 3.8.2 2.2.3 2.9.2 3.2.4 4.8.4 6 .5 7.6.5 7.7v3.2l.3 8.4.2 11.3.4 16.5-2.4 33.3.4 27-.2 5-.6 13.2-1.2 24.1-1.4 28.7c.1.8.7 1.6 1.4 2.4l.6.6.8.8.5.5.4.5.5.5.3.4.4.5.6.5.6.6.6.7 1 1 1 1 1.2 1.1 1.3 1.2 2.1 2 2 1.8 2.1 2c1.5 3 .4 4.7-3.4 5.2h-.8l-21.6-3.7c-5.6-.5-8.1-3.8-7.7-10.1v-.6c.1-1.5.4-3.2.9-5l.2-.7.1-.4-.4-6-.2-2.9-.3-3.7-.3-5.5-.2-2.6-.2-3.4-.2-4.2-.2-4-.1-3-.2-3.8v-2.8l-.2-2.8v-5.2l-.1-1.8V314.2l.1-1.3.1-1.7V310l.1-.8-.1-1.8-.3-3-.3-3.2-.4-3.4-.4-3.7-.4-3.2-.3-2.6-.7-5-.5-3.7-.7-5.4-.6-4-.8-6-.7-4.5-1-7.4-.8-4.8v3.7l-.1.7v.8l-.1.8-.1.8v.9l-.2 1.3-.1 1-.1.9-.2 1-.1.9-.2 1-.1 1-.2 1-.2 1.1-.1 1.1-.2 1.2-.3 1.7-.4 1.8-.3 1.8-.4 1.9-.4 2-.3 1.2-.6 2.8-.5 2-.5 2.2-.5 2.2-.5 2.3-.8 3-.5 2.4-.4 1.7v5l-.1 1.4-.1 1.5v1.6l-.2 2.3-.1 2-.2 2.6-.2 3-.3 4-.2 3.4-.2 2.7-.5 5.7-.4 5.2-.7 7.8-.5 6-.5 6.4-.6 6.6-.7 7-1 12-.5 4.6c-.1.5.4 1.4 1.2 2.6l.3.4.3.5.4.5.7.9 2.2 2.9.7.9.5.6.5.6.4.6.4.6c1.9 2.7 3.2 5.2 2.4 6.7-2 3.7-6.2 4.3-10.8 3.3l-.7-.2-2.8-.8-.6-.3-.6-.2-.6-.3.4-.2-.6-.3-.6-.3-.6-.3-.6-.3-.6-.3-.3-.1-.5-.3-.3-.2-.5-.3-.3-.2-.5-.3-.3-.1-.5-.4-.2-.1-.5-.3.6-.4c-.2 0-.3-.2-.4-.3l-.4-.3-.2-.1-.4-.4-.4-.3c-1.2-1-1.8-3.6-1.9-7.4V390.3l.1-.8v-.8l.1-.9.1-.9v-.4l.2-1v-.4l-.2-2.5-.2-2.5-.2-2.5-.2-2.4-.2-2.4-.1-2.4-.2-2.3-.1-2.4-.2-2.3-.1-2.3-.1-2.2-.1-2.3-.1-2.2-.1-2.2-.1-2.2V348l-.1-1v-2.2l-.1-2v-17l.1-1.8V322l.1-1.8.1-1.8.1-1.8v-.9l.2-1.7v-1.8l.2-1.7.2-1.7.1-1.6.2-1.7v-.8l.2-1.6 1.3-9 .2-1.5.8-4.2v-1l-.2-1.5-.1-1-.1-1.1-.1-1.1-.1-1.2-.1-1.1v-1.2l-.2-1.8v-1.2l-.1-1.2v-1.3l-.1-1.3-.1-2v-4.2l-.1-1.4V247.4l.1-1.7.1-2.6v-1.8l.2-3.7-.9-3.7.1-2.9.2-3 .1-2.9.2-3 .2-4.2.2-3.1.2-3.2.1-2.2.1-1.1v-.8l2-25a160 160 0 0 0 2.2-36 78.6 78.6 0 0 0-7.2-27.5l-2.6 3.8-3.2 4.5-2 2.7-1.2 1.7-1.8 2.5-2 2.5-1.4 2-1.4 1.9-1 1.4-1 1.2-.8.9-.5.6-.4.6-.6.7-.4.4-.5.6-.3.3-.3.3-.2.2v.1l1.8 7 .7 3 .6 2.3.6 2.5.6 2.5.4 1.7.4 1.8.4 1.7.4 1.9.3 1.7.4 1.6.1.8.4 1.7.1.8.3 1.5a135.6 135.6 0 0 1 1.5 8.1v.4l.1.8V191l.1 1v1.2l.2 2v3.5c-3-.2-6.4 0-10.3.4-.8-.8-1.6-2.4-2.5-4.7l-.3-.8-.1-.5-.4-.9-.3-1-.1-.4-.4-1-.3-1.1-.3-1.1-.3-1.1-.4-1.2-.3-1.2-.2-.6-.3-1.2-.5-1.9-.3-1.3-.3-1.2-.3-1.3-.3-1.4-.3-1.3-.3-1.3-.3-1.3-.3-1.3-.4-2-.4-2-.2-1.2-.3-1.3-.2-1.3-.3-1.8-.2-1.2-.2-1.2-.2-1.1-.1-1.1-.2-1-.1-1.1-.1-1-.1-1v-.4l-.1-.9v-.8l-.1-1.8c0-3.7 3-10.3 7.4-17.7l.8-1.3.8-1.3.8-1.4.9-1.3.8-1.4.5-.6.8-1.4 1-1.3.8-1.4.5-.7 1-1.3.8-1.3 1-1.3.4-.7 1-1.3.9-1.2.9-1.3.4-.6 1-1.2.8-1.2.9-1.1.9-1.1.8-1 .8-1.1.4-.5.8-1 .8-1 .7-.8 1-1.2.7-.7c1-1.2 2-2.1 2.7-2.8l.2-.1 1.4-1.3.7-.5.4-.3.5-.4.4-.3.5-.4.2-.1.5-.4.5-.3.3-.2.5-.3c1.5-1 3.2-1.9 5.4-2.7l.8-.4 3.7-1.3 1-.3 2.2-.6 1.7-.5 2.5-.7h.2l.2-.2.3-.3a5.5 5.5 0 0 0 1.1-1.3l.1-.2V81l.1-.2.1-.3.2-.5.1-.6.1-.8.2-.8.2-1a23 23 0 0 1-5.6-10.8l-.2-.7-.1-.4-.2-.7-.1-.6-.1-.6v-.2l-.2-.5v-1.1l-.2-1.3-.2-1.2v-1.2h-.7c-.2-4.8.1-8.6 1-11.6v-.3l.2-.3.1-.4.2-.3.1-.4V44l.2-.3.1-.2.2-.3.2-.4.2-.4.2-.3.2-.4.3-.3c2.4-3.2 6.7-6 14.6-5.4Z" fill="#090F29"/><g transform="rotate(-4 3330 -15237)"><ellipse fill="#090F29" cx="113.1" cy="144.1" rx="13.5" ry="20"/><rect fill="#090F29" x="128.6" y="166.9" width="15" height="6" rx="3"/><path stroke="#090F29" stroke-width="4" d="m116.3 143.3 15.8 26.3"/><use stroke="#090F29" stroke-width="10.2" xlink:href="#b"/><ellipse stroke="#47210C" stroke-width="10" stroke-linejoin="square" cx="50" cy="136.6" rx="45" ry="68"/><ellipse fill="#090F29" cx="50.5" cy="136.7" rx="9.5" ry="14"/><ellipse fill="#090F29" cx="43.4" cy="137.2" rx="9.5" ry="14"/><ellipse fill="#090F29" cx="192.4" cy="136.6" rx="5" ry="7"/><ellipse fill="#090F29" cx="208.5" cy="135.7" rx="5" ry="7"/><ellipse fill="#090F29" cx="54" cy="151" rx="5" ry="7"/><use stroke="#090F29" stroke-width="10.2" xlink:href="#c"/><ellipse stroke="#47210C" stroke-width="10" stroke-linejoin="square" cx="200.3" cy="137.1" rx="45" ry="68"/><path d="m170.8 32.7-4.2-15 29.9 2c4 2.1 6.6 4.6 7.8 7.4 5.1 12.6-3.9 19.8-17.5 18.9M89.4 32.9l-6-30" stroke="#090F29" stroke-width="7" stroke-linecap="round" stroke-linejoin="round"/><path d="m93.6 47.7-7.5 21.9m-8.9 26L65 131.2l3.8 10.7 45.2-1.2" stroke="#090F29" stroke-width="4.8" stroke-linecap="round" stroke-linejoin="round"/><path stroke="#EF9C53" stroke-width="7" stroke-linecap="round" stroke-linejoin="round" d="m93.6 47.7-52.5 81.8 3.8 10.7 69.1.5"/><path stroke="#EF9C53" stroke-width="7" stroke-linecap="round" stroke-linejoin="round" d="M89.6 33.3h81.2l4.8 17.8-62.9 90.2z"/><path d="m175.4 50.2 12.6 13m4.4 15.2 17 58.4" stroke="#090F29" stroke-width="7" stroke-linecap="round" stroke-linejoin="round"/><path stroke="#EF9C53" stroke-width="7" stroke-linecap="round" stroke-linejoin="round" d="M175.4 50.2 171 62l21.4 73.6"/><path d="M69.8 5c-1 1.9-1.1 3.3-.2 4.3.9 1 3.3 1.4 7 1.3h24.2l-10-3C88.7 6.8 87 3 82.5 2.7A75 75 0 0 0 69.8 5Z" stroke="#090F29" stroke-width="7" fill="#090F29" stroke-linecap="round" stroke-linejoin="round"/><path stroke="#090F29" stroke-width="4" d="m208.5 135.7-15.6.9"/><rect fill="#090F29" x="88.9" y="133.4" width="15" height="6" rx="3"/><path d="m170.8 32.7-4.2-15-27-1.2c1.7 8 2 13.4 1.1 16.3-2 6.2-5.8 11-15 12.5" stroke="#090F29" stroke-width="7" stroke-linecap="round" stroke-linejoin="round"/></g><g transform="scale(-1 1) rotate(-4 2782 12775.1)"><ellipse fill="#090F29" cx="113.1" cy="144.1" rx="13.5" ry="20"/><rect fill="#090F29" x="128.6" y="166.9" width="15" height="6" rx="3"/><path stroke="#090F29" stroke-width="4" d="m116.3 143.3 15.8 26.3"/><use stroke="#090F29" stroke-width="10.2" xlink:href="#d"/><ellipse stroke="#47210C" stroke-width="10" stroke-linejoin="square" cx="50" cy="136.6" rx="45" ry="68"/><ellipse fill="#090F29" cx="50.5" cy="136.7" rx="9.5" ry="14"/><ellipse fill="#090F29" cx="43.4" cy="137.2" rx="9.5" ry="14"/><ellipse fill="#090F29" cx="192.4" cy="136.6" rx="5" ry="7"/><ellipse fill="#090F29" cx="208.5" cy="135.7" rx="5" ry="7"/><ellipse fill="#090F29" cx="54" cy="151" rx="5" ry="7"/><use stroke="#090F29" stroke-width="10.2" xlink:href="#e"/><ellipse stroke="#47210C" stroke-width="10" stroke-linejoin="square" cx="200.3" cy="137.1" rx="45" ry="68"/><path d="m170.8 32.7-4.2-15 29.9 2c4 2.1 6.6 4.6 7.8 7.4 5.1 12.6-3.9 19.8-17.5 18.9M89.4 32.9l-6-30" stroke="#090F29" stroke-width="7" stroke-linecap="round" stroke-linejoin="round"/><path d="m93.6 47.7-7.5 21.9m-8.9 26L65 131.2l3.8 10.7 45.2-1.2" stroke="#090F29" stroke-width="4.8" stroke-linecap="round" stroke-linejoin="round"/><path stroke="#24B0A4" stroke-width="7" stroke-linecap="round" stroke-linejoin="round" d="m92.8 47.7-51.7 81.8 3.8 10.7 69.1.5"/><path stroke="#24B0A4" stroke-width="7" stroke-linecap="round" stroke-linejoin="round" d="M89.6 33.3h81.2l4.8 17.8-62.9 90.2z"/><path stroke="#090F29" stroke-width="4" d="m208.5 135.7-15.6.9"/><path d="m175.4 50.2 12.6 13m4.4 15.2 17 58.4" stroke="#090F29" stroke-width="7" stroke-linecap="round" stroke-linejoin="round"/><path stroke="#24B0A4" stroke-width="7" stroke-linecap="round" stroke-linejoin="round" d="M175.4 50.2 171 62l21.4 73.6"/><path d="M69.8 5c-1 1.9-1.1 3.3-.2 4.3.9 1 3.3 1.4 7 1.3h24.2l-10-3C88.7 6.8 87 3 82.5 2.7A75 75 0 0 0 69.8 5Z" stroke="#090F29" stroke-width="7" fill="#090F29" stroke-linecap="round" stroke-linejoin="round"/><rect fill="#090F29" x="88.9" y="133.4" width="15" height="6" rx="3"/><path d="m170.8 32.7-4.2-15-27-1.2c1.7 8 2 13.4 1.1 16.3-2 6.2-5.8 11-15 12.5" stroke="#090F29" stroke-width="7" stroke-linecap="round" stroke-linejoin="round"/></g><path d="M326.1 404.3c-1.9-43.2 6-69.6 23.6-79.2 8.9-4.8 29.8 13.2 41.5 10.5 70.1-16.4 17.1 12.6 66.7 12.6 15 0 29.9-13 41-12.6 8.8.3 18.6 5.4 29.4 15.3 3.1 8.3 5 14.1 5.6 17.4C536.2 381 535 388 535 388l-208.9 16.4Z" fill="#F7BF7F"/><path d="M2154.3 314.8c-1.6 80.8-35.8 131.4-102.5 151.6-100 30.3-25.8-42.7-96.5-42.7-47.2 0-80.6-1.6-100.3-4.9l-9.7-68.2s9-80.8 136.6-95.6c23-2.7 80.5 17.3 172.4 59.8Z" fill="#EFAD61"/><path fill="#090F29" d="m1737.9 315.8 7.2-28.5 9.6-8.3-7.9 1.5 14-55.3 9.3-9.4-7.5 2.4 17.7-69.6 26.3 94-7.8-2.7 9.9 10.4 21.7 77.3-42.2-5.1 2.1 21h-15.4l1-23.3z"/><path fill="#090F29" d="m1793.9 345.3 41.7-133.8 49.3 143.3-41.5-4.1 2 16.8h-15.1l1-18.6z"/><path fill="#090F29" d="m1836.4 318.3 35.6-123.5 10.1-9.9-7.7 1.9 17.9-62.3 22.1 69.5-8.9-2.9 11.8 11.9 17.9 56.3-10-3.9 13.1 13.7 20.1 63-55.7-6 2.8 24.4h-20.3l1.3-27zM1675.5 361.3l10.2-356.2 2.8-5.1 2.7 2.4-5.9 359.9z"/><g transform="rotate(2 -1385.8 47807.4)"><ellipse fill="#090F29" cx="18" cy="47" rx="13" ry="47"/><ellipse fill="#EFAD61" cx="13" cy="47" rx="13" ry="47"/><ellipse fill="#090F29" cx="13" cy="47" rx="8.2" ry="36"/></g><g fill="#090F29"><path d="m1663.6 29.5 41.6-17 11 13-8.7 17.4-45.2 17.3z"/><path d="m1666.6 30.5 38.6-18 3 1 11 13-8.7 17.4-45.2 17.3-2.3-1z"/></g><path d="M977.4 7.2c15.8 0 21 11.9 21 18.6 0 2-.7 3.6-2.2 4.6a104 104 0 0 1-5 20.3c-1 3.5-3 4.9-5.9 4.3-1.3 0-2.2 1.9-2.6 5.4-1.2.6 11 2.8 24.8 15.3 4 3.6 10.9 23.4 20.5 59.3.5 2 7.8 17.6 22 47 .1 5.1-5.3 5.6-16.1 1.6-1.5-1.5-6.2-11-10.7-20.7l-.6-1.2-9-19.7c-1.2-3-4.3-13.1-9-30.5l-.3-.7c.1.5 1.6 13.3 4.2 38v.8c.7 7 1.6 19.5 2.7 37.7.4 10.2-.7 45.5-3.2 106-.2 6.5-1.4 31.8-3.7 75.7.3 1.8 2.2 3 4.2 5.4l2.8 3 .4.4c2.6 2.6 6.3 6 11.2 10.5 1.7 3.3.2 5.2-4.5 5.6l-26.2-4c-7.8-.6-10-6.6-7-17.9a899.9 899.9 0 0 1-2.7-59.4v-1.2c0-5.2.1-9.6.4-13.3-.8-9.9-2.5-24-5.1-42.2l-.4-2.7-3-20.8c.2 9.3-2.8 26.4-9 51.3.3 8.3-2.2 40.6-7.5 96.7-.4 2.7 12.8 14.8 10.7 19-4.6 8.9-21.4.8-27.4-4.5-2-1.9-2.6-7.2-1.5-16-4-44.5-3.5-78.8 1.5-103a562.7 562.7 0 0 1-.5-85.2v-27.4l-2-67.4a279.8 279.8 0 0 1-22 30.3c0 .5 7.1 27 9 41.8.7.8.8 5.3 1 10.1v2.4a60 60 0 0 0-11 .3c-4.6-4.6-16.8-43-16.8-54.6 0-11.6 29.4-51.1 36.6-57.2a77 77 0 0 1 28-11.5s1.5-1 2.2-3.4c.2-.5 0-1.3-.4-2.6-3.9-1.5-5-16.4-5.3-23.2-2-3.2-2.6-6.1-1.9-8.7l.3-.7v-.3c1.5-4.8 4.2-11.4 19-11.4Z" fill="#090F29"/><rect fill="#090F29" x="974" y="345" width="23" height="6" rx="3"/><path stroke="#090F29" stroke-width="4" d="m959.5 320.3 17.8 27.7"/><g transform="rotate(-3 3844.6 -14813.8)"><circle fill="#090F29" cx="168.5" cy="148.1" r="20.4"/><use stroke="#090F29" stroke-width="10.2" xlink:href="#f"/><ellipse stroke="#FFF" stroke-width="14" stroke-linejoin="square" cx="75" cy="140.9" rx="68" ry="68.1"/><circle fill="#D8D8D8" cx="75" cy="140.9" r="14.4"/><circle fill="#090F29" cx="75" cy="140.9" r="14.4"/><circle fill="#090F29" cx="298" cy="140.9" r="7"/><circle fill="#090F29" cx="79.8" cy="155.3" r="7.2"/><use stroke="#090F29" stroke-width="10.2" xlink:href="#g"/><ellipse stroke="#FFF" stroke-width="14" stroke-linejoin="square" cx="298" cy="140.9" rx="68" ry="68.1"/><path d="m254.3 34-6.4-15.4H298c0 15-6 25.3-18.2 30.7M133.4 34 123.3 3.2" stroke="#090F29" stroke-width="7.2" stroke-linecap="round" stroke-linejoin="round"/><path stroke="#E66200" stroke-width="7.2" stroke-linecap="round" stroke-linejoin="round" d="m137.7 49.3-65.8 85 5.7 11h90.2M133.4 34h121.1l7.1 18.3-93.8 93zM261.6 52.3l36.4 88.6"/><path stroke="#090F29" stroke-width="7.2" stroke-linecap="round" stroke-linejoin="round" d="m100.7 0 9.1 6.3 40.1-3.1z"/></g><path stroke="#090F29" stroke-width="2" d="m957.3 300.1-93.8 4.9M956.4 340.1h-87.1"/><path d="m513.6 399.7 42.4-3.1c3.5-10.4 1.6-17.4-5.6-21-10.8-5.3-7.5 1.5-21.4-3-14-4.5-13.8-10.3-18.6-5.2-4.8 5.2-6.3 3.7-3.2 10.7 3.2 7 7.8 10 7.8 14.2 0 4.3-1.4 7.4-1.4 7.4ZM482 404.3c5 0 11 1.3 13.3 0 2.3-1.3 7.6-4.2 0-5.9-7.5-1.6-11.3-2.8-11.3 0s-7.1 6-2 6Z" fill="#090F29"/><path d="M1375.3 346.8c-9-20.7-10.6-33.9-5-39.6 2.8-2.8 9.5 7.8 13.2 6.2 22.3-9.7 5.5 7.5 21.2 7.5 4.8 0 9.5-7.7 13-7.5 2.9.2 6 3.2 9.4 9 1 5 1.6 8.4 1.8 10.4.7 7.4-3.7 11.5-3.7 11.5l-49.9 2.5Z" fill="#F7BF7F"/><path d="m1426.3 354.2 28.9-1.4c4-9.2 4-13.9 0-13.9-6.1 0-10.9-4.2-13-4.2-2 0-3.5-1.4-3.5 1.4s-2.8-.2-6.2 2.8c-3.4 3.1-6.2 1.3-6.2 5.8v9.5Z" fill="#090F29"/><path d="M938.8 96c5.8 3.1 8.4 7.3 8 12.5l-6 68.8-2-81.4ZM730.5 85l10.9-5.5c.6-11 5.7-17 15.4-17.6 4 2.8 3.5 4.1-1.8 4.1-7.9 0-11 13-7.3 13.1 17.6.4-.1 1-.6 1.4a43 43 0 0 1-16 5.4c-.4-.2-.6-.5-.6-1ZM1004.3 110.8l15 31.7 22.7 38.9-9.8.6-6.6-13.6c-7-14-10.8-23-12.4-27.3-2.1-5.5-5-15.6-8.9-30.3Z" fill="#EF9C53"/><path d="M766.8 85c1-6.8 5.4-9.5 13.3-8.3 11.7 1.9 3.5 19.8 7.8 24.3s2.6 11-.4 8.2c-3-2.7-7.3-8.3-5.9-13.3.4-1.3-.1-2.6-1.5-4s-5.9-3.7-13.3-7Z" fill="#562205"/><path d="M760.5 84.8c1-6.8 5.4-9.6 13.3-8.3 11.7 1.9 9.5 19.8 13.8 24.3 4.3 4.4-6.9 6-10 3.3-3-2.7-3.7-3.4-2.3-8.4.4-1.3-.1-2.6-1.5-4s-5.9-3.7-13.3-7Z" fill="#090F29"/><path d="M961.3 30.3c-3-4-4-7.6-3.2-10.7 1.4-4.7 3.4-12.4 19.3-12.4 5.7 2.2-2.8.4-12 8.6-2.2 2-3.6 6.9-4 14.5Z" fill="#EF9C53"/></g><g fill="#090F29"><path d="M1294.7 1174.2c-73.1-11.4-105-19.9-95.3-25.5 14.4-8.5 65.8-57.6 108.5-51.8 42.8 5.9 28.7-25.6 70.2-14.2 41.4 11.4 77-3.4 99.7 13.8 22.7 17.2 10.4 13.2 58.4 24 47.9 10.7 63 11.6 70 28.2 4.7 11 8 17.6 10.3 19.7l-321.8 5.8ZM2576.9 1074.3s-10.5-8.9 31.2-17c41.6-8.2 66.7-16.6 84.6-21 18-4.3-.6-14.1 33.7-7.7 34.4 6.5 135.6 9.8 154.6 9.8s94.2-17.1 101.5-16.4c7.2.7 4.8-6.7 38.4 6.6 22.4 9 60.5 15.8 114.3 20.7l-86.8 36.3-478.3-11.3h6.8Z"/></g><path fill="#090F29" d="m-94.6 1200.6 4172.3-218.7 20.9 399.5-4172.3 218.7z"/></g></svg>