<?xml version="1.0" encoding="UTF-8"?>
<svg width="4000px" height="1282px" viewBox="0 0 4000 1282" version="1.1" xmlns="http://www.w3.org/2000/svg" xmlns:xlink="http://www.w3.org/1999/xlink">
    <title>header</title>
    <defs>
        <radialGradient cx="50%" cy="50%" fx="50%" fy="50%" r="42.3082942%" id="radialGradient-1">
            <stop stop-color="#FFFFFF" offset="0%"></stop>
            <stop stop-color="#FFFFFF" stop-opacity="0" offset="100%"></stop>
        </radialGradient>
    </defs>
    <g id="header" stroke="none" stroke-width="1" fill="none" fill-rule="evenodd">
        <rect fill="#FFF1E2" x="0" y="0" width="4000" height="1282"></rect>
        <path d="M2344.3125,509 C2714.95312,475.255208 2922.07812,454.690104 2965.6875,447.304688 C3031.10156,436.226563 3102.6875,381.484375 3102.6875,381.484375 C3102.6875,381.484375 3412.24978,333.289063 3389.67969,316.398438 C3367.10959,299.507813 3294.42188,265.210938 3281.17188,265.210938 C3267.92187,265.210938 3108.57031,285.3125 3073.39062,285.3125 C3038.21094,285.3125 2815.78906,228.0625 2880.89062,200.773438 C2945.99219,173.484375 3112.94531,149.890625 3227.15311,149.890625 C3341.36092,149.890625 3607.46875,98.6953125 3657.39844,98.6953125 C3707.32812,98.6953125 3940.09007,78.046875 4026.02957,25.15625 C4111.96908,-27.734375 4093.35937,-122.054688 3922.24219,-90.6328125 C3751.125,-59.2109375 3518.39844,-90.6328125 3524.17187,-90.6328125 C3529.94531,-90.6328125 3368.04688,-170.382812 3685.96094,-170.382812 C4003.875,-170.382812 4064.28266,-159.984375 4238.16451,-170.382812 C4412.04636,-180.78125 4323.77012,-289.195312 4123.00615,-289.195312 C3922.24219,-289.195312 2497.625,-245.242188 2475.99219,-245.242188 C2454.35937,-245.242188 2358.21094,-250.132813 2358.21094,-170.382812 C2358.21094,-117.216146 2353.57812,109.244792 2344.3125,509 Z" id="Path-27-Copy" fill="#FFFFFF" transform="translate(3337.699648, 109.902344) scale(-1, -1) translate(-3337.699648, -109.902344) "></path>
        <path d="M2002.41079,931.609375 L2153.17355,691 C2216.39547,786.333333 2248.00643,834 2248.00643,834 C2248.00643,834 2296.91314,760.856771 2394.72656,614.570312 L2569.14844,842.73291 L3174.85938,823.495117 L3285.22656,674.195312 L3522.66406,890.934405 L2842.33594,1003.03063 L2180.95832,1041.06113 L2002.41079,931.609375 Z" id="Path-22" fill="#FFE9D2"></path>
        <polygon id="Path-11" fill="#FFE9D2" points="1133.94531 1012.18607 1317.67969 791.773437 1391.60245 862.617426 1416.30078 823.495117 1451.80377 856.277452 1520.17578 725.71225 1623.12255 910.049693 1730.6553 846.565963 1837.01068 1006.89355"></polygon>
        <polygon id="Path-9" fill="#FBDDBD" points="2051.44531 1001 2254.64022 747.156594 2377.50028 874.078297 2730.20347 381 3002.87716 686.641842 3058.39573 615.451282 3420.44531 933.245585"></polygon>
        <polygon id="Path-8" fill="#FBDDBD" points="357.054688 1162.75781 755.479576 628.757812 888.51443 805.270302 958.79272 719.403154 1075.0283 878.578716 1139.77857 792.725948 1398.05469 1074.94374"></polygon>
        <polygon id="Rectangle-Copy" fill="#FBDDBD" points="1.30104261e-14 1063 4000 834 4000 1334 1.30104261e-14 1334"></polygon>
        <path d="M896.480469,1101.93555 C897.973333,1101.93555 901.933068,1101.98801 907.694833,1101.68339 C926.88437,1100.66888 966.062391,1095.69365 1000.66797,1071.62858 C1045.66406,1040.33784 1141.37891,1027.84361 1229.71875,1053.08767 C1318.05859,1078.33173 1425.125,1091.92975 1624.8125,997.457045 C1824.5,902.984345 2119.42187,899.990234 2405.21094,936.495117 C2691,973 2793.36719,967.5 2867.44531,973 C2916.83073,976.666667 2948.02344,984.188654 2961.02344,995.565963 L3049.67188,1109.73291 L837.273438,1175.17188 C872.434896,1126.34766 892.170573,1101.93555 896.480469,1101.93555 Z" id="Path-17" fill="#EEBC87"></path>
        <polygon id="Path-10" fill="#090F29" points="856.945312 1130.75781 899.3125 963.565963 949.398438 1142.60938"></polygon>
        <polygon id="Path-10-Copy-7" fill="#090F29" points="1151.94531 1115.75781 1194.3125 948.565963 1244.39844 1127.60938"></polygon>
        <polygon id="Path-10-Copy-8" fill="#090F29" points="1099.94531 1176.75781 1142.3125 1009.56596 1192.39844 1188.60938"></polygon>
        <polygon id="Path-10-Copy-9" fill="#090F29" points="1186.94531 1120.60702 1229.3125 993.609375 1279.39844 1129.60938"></polygon>
        <polygon id="Path-10-Copy-10" fill="#090F29" points="2386.94531 1041.60702 2429.3125 914.609375 2479.39844 1050.60938"></polygon>
        <polygon id="Path-10-Copy-11" fill="#090F29" points="2415.94531 1079.60702 2458.3125 952.609375 2508.39844 1088.60938"></polygon>
        <polygon id="Path-10-Copy" fill="#090F29" points="902.945312 1119.8647 930.631117 1010.60938 963.360915 1127.60938"></polygon>
        <polygon id="Path-10-Copy-4" fill="#090F29" points="2723.94531 1040.8647 2751.63112 931.609375 2784.36092 1048.60938"></polygon>
        <polygon id="Path-10-Copy-2" fill="#090F29" points="818.945312 1134.8647 846.631117 1025.60938 879.360915 1142.60938"></polygon>
        <circle id="Oval" fill="#FFFFFF" cx="1175" cy="669" r="86"></circle>
        <ellipse id="Oval" fill="#EF8B53" transform="translate(1667.000000, 1317.000000) rotate(-4.000000) translate(-1667.000000, -1317.000000) " cx="1667" cy="1317" rx="2331" ry="282"></ellipse>
        <ellipse id="Oval-Copy-8" fill="#C86832" transform="translate(1459.000000, 1346.000000) rotate(-4.000000) translate(-1459.000000, -1346.000000) " cx="1459" cy="1346" rx="2331" ry="282"></ellipse>
        <g id="Group-Copy" transform="translate(1780.230801, 1020.098063) scale(-1, 1) rotate(-4.000000) translate(-1780.230801, -1020.098063) translate(1655.064715, 914.874309)">
            <ellipse id="Oval-Copy-4" fill="#090F29" cx="113.136048" cy="144.381905" rx="13.5" ry="20"></ellipse>
            <ellipse id="Oval" stroke="#090F29" stroke-width="6.984" cx="50" cy="136.959677" rx="50" ry="73"></ellipse>
            <ellipse id="Oval-Copy-2" fill="#D8D8D8" cx="50.498782" cy="136.994555" rx="9.5" ry="14"></ellipse>
            <ellipse id="Oval-Copy-3" fill="#090F29" cx="50.498782" cy="136.994555" rx="9.5" ry="14"></ellipse>
            <ellipse id="Oval-Copy-6" fill="#090F29" cx="200.332172" cy="137.447508" rx="5" ry="7"></ellipse>
            <ellipse id="Oval-Copy-5" fill="#090F29" cx="54.0112296" cy="151.274356" rx="5" ry="7"></ellipse>
            <ellipse id="Oval-Copy" stroke="#090F29" stroke-width="6.984" cx="200.332172" cy="137.447508" rx="50" ry="73"></ellipse>
            <path d="M170.767326,32.989377 L166.57677,17.989377 L199.57677,17.989377 C199.57677,32.6709677 195.585177,42.6709677 187.601992,47.989377" id="Path-4" stroke="#090F29" stroke-width="6.984" stroke-linecap="round" stroke-linejoin="round"></path>
            <line x1="89.3723267" y1="33.2076084" x2="83.3723267" y2="3.20760841" id="Path-5" stroke="#090F29" stroke-width="6.984" stroke-linecap="round" stroke-linejoin="round"></line>
            <polyline id="Path" stroke="#090F29" stroke-width="4.85" stroke-linecap="round" stroke-linejoin="round" points="93.6341887 48.0561365 49.0347385 130.395361 52.8767666 141.056136 114.034739 141.056136"></polyline>
            <polygon id="Path-2" stroke="#090F29" stroke-width="6.984" stroke-linecap="round" stroke-linejoin="round" points="89.644166 33.6044159 170.833046 33.6044159 175.644166 51.4180506 112.674227 141.604416"></polygon>
            <line x1="175.369458" y1="50.4710283" x2="200.369458" y2="136.471028" id="Path-3" stroke="#090F29" stroke-width="6.984" stroke-linecap="round" stroke-linejoin="round"></line>
            <polygon id="Path-6" stroke="#090F29" stroke-width="6.984" stroke-linecap="round" stroke-linejoin="round" points="67.4271997 -3.40535345e-14 73.5372498 6 100.4272 3.07809171"></polygon>
        </g>
        <circle id="Oval-Copy-9" fill-opacity="0.6" fill="url(#radialGradient-1)" style="mix-blend-mode: overlay;" cx="1347" cy="1084" r="1210"></circle>
        <path d="M925.382812,1136.75781 C928.6522,1084.48355 939.102258,1052.80149 956.732987,1041.71163 C965.59623,1036.13658 986.52217,1056.95796 998.256043,1053.78003 C1068.37404,1034.78968 1015.3507,1068.44313 1064.95765,1068.44313 C1079.94843,1068.44313 1094.82098,1053.35879 1105.85896,1053.78003 C1114.73431,1054.11874 1124.55288,1060.03151 1135.31468,1071.51835 C1138.47527,1081.10468 1140.3604,1087.83041 1140.97009,1091.69554 C1143.27786,1106.32575 1142.06354,1114.30305 1142.06354,1114.30305 C1142.06354,1114.30305 1069.83663,1121.78797 925.382812,1136.75781 Z" id="Path-7" fill="#EFAD61"></path>
        <path d="M2882.38281,1102.76355 C2884.0751,1021.87241 2918.2521,971.328008 2984.91381,951.130337 C3084.90637,920.833831 3010.68254,993.776804 3081.42508,993.776804 C3128.58678,993.776804 3162.03126,995.412168 3181.75852,998.682897 C3188.17471,1044.18766 3191.38281,1066.94004 3191.38281,1066.94004 C3191.38281,1066.94004 3182.46432,1147.72765 3054.85938,1162.52137 C3031.84168,1165.18989 2974.34949,1145.27062 2882.38281,1102.76355 Z" id="Path-7-Copy" fill="#EFAD61" transform="translate(3036.882812, 1053.260684) scale(-1, -1) translate(-3036.882812, -1053.260684) "></path>
        <polygon id="Rectangle" fill="#090F29" points="1.30104261e-14 1202 4000 973 4000 1298 1.30104261e-14 1298"></polygon>
        <polygon id="Path-10-Copy-3" fill="#090F29" points="2765.94531 1014.75781 2808.3125 847.565963 2858.39844 1026.60937 2816.20384 1021.45683 2818.30078 1042.49512 2802.8917 1042.49512 2803.8917 1019.23759"></polygon>
        <polygon id="Path-10-Copy-5" fill="#090F29" points="2821.94531 1044.29721 2863.6466 910.495117 2912.94531 1053.7819 2871.41391 1049.65837 2873.47789 1066.49512 2858.31099 1066.49512 2859.29528 1047.88233"></polygon>
        <polygon id="Path-10-Copy-6" fill="#090F29" points="2864.44531 1017.33661 2920.35253 823.495117 2986.44531 1031.07726 2930.76584 1025.10342 2933.53294 1049.49512 2913.1993 1049.49512 2914.51889 1022.53044"></polygon>
        <polygon id="Path-12" fill="#090F29" points="2703.57422 1060.25781 2713.69475 696.078125 2719.57422 697.078125 2713.34628 1061.25781"></polygon>
        <ellipse id="Oval-Copy-7" fill="#EFAD61" cx="2710" cy="824" rx="19" ry="47"></ellipse>
        <ellipse id="Oval" fill="#090F29" cx="2710" cy="824" rx="12" ry="36"></ellipse>
        <polygon id="Path-13" fill="#090F29" points="2682.96094 704.443359 2746.07846 704.443359 2758.50977 724.529297 2746.07846 741.904297 2682.09961 735.191406"></polygon>
        <path d="M731.697266,1198.27148 C712.504557,1174.1852 707.70638,1157.59471 717.302734,1148.5 C731.697266,1134.85794 702.195312,1064.72807 744.939453,1074.08767 C787.683594,1083.44727 773.605469,1032.92729 815.050781,1051.22852 C856.496094,1069.52974 892.056641,1045.69282 914.796875,1073.34641 C937.537109,1101 925.204665,1094.63672 973.153114,1111.91602 C1021.10156,1129.19531 1036.29102,1130.66406 1043.22656,1157.21094 C1047.85026,1174.90885 1051.2793,1185.50065 1053.51367,1188.98633 L731.697266,1198.27148 Z" id="Path-14" fill="#090F29"></path>
        <polygon id="Path-15" fill="#090F29" points="2594.71289 950.876066 2587.70508 1097.93555 2599.90039 1094.38134 2599.90039 959.684107"></polygon>
        <polygon id="Path-15-Copy" fill="#090F29" points="2509.71289 954.876066 2502.70508 1101.93555 2514.90039 1098.38134 2514.90039 963.684107"></polygon>
        <path d="M2673.07227,944.207508 L2673.07227,1088.25781 C2681.08529,1082.92639 2685.0918,1080.26068 2685.0918,1080.26068 C2685.0918,1080.26068 2683.08854,1038.22833 2679.08203,954.163613 L2673.07227,944.207508 Z" id="Path-16" fill="#090F29"></path>
        <path d="M2418.07227,958.207508 L2418.07227,1102.25781 C2426.08529,1096.92639 2430.0918,1094.26068 2430.0918,1094.26068 C2430.0918,1094.26068 2428.08854,1052.22833 2424.08203,968.163613 L2418.07227,958.207508 Z" id="Path-16-Copy" fill="#090F29"></path>
        <path d="M1987.89258,716.010742 C1987.89258,713.744096 2016.63108,710.128197 2022.21127,712.892201 C2025.93139,714.73487 2026.68803,724.871726 2024.48117,743.302768 C2024.48117,745.253062 2022.11451,746.814167 2017.38119,747.986083 C2016.02446,748.071966 2015.15803,749.873325 2014.78188,753.39016 C2013.50995,754.034279 2038.63477,759.988281 2044.66248,765.334897 C2048.68096,768.899307 2052.5098,785.205029 2056.149,814.252061 C2056.61755,816.199094 2064.2924,837.124534 2079.17355,877.028382 C2079.25987,882.037833 2073.5027,881.234995 2061.90204,874.619866 C2058.14169,870.734497 2049.69694,847.462507 2036.56778,804.803896 C2036.56778,804.803896 2037.75546,829.254325 2040.13082,878.155182 C2040.48848,888.379551 2039.12143,923.782176 2036.02966,984.363057 C2035.81332,990.843382 2034.59466,1016.0586 2032.37367,1060.00871 C2033.12704,1064.49308 2039.31983,1070.90709 2050.95202,1079.25074 C2052.6501,1082.64908 2051.13954,1084.53035 2046.42035,1084.89453 C2046.42035,1084.89453 2037.68399,1083.5612 2020.21127,1080.89453 C2012.48184,1080.27596 2010.18719,1074.31145 2013.32732,1063.00101 C2011.47641,1037.53827 2010.53658,1017.74257 2010.50782,1003.61392 L2010.50756,1002.43344 C2010.51615,997.18199 2010.65649,992.750072 2010.92859,989.13769 C2010.10366,979.067839 2008.3553,964.656853 2005.68351,945.904733 L2005.43426,944.161438 C2004.51073,937.724148 2003.48141,930.789554 2002.34631,923.357655 C2002.61809,932.716676 1999.6296,949.827411 1993.38083,974.689858 C1993.70479,983.04438 1991.22779,1015.29435 1985.94982,1071.43978 C1985.53346,1074.08597 1998.78648,1086.24757 1996.64062,1090.35742 C1991.99523,1099.25452 1973.72462,1090.04519 1967.71065,1084.89453 C1967.39571,1084.6248 1967.23281,1083.32021 1967.22195,1080.98076 L1967.22195,1080.4636 C1967.23281,1077.97632 1967.39571,1074.45417 1967.71065,1069.89716 C1963.70352,1025.41545 1964.20251,991.099399 1969.20762,966.949016 C1967.03555,949.370276 1966.88879,920.652899 1968.76733,880.796885 L1968.74402,881.27991 L1968.7253,881.302759 C1968.09119,881.897671 1963.79307,878.740773 1955.83093,871.832064 L1955.47728,871.524834 C1954.70108,878.773754 1950.77099,878.87041 1943.68701,871.814801 C1939.18307,867.244003 1925.64802,826.339844 1925.64802,814.759203 C1925.64802,803.178562 1956.34644,766.085324 1963.58634,759.988281 C1968.41294,755.923586 1977.73021,752.084291 1991.53816,748.470396 C1991.53816,748.470396 1992.15184,746.466832 1993.3792,742.459706 C1989.50633,738.771106 1987.89258,718.277389 1987.89258,716.010742 Z M1966.80811,786.948242 C1954.8716,804.511719 1947.48643,814.605306 1944.6526,817.229004 C1944.65602,817.657715 1953.49512,843.453125 1955.47728,858.250488 C1961.44765,866.793266 1966.37106,859.113849 1968.10161,855.700372 L1968.22538,855.452679 C1968.57853,854.73552 1968.76733,854.260254 1968.76733,854.260254 C1968.76733,854.260254 1968.11426,831.822917 1966.80811,786.948242 Z M1988.53223,723.262695 L1987.56641,708.73291" id="Combined-Shape" fill="#090F29"></path>
        <path d="M1770.5833,774.729113 C1770.5833,772.528777 1798.47466,769.018658 1803.89036,771.701803 C1807.50083,773.490566 1808.23516,783.330874 1806.09336,801.222726 C1806.09336,803.115966 1803.79646,804.631402 1799.20266,805.769034 C1797.88593,805.852404 1797.04504,807.601065 1796.67998,811.015017 C1795.44554,811.640293 1819.82974,817.420115 1825.67978,822.610318 C1829.5798,826.070454 1833.29577,841.89916 1836.8277,870.096438 C1837.28244,871.986512 1844.73105,892.29979 1859.17355,931.036274 C1859.25733,935.899177 1853.66986,935.119825 1842.41116,928.698218 C1838.76165,924.926513 1830.56583,902.335332 1817.82369,860.924674 C1817.82369,860.924674 1818.97636,884.65982 1821.28169,932.13011 C1821.62881,942.055371 1820.30206,976.422312 1817.30142,1035.23093 C1817.09146,1041.52168 1815.90872,1065.99924 1813.75321,1108.66362 C1814.48437,1113.0168 1820.49461,1119.24317 1831.78391,1127.34274 C1833.43194,1130.64166 1831.96591,1132.46789 1827.38583,1132.82142 C1827.38583,1132.82142 1818.90699,1131.52709 1801.94932,1128.93843 C1794.44773,1128.33796 1792.22072,1122.54794 1795.26829,1111.56838 C1792.73822,1076.75451 1791.96221,1052.85368 1792.94027,1039.86589 C1791.84404,1026.4813 1789.06761,1005.19607 1784.61098,976.010211 C1784.87474,985.095439 1781.97434,1001.70561 1775.90977,1025.84072 C1776.22418,1033.95083 1773.82019,1065.25735 1768.69781,1119.76028 C1768.50669,1120.97524 1771.28331,1124.25656 1774.04276,1127.79991 L1774.51509,1128.40957 C1777.41984,1132.18082 1780.11478,1136.12968 1779.07348,1138.12449 C1774.56502,1146.76131 1756.83298,1137.82139 1750.99628,1132.82142 C1750.36313,1132.27903 1750.36313,1127.42615 1750.99628,1118.26278 C1747.10728,1075.08236 1747.59155,1041.77021 1752.44912,1018.32633 C1750.34108,1001.26185 1750.19865,973.384581 1752.02182,934.694532 L1751.99955,935.16391 L1751.97381,935.192065 C1751.33393,935.73944 1747.16786,932.675303 1739.4756,925.999655 L1739.12352,925.693729 C1738.3702,932.730586 1734.55596,932.824414 1727.6808,925.975213 C1723.30962,921.538131 1710.17355,881.8306 1710.17355,870.588744 C1710.17355,859.346888 1739.96705,823.338791 1746.99354,817.420115 C1751.67787,813.47433 1760.7205,809.747351 1774.12142,806.239178 C1774.12142,806.239178 1774.71701,804.294228 1775.90819,800.404328 C1772.55583,797.210737 1770.94756,781.040234 1770.639,776.020151 L1770.61452,775.595169 C1770.5936,775.202247 1770.5833,774.907519 1770.5833,774.729113 Z M1750.30489,842.73291 C1738.92016,859.783367 1731.87638,869.582126 1729.17355,872.129188 C1729.17564,872.395548 1732.62952,882.748617 1735.61164,893.934041 L1735.88971,894.984831 L1735.88971,894.984831 L1736.1643,896.038803 C1737.61821,901.665463 1738.89288,907.355612 1739.49785,911.952457 C1746.61583,922.319016 1752.17355,908.078775 1752.17355,908.078775 C1752.17355,908.078775 1751.55066,886.29682 1750.30489,842.73291 Z M1771.15646,781.73291 L1770.19064,767.73291" id="Combined-Shape-Copy" fill="#090F29" transform="translate(1784.673550, 954.732910) scale(-1, 1) translate(-1784.673550, -954.732910) "></path>
        <g id="Group-Copy-2" transform="translate(2235.788178, 972.369473) rotate(-4.000000) translate(-2235.788178, -972.369473) translate(2134.656527, 867.431698)">
            <ellipse id="Oval-Copy-4" fill="#090F29" cx="91.5955227" cy="143.998245" rx="11" ry="20"></ellipse>
            <ellipse id="Oval" stroke="#090F29" stroke-width="6.984" cx="40.5" cy="136.41553" rx="40.5" ry="73"></ellipse>
            <ellipse id="Oval-Copy-2" fill="#D8D8D8" cx="40.5" cy="136.41553" rx="7.5" ry="14"></ellipse>
            <ellipse id="Oval-Copy-3" fill="#090F29" cx="40.5" cy="136.41553" rx="7.5" ry="14"></ellipse>
            <ellipse id="Oval-Copy-6" fill="#090F29" cx="162.262084" cy="136.910429" rx="4" ry="7"></ellipse>
            <ellipse id="Oval-Copy-5" fill="#090F29" cx="43.0148835" cy="150.625575" rx="4" ry="7"></ellipse>
            <ellipse id="Oval-Copy" stroke="#090F29" stroke-width="6.984" cx="161.763302" cy="136.875551" rx="40.5" ry="73"></ellipse>
            <path d="M137.92801,32.6615681 L134.499374,17.6615681 L161.499374,17.6615681 C161.499374,32.3431588 158.233525,42.3431588 151.701828,47.6615681" id="Path-4" stroke="#090F29" stroke-width="6.984" stroke-linecap="round" stroke-linejoin="round"></path>
            <line x1="72.3196219" y1="33.1727302" x2="67.3196219" y2="3.17273018" id="Path-5" stroke="#090F29" stroke-width="6.984" stroke-linecap="round" stroke-linejoin="round"></line>
            <polyline id="Path" stroke="#090F29" stroke-width="4.85" stroke-linecap="round" stroke-linejoin="round" points="75.3465213 48.0561365 38.9808157 130.395361 42.1135463 141.056136 91.9808157 141.056136"></polyline>
            <polygon id="Path-2" stroke="#090F29" stroke-width="6.984" stroke-linecap="round" stroke-linejoin="round" points="72.6121668 32.9766076 138.696139 32.9766076 142.612167 50.7902424 91.3575654 140.976608"></polygon>
            <line x1="142.29328" y1="50.1083411" x2="162.29328" y2="136.108341" id="Path-3" stroke="#090F29" stroke-width="6.984" stroke-linecap="round" stroke-linejoin="round"></line>
            <polygon id="Path-6" stroke="#090F29" stroke-width="6.984" stroke-linecap="round" stroke-linejoin="round" points="54.3732769 -2.07228517e-14 59.3724088 6 81.3732769 3.07809171"></polygon>
        </g>
        <path d="M2218.5833,728.729113 C2218.5833,726.528777 2246.47466,723.018658 2251.89036,725.701803 C2255.50083,727.490566 2256.23516,737.330874 2254.09336,755.222726 C2254.09336,757.115966 2251.79646,758.631402 2247.20266,759.769034 C2245.88593,759.852404 2245.04504,761.601065 2244.67998,765.015017 C2243.44554,765.640293 2267.82974,771.420115 2273.67978,776.610318 C2277.5798,780.070454 2281.29577,795.89916 2284.8277,824.096438 C2285.28244,825.986512 2292.73105,846.29979 2307.17355,885.036274 C2307.25733,889.899177 2301.66986,889.119825 2290.41116,882.698218 C2286.76165,878.926513 2278.56583,856.335332 2265.82369,814.924674 C2265.82369,814.924674 2266.97636,838.65982 2269.28169,886.13011 C2269.62881,896.055371 2268.30206,930.422312 2265.30142,989.230934 C2265.09146,995.521681 2263.90872,1019.99924 2261.75321,1062.66362 C2262.48437,1067.0168 2268.49461,1073.24317 2279.78391,1081.34274 C2281.43194,1084.64166 2279.96591,1086.46789 2275.38583,1086.82142 C2275.38583,1086.82142 2266.90699,1085.52709 2249.94932,1082.93843 C2242.44773,1082.33796 2240.22072,1076.54794 2243.26829,1065.56838 C2240.73822,1030.75451 2239.96221,1006.85368 2240.94027,993.865888 C2239.84404,980.481297 2237.06761,959.196071 2232.61098,930.010211 C2232.87474,939.095439 2229.97434,955.705608 2223.90977,979.840719 C2224.22418,987.950834 2221.82019,1019.25735 2216.69781,1073.76028 C2216.50669,1074.97524 2219.28331,1078.25656 2222.04276,1081.79991 L2222.51509,1082.40957 C2225.41984,1086.18082 2228.11478,1090.12968 2227.07348,1092.12449 C2222.56502,1100.76131 2204.83298,1091.82139 2198.99628,1086.82142 C2198.36313,1086.27903 2198.36313,1081.42615 2198.99628,1072.26278 C2195.10728,1029.08236 2195.59155,995.770208 2200.44912,972.326331 C2198.34108,955.261847 2198.19865,927.384581 2200.02182,888.694532 L2199.99955,889.16391 L2199.97381,889.192065 C2199.33393,889.73944 2195.16786,886.675303 2187.4756,879.999655 L2187.12352,879.693729 C2186.3702,886.730586 2182.55596,886.824414 2175.6808,879.975213 C2171.30962,875.538131 2158.17355,835.8306 2158.17355,824.588744 C2158.17355,813.346888 2187.96705,777.338791 2194.99354,771.420115 C2199.67787,767.47433 2208.7205,763.747351 2222.12142,760.239178 C2222.12142,760.239178 2222.71701,758.294228 2223.90819,754.404328 C2220.55583,751.210737 2218.94756,735.040234 2218.639,730.020151 L2218.61452,729.595169 C2218.5936,729.202247 2218.5833,728.907519 2218.5833,728.729113 Z M2198.30489,796.73291 C2186.92016,813.783367 2179.87638,823.582126 2177.17355,826.129188 C2177.17564,826.395548 2180.62952,836.748617 2183.61164,847.934041 L2183.88971,848.984831 L2183.88971,848.984831 L2184.1643,850.038803 C2185.61821,855.665463 2186.89288,861.355612 2187.49785,865.952457 C2194.61583,876.319016 2200.17355,862.078775 2200.17355,862.078775 C2200.17355,862.078775 2199.55066,840.29682 2198.30489,796.73291 Z M2219.15646,735.73291 L2218.19064,721.73291" id="Combined-Shape-Copy-2" fill="#090F29"></path>
        <path d="M1988.53223,724.262695 C1984.75423,720.262044 1983.64876,716.699544 1985.21582,713.575195 C1987.56641,708.888672 1988.76563,701.165039 2005.32812,701.165039 C2021.89062,701.165039 2027.43506,713.081055 2027.43506,719.849609 C2027.43506,724.361979 2023.55094,726.269531 2015.78271,725.572266 L1988.53223,724.262695 Z" id="Path-21" fill="#090F29"></path>
        <path d="M1991.53816,748.470396 C1975.78241,752.827046 1965.75553,757.140462 1961.45752,761.410645 C1955.0105,767.815918 1924.16323,801.863691 1925.64802,813.205078 C1950.87812,777.414714 1972.8415,755.836486 1991.53816,748.470396 Z" id="Path-23" fill="#EFAD61"></path>
        <path d="M1967.12256,787.224121 C1972.56401,809.684429 1974.83303,824.887456 1973.92961,832.833204 C1973.02619,840.778952 1971.08968,849.575925 1968.1201,859.224121 L1967.12256,787.224121 Z" id="Path-24" fill="#EFAD61"></path>
        <path d="M2036.56778,804.803896 C2044.07728,810.791298 2051.00911,821.844947 2057.36328,837.964844 C2063.71745,854.084741 2067.71126,867.327129 2069.34473,877.692008 L2061.69531,874.632734 C2057.05134,864.811427 2053.20987,855.678153 2050.1709,847.23291 C2047.13192,838.787668 2042.59755,824.644663 2036.56778,804.803896 Z" id="Path-25" fill="#EFAD61"></path>
        <path d="M2002.41079,924.23291 C2014.71961,960.60933 2020.87402,981.321518 2020.87402,986.369473 C2020.87402,991.417429 2018.88477,1017.18369 2014.90625,1063.66827 C2015.43019,1059.76431 2014.78045,1052.22859 2012.95703,1041.06113 C2010.22191,1024.30994 2008.80141,986.058046 2010.22191,983.374023 C2011.16891,981.584675 2008.5652,961.87097 2002.41079,924.23291 Z" id="Path-26" fill="#EFAD61"></path>
        <g id="Group" transform="translate(2000.500000, 978.000000) rotate(-4.000000) translate(-2000.500000, -978.000000) translate(1814.000000, 870.000000)">
            <ellipse id="Oval-Copy-4" fill="#090F29" cx="168.509646" cy="148.10183" rx="20.3890675" ry="20.4295379"></ellipse>
            <ellipse id="Oval" stroke="#090F29" stroke-width="7.2" cx="74.9598071" cy="140.891405" rx="74.9598071" ry="75.1085952"></ellipse>
            <ellipse id="Oval-Copy-2" fill="#D8D8D8" cx="74.9598071" cy="140.891405" rx="14.392283" ry="14.4208503"></ellipse>
            <ellipse id="Oval-Copy-3" fill="#090F29" cx="74.9598071" cy="140.891405" rx="14.392283" ry="14.4208503"></ellipse>
            <ellipse id="Oval-Copy-6" fill="#090F29" cx="297.959807" cy="140.891405" rx="6.98613318" ry="7"></ellipse>
            <ellipse id="Oval-Copy-5" fill="#090F29" cx="79.7572347" cy="155.312255" rx="7.19614148" ry="7.21042514"></ellipse>
            <ellipse id="Oval-Copy" stroke="#090F29" stroke-width="7.2" cx="298.040193" cy="140.891405" rx="74.9598071" ry="75.1085952"></ellipse>
            <path d="M254.256638,33.9655177 L247.887983,18.6052232 L298.040193,18.6052232 C298.040193,33.6394603 291.973914,43.8796567 279.841357,49.3258122" id="Path-4" stroke="#090F29" stroke-width="7.2" stroke-linecap="round" stroke-linejoin="round"></path>
            <line x1="133.417915" y1="33.9754931" x2="123.264648" y2="3.1671769" id="Path-5" stroke="#090F29" stroke-width="7.2" stroke-linecap="round" stroke-linejoin="round"></line>
            <polyline id="Path" stroke="#090F29" stroke-width="5" stroke-linecap="round" stroke-linejoin="round" points="137.667199 49.3258122 71.8887975 134.284196 77.5552904 145.284084 167.755363 145.284084"></polyline>
            <polygon id="Path-2" stroke="#090F29" stroke-width="7.2" stroke-linecap="round" stroke-linejoin="round" points="133.417915 33.9754931 254.469219 33.9754931 261.642522 52.3348503 167.755363 145.284084"></polygon>
            <line x1="261.642522" y1="52.3348503" x2="298.040193" y2="140.891405" id="Path-3" stroke="#090F29" stroke-width="7.2" stroke-linecap="round" stroke-linejoin="round"></line>
            <polygon id="Path-6" stroke="#090F29" stroke-width="7.2" stroke-linecap="round" stroke-linejoin="round" points="100.66985 0 109.788593 6.33435379 149.919614 3.24962032"></polygon>
        </g>
        <path d="M1294.69727,1174.19942 C1221.55273,1162.82587 1189.77865,1154.30965 1199.375,1148.65074 C1213.76953,1140.16238 1265.19531,1091.10609 1307.93945,1096.92981 C1350.68359,1102.75354 1336.60547,1071.31902 1378.05078,1082.7064 C1419.49609,1094.09378 1455.05664,1079.26198 1477.79688,1096.46859 C1500.53711,1113.67519 1488.20467,1109.71583 1536.15311,1120.46735 C1584.10156,1131.21887 1599.29102,1132.13275 1606.22656,1148.65074 C1610.85026,1159.66273 1614.2793,1166.25315 1616.51367,1168.42201 L1294.69727,1174.19942 Z" id="Path-14-Copy" fill="#090F29"></path>
        <path d="M2576.85937,1074.33173 C2576.85937,1074.33173 2566.43359,1065.42796 2608.07227,1057.25781 C2649.71094,1049.08767 2674.78125,1040.67568 2692.70508,1036.33784 C2710.62891,1032 2692.0625,1022.179 2726.41016,1028.643 C2760.75781,1035.10701 2862,1038.37142 2881,1038.37142 C2900,1038.37142 2975.23047,1021.26473 2982.46484,1022 C2989.69922,1022.73527 2987.34375,1015.26271 3020.89453,1028.643 C3043.26172,1037.5632 3081.37891,1044.43576 3135.24609,1049.26068 C3077.34766,1073.51844 3048.39844,1085.64731 3048.39844,1085.64731 C3048.39844,1085.64731 2888.95964,1081.87545 2570.08203,1074.33173 C2574.60026,1074.33173 2576.85937,1074.33173 2576.85937,1074.33173 Z" id="Path-28" fill="#090F29"></path>
        <path d="M1033,1164.19942" id="Path-29" stroke="#979797"></path>
        <path d="M-338.6875,690 C31.953125,656.255208 239.078125,635.690104 282.6875,628.304688 C348.101563,617.226563 419.6875,562.484375 419.6875,562.484375 C419.6875,562.484375 729.249784,514.289063 706.679687,497.398438 C684.109591,480.507813 611.421875,446.210938 598.171875,446.210938 C584.921875,446.210938 425.570313,466.3125 390.390625,466.3125 C355.210938,466.3125 132.789062,409.0625 197.890625,381.773438 C262.992188,354.484375 429.945313,330.890625 544.153114,330.890625 C658.360915,330.890625 924.46875,279.695313 974.398438,279.695313 C1024.32813,279.695313 1257.09007,259.046875 1343.02957,206.15625 C1428.96908,153.265625 1410.35937,58.9453125 1239.24219,90.3671875 C1144.09311,107.839205 374.544774,39.7642779 -13.8125,40.2396822 C-323.881378,40.623756 -263.625418,114.858652 -355.742188,90.3671875 C-358.278741,89.6927837 -352.593845,289.570388 -338.6875,690 Z" id="Path-27" fill="#FFFFFF"></path>
        <path d="M1356.59375,868.769531 L1601.59375,868.769531 C1600.86076,826.153729 1581.97087,804.845827 1544.92408,804.845827 C1507.87728,804.845827 1489.35389,812.259909 1489.35389,827.088073 C1474.11009,781.542378 1449.6808,758.769531 1416.06599,758.769531 C1382.45119,758.769531 1362.62711,795.436198 1356.59375,868.769531 Z" id="Path-30" fill="#FFFFFF"></path>
        <path d="M2553.40321,664.3125 C2555.99033,664.3125 2593.18016,664.3125 2664.97272,664.3125 C2656.92433,638.475754 2645.61477,625.55738 2631.04405,625.55738 C2616.47332,625.55738 2606.23153,632.016567 2600.31866,644.93494 C2596.03231,613.315447 2583.96116,598.88537 2564.10521,601.644708 C2544.24926,604.404047 2534.32129,617.450628 2534.32129,640.784451 C2520.68151,628.830507 2509.88,628.830507 2501.91676,640.784451 C2493.95353,652.738395 2493.95353,660.581078 2501.91676,664.3125 C2533.65394,664.3125 2550.81609,664.3125 2553.40321,664.3125 Z" id="Path-31" fill="#FFFFFF"></path>
    </g>
</svg>