<svg height="24" viewBox="0 0 24 24" width="24" xmlns="http://www.w3.org/2000/svg"><path d="m12.0000238 0c-3.25902812 0-3.66768087.01381388-4.94760845.07221326-1.2772601.05825647-2.14958291.26113-2.91287132.55779502-.78910609.30662054-1.45831722.71694047-2.12548006 1.38405569-.66711522.66716284-1.07743515 1.33637397-1.38405569 2.12548006-.29666502.76328841-.49953855 1.63561122-.55779502 2.91287132-.05839938 1.27992759-.07221326 1.68858033-.07221326 4.94760845 0 3.2589806.01381388 3.6676333.07221326 4.9475609.05825647 1.2772601.26113 2.1495828.55779502 2.9128713.30662054.7891061.71694047 1.4583172 1.38405569 2.12548.66716284.6671153 1.33637397 1.0774352 2.12548006 1.3841033.76328841.2966175 1.63561122.499491 2.91287132.5577474 1.27992759.0583994 1.68858033.0722133 4.94760845.0722133 3.2589806 0 3.6676333-.0138139 4.9475609-.0722133 1.2772601-.0582564 2.1495828-.2611299 2.9128713-.5577474.7891061-.3066681 1.4583172-.716988 2.12548-1.3841033.6671153-.6671628 1.0774352-1.3363739 1.3841033-2.12548.2966175-.7632885.499491-1.6356112.5577474-2.9128713.0583994-1.2799277.0722133-1.6885803.0722133-4.9475609 0-3.25902812-.0138139-3.66768087-.0722133-4.94760845-.0582564-1.2772601-.2611299-2.14958291-.5577474-2.91287132-.3066681-.78910609-.716988-1.45831722-1.3841033-2.12548006-.6671628-.66711522-1.3363739-1.07743515-2.12548-1.38405569-.7632885-.29666502-1.6356112-.49953855-2.9128713-.55779502-1.2799277-.05839938-1.6885803-.07221326-4.9475609-.07221326zm0 2.16215831c3.2041061 0 3.5836544.01224195 4.849006.06997444 1.1699881.05335017 1.8053791.24884041 2.2282267.41317797.5601291.21768773.9598743.47772214 1.3797687.89766414.419942.41989439.6799764.81963954.8976641 1.37976862.1643376.4228477.3598278 1.05823862.413178 2.22822677.0577324 1.26535157.0699744 1.64489988.0699744 4.84905355 0 3.2041061-.012242 3.5836544-.0699744 4.849006-.0533502 1.1699881-.2488404 1.8053791-.413178 2.2282267-.2176877.5601291-.4777221.9598743-.8976641 1.3797687-.4198944.419942-.8196396.6799764-1.3797687.8976641-.4228476.1643376-1.0582386.3598278-2.2282268.413178-1.265161.0577324-1.6446616.0699744-4.8490059.0699744-3.20439184 0-3.58384489-.012242-4.84905355-.0699744-1.16998815-.0533502-1.80537908-.2488404-2.22822677-.413178-.56012908-.2176877-.95987424-.4777221-1.37976862-.8976641-.41989437-.4198944-.67997642-.8196396-.89766414-1.3797687-.16433756-.4228476-.3598278-1.0582386-.41317797-2.2282268-.0577325-1.2653515-.06997445-1.6448998-.06997445-4.8490059 0-3.20415367.01224195-3.58370199.06997445-4.84905355.05335017-1.16998815.24884041-1.80537908.41317797-2.22822677.21768772-.56012908.47772214-.95987424.89766414-1.37976862.41989438-.419942.81963954-.67997642 1.37976862-.89766414.42284769-.16433756 1.05823862-.3598278 2.22822677-.41317797 1.26535156-.0577325 1.64489988-.06997445 4.84905355-.06997445zm0 13.83784179c-2.20917311 0-4.0000238-1.7908508-4.0000238-3.9999763 0-2.20917311 1.79085069-4.0000238 4.0000238-4.0000238 2.2091255 0 3.9999763 1.79085069 3.9999763 4.0000238 0 2.2091255-1.7908508 3.9999763-3.9999763 3.9999763zm0-10.16215839c-3.40331175 0-6.1621821 2.75887035-6.1621821 6.16218209 0 3.4032641 2.75887035 6.1621345 6.1621821 6.1621345 3.4032641 0 6.1621345-2.7588704 6.1621345-6.1621345 0-3.40331175-2.7588704-6.1621821-6.1621345-6.16218209zm7.8456181-.24345776c0-.79529853-.6447273-1.44002572-1.4400258-1.44002572-.795251 0-1.4399781.64472719-1.4399781 1.44002572 0 .79529852.6447271 1.43997809 1.4399781 1.43997809.7952985 0 1.4400258-.64467957 1.4400258-1.43997809z" fill="#2a2a2a" fill-rule="evenodd"/></svg>