<svg height="24" viewBox="0 0 24 24" width="24" xmlns="http://www.w3.org/2000/svg"><path d="m12.0000238 44c-3.25902812 0-3.66768087.0138139-4.94760845.0722133-1.2772601.0582564-2.14958291.26113-2.91287132.557795-.78910609.3066205-1.45831722.7169404-2.12548006 1.3840557-.66711522.6671628-1.07743515 1.3363739-1.38405569 2.12548-.29666502.7632884-.49953855 1.6356112-.55779502 2.9128713-.05839938 1.2799276-.07221326 1.6885804-.07221326 4.9476085 0 3.2589806.01381388 3.6676333.07221326 4.9475609.05825647 1.2772601.26113 2.1495828.55779502 2.9128713.30662054.7891061.71694047 1.4583172 1.38405569 2.12548.66716284.6671153 1.33637397 1.0774352 2.12548006 1.3841033.76328841.2966175 1.63561122.499491 2.91287132.5577474 1.27992759.0583994 1.68858033.0722133 4.94760845.0722133 3.2589806 0 3.6676333-.0138139 4.9475609-.0722133 1.2772601-.0582564 2.1495828-.2611299 2.9128713-.5577474.7891061-.3066681 1.4583172-.716988 2.12548-1.3841033.6671153-.6671628 1.0774352-1.3363739 1.3841033-2.12548.2966175-.7632885.499491-1.6356112.5577474-2.9128713.0583994-1.2799276.0722133-1.6885803.0722133-4.9475609 0-3.2590281-.0138139-3.6676809-.0722133-4.9476085-.0582564-1.2772601-.2611299-2.1495829-.5577474-2.9128713-.3066681-.7891061-.716988-1.4583172-1.3841033-2.12548-.6671628-.6671153-1.3363739-1.0774352-2.12548-1.3840557-.7632885-.296665-1.6356112-.4995386-2.9128713-.557795-1.2799277-.0583994-1.6885803-.0722133-4.9475609-.0722133zm0 2.1621583c3.2041061 0 3.5836544.012242 4.849006.0699744 1.1699881.0533502 1.8053791.2488405 2.2282267.413178.5601291.2176877.9598743.4777222 1.3797687.8976642.419942.4198943.6799764.8196395.8976641 1.3797686.1643376.4228477.3598278 1.0582386.413178 2.2282268.0577324 1.2653515.0699744 1.6448998.0699744 4.8490535 0 3.2041061-.012242 3.5836544-.0699744 4.8490059-.0533502 1.1699882-.2488404 1.8053792-.413178 2.2282268-.2176877.5601291-.4777221.9598743-.8976641 1.3797687-.4198944.419942-.8196396.6799764-1.3797687.8976641-.4228476.1643376-1.0582386.3598278-2.2282268.4131779-1.265161.0577325-1.6446616.0699745-4.8490059.0699745-3.20439184 0-3.58384489-.012242-4.84905355-.0699745-1.16998815-.0533501-1.80537908-.2488403-2.22822677-.4131779-.56012908-.2176877-.95987424-.4777221-1.37976862-.8976641-.41989437-.4198944-.67997642-.8196396-.89766414-1.3797687-.16433756-.4228476-.3598278-1.0582386-.41317797-2.2282268-.0577325-1.2653515-.06997445-1.6448998-.06997445-4.8490059 0-3.2041537.01224195-3.583702.06997445-4.8490535.05335017-1.1699882.24884041-1.8053791.41317797-2.2282268.21768772-.5601291.47772214-.9598743.89766414-1.3797686.41989438-.419942.81963954-.6799765 1.37976862-.8976642.42284769-.1643375 1.05823862-.3598278 2.22822677-.413178 1.26535156-.0577324 1.64489988-.0699744 4.84905355-.0699744zm0 13.8378418c-2.20917311 0-4.0000238-1.7908508-4.0000238-3.9999763 0-2.2091731 1.79085069-4.0000238 4.0000238-4.0000238 2.2091255 0 3.9999763 1.7908507 3.9999763 4.0000238 0 2.2091255-1.7908508 3.9999763-3.9999763 3.9999763zm0-10.1621584c-3.40331175 0-6.1621821 2.7588704-6.1621821 6.1621821 0 3.4032641 2.75887035 6.1621345 6.1621821 6.1621345 3.4032641 0 6.1621345-2.7588704 6.1621345-6.1621345 0-3.4033117-2.7588704-6.1621821-6.1621345-6.1621821zm7.8456181-.2434577c0-.7952986-.6447273-1.4400258-1.4400258-1.4400258-.795251 0-1.4399781.6447272-1.4399781 1.4400258 0 .7952985.6447271 1.439978 1.4399781 1.439978.7952985 0 1.4400258-.6446795 1.4400258-1.439978z" fill="#fff" fill-rule="evenodd" transform="translate(0 -44)"/></svg>