<?xml version="1.0" encoding="UTF-8"?>
<svg width="661px" height="167px" viewBox="0 0 661 167" version="1.1" xmlns="http://www.w3.org/2000/svg" xmlns:xlink="http://www.w3.org/1999/xlink">
    <title>logo-white</title>
    <g id="Page-1" stroke="none" stroke-width="1" fill="none" fill-rule="evenodd">
        <g id="logo-white" transform="translate(8.325301, 2.870000)">
            <g id="logo-bike" transform="translate(0.000000, 5.006953)">
                <circle id="Oval-Copy-12" stroke="#FFFFFF" stroke-width="15" cx="45" cy="106.123047" r="45"></circle>
                <path d="M192.349398,53.6230469 C221.344347,53.6230469 244.849398,77.1280975 244.849398,106.123047 C244.849398,135.117996 221.344347,158.623047 192.349398,158.623047 C163.354448,158.623047 139.849398,135.117996 139.849398,106.123047 C139.849398,104.678392 139.907748,103.247366 140.022221,101.832197 L191.409187,113.083721 C194.950889,113.859217 198.571339,112.15593 200.23191,108.932958 L200.346841,108.700915 C202.194086,104.817229 200.635031,100.141239 196.784431,98.1572956 L150.559805,74.339799 C160.150242,61.7493452 175.30082,53.6230469 192.349398,53.6230469 Z M224.282461,130.344364 C223.236987,129.442505 221.658362,129.558929 220.756503,130.604403 C213.673772,138.815014 203.404481,143.623047 192.349398,143.623047 C190.968686,143.623047 189.849398,144.742335 189.849398,146.123047 C189.849398,147.503759 190.968686,148.623047 192.349398,148.623047 C204.874158,148.623047 216.519762,143.170631 224.542499,133.870322 C225.444358,132.824848 225.327935,131.246223 224.282461,130.344364 Z M176.645369,119.300445 C175.757865,118.242758 174.180976,118.104798 173.123289,118.992303 C172.065602,119.879807 171.927642,121.456696 172.815147,122.514383 C178.830083,129.682705 188.168734,132.900356 197.190531,131.163776 C198.546354,130.902798 199.4339,129.592121 199.172922,128.236299 C198.911943,126.880476 197.601267,125.992929 196.245444,126.253908 C188.987778,127.650915 181.482315,125.064893 176.645369,119.300445 Z M215.412026,102.799372 L215.247565,102.79984 C213.867708,102.848412 212.788488,104.006382 212.837059,105.38624 C213.057923,111.660683 210.427499,117.714721 205.526426,121.82721 C204.468739,122.714714 204.33078,124.291603 205.218284,125.34929 C206.105788,126.406977 207.682677,126.544937 208.740364,125.657432 C214.833589,120.544609 218.108426,113.007426 217.833965,105.210346 C217.785393,103.830488 216.627422,102.751268 215.247565,102.79984 Z M204.220621,83.5483111 C202.998362,82.9060889 201.486902,83.3763012 200.84468,84.5985597 C200.202457,85.8208182 200.67267,87.3322785 201.894928,87.9745007 C204.231004,89.2019657 206.317063,90.8771163 208.053191,92.9461529 C208.940696,94.0038395 210.517585,94.1417994 211.575271,93.254295 C212.632958,92.3667905 212.770918,90.7899015 211.883413,89.7322148 C209.72755,87.1629564 207.129798,85.0769059 204.220621,83.5483111 Z M192.349398,63.6230469 C190.968686,63.6230469 189.849398,64.742335 189.849398,66.1230469 C189.849398,67.5037587 190.968686,68.6230469 192.349398,68.6230469 C205.330726,68.6230469 217.170725,75.2687015 224.012356,86.0211282 C224.753563,87.186022 226.298763,87.5294881 227.463657,86.7882811 C228.62855,86.0470742 228.972016,84.5018743 228.230809,83.3369805 C220.480772,71.1568853 207.058371,63.6230469 192.349398,63.6230469 Z" id="Combined-Shape" fill="#FFFFFF" fill-rule="nonzero"></path>
                <polyline id="Path-16" stroke="#FFFFFF" stroke-width="15" stroke-linecap="round" stroke-linejoin="round" points="45 106.123047 75.72548 25.5625 142.624894 25.5625"></polyline>
                <line x1="157" y1="0.5" x2="209.899414" y2="0.5" id="Path-16-Copy" stroke="#FFFFFF" stroke-width="15" stroke-linecap="round" stroke-linejoin="round"></line>
                <path d="M45,37 L37.5,37 C27.2827321,37 19,28.7172679 19,18.5 C19,8.28273213 27.2827321,1.87688166e-15 37.5,0 L71.8994141,0 L71.8994141,0" id="Path-16-Copy-2" stroke="#FFFFFF" stroke-width="15" stroke-linecap="round" stroke-linejoin="round"></path>
                <line x1="169.674699" y1="37.1230469" x2="184.259436" y2="3.06101005" id="Path-23" stroke="#FFFFFF" stroke-width="15" stroke-linecap="round" stroke-linejoin="round"></line>
                <path d="M87.7113884,42.2542226 L143.480306,51.5599916 C145.659318,51.9235881 147.131003,53.9847794 146.767407,56.1637913 C146.699987,56.567832 146.570905,56.9591195 146.384676,57.323966 L137.64889,74.4384766 L194.036362,103.490973 C195.018265,103.996879 195.404138,105.202986 194.898232,106.184889 C194.483089,106.990632 193.577977,107.416454 192.692551,107.22258 L114.465785,90.0939309 C112.307773,89.6214093 110.941412,87.4889399 111.413934,85.3309273 C111.48832,84.991206 111.606692,84.6626359 111.766055,84.3535288 L121.309464,65.8427734 L86.3927392,45.9650328 C85.4328212,45.4185612 85.0976567,44.1973911 85.6441284,43.2374731 C86.0589683,42.5087761 86.884318,42.1162151 87.7113884,42.2542226 Z" id="Path" fill="#24B0A4" fill-rule="nonzero"></path>
            </g>
            <path d="M277.729699,73.13 L291.325699,73.13 C292.767699,73.13 294.106699,71.997 294.415699,70.555 L305.848699,17.201 L324.079699,17.201 C325.624699,17.201 326.860699,16.068 327.169699,14.626 L329.538699,3.605 C329.847699,2.163 328.920699,1.03 327.478699,1.03 L272.064699,1.03 C270.622699,1.03 269.283699,2.163 268.974699,3.605 L266.605699,14.626 C266.296699,16.068 267.223699,17.201 268.665699,17.201 L286.999699,17.201 L275.566699,70.555 C275.257699,71.997 276.287699,73.13 277.729699,73.13 Z" id="Path-Copy" fill="#FFFFFF" fill-rule="nonzero"></path>
            <path d="M326.551699,73.13 L375.476699,73.13 C377.021699,73.13 378.257699,71.997 378.566699,70.555 L380.626699,60.873 C380.935699,59.328 380.111699,58.298 378.566699,58.298 L344.988699,58.298 L347.975699,43.981 L378.566699,43.981 C380.008699,43.981 381.347699,42.848 381.656699,41.406 L383.613699,32.445 C383.922699,30.9 382.995699,29.767 381.553699,29.767 L350.962699,29.767 L354.052699,15.862 L386.806699,15.862 C388.351699,15.862 389.587699,14.729 389.999699,13.287 L392.059699,3.605 C392.368699,2.163 391.441699,1.03 389.896699,1.03 L341.795699,1.03 C340.353699,1.03 339.014699,2.163 338.705699,3.605 L324.491699,70.555 C324.182699,71.997 325.109699,73.13 326.551699,73.13 Z" id="Path-Copy-2" fill="#FFFFFF" fill-rule="nonzero"></path>
            <path d="M420.590699,74.16 C439.954699,74.16 452.520699,64.684 456.331699,49.337 C456.640699,48.101 455.816699,47.174 454.580699,47.174 L440.572699,47.174 C438.718699,47.174 437.791699,47.689 436.761699,49.852 C433.465699,56.959 428.315699,59.328 421.929699,59.328 C414.410699,59.328 410.702699,55.517 412.453699,45.732 C413.483699,39.861 414.719699,34.093 416.161699,28.428 C418.530699,18.643 424.298699,14.832 431.817699,14.832 C438.203699,14.832 442.426699,17.201 442.220699,24.308 C442.426699,26.368 443.250699,26.986 445.104699,26.986 L459.112699,26.986 C460.348699,26.986 461.275699,26.059 461.584699,24.823 C464.571699,9.167 450.872699,0 433.259699,0 C413.586699,0 401.638699,9.888 397.106699,27.913 C395.664699,33.784 394.119699,40.685 393.192699,46.247 C389.999699,64.581 401.844699,74.16 420.590699,74.16 Z" id="Path-Copy-3" fill="#FFFFFF" fill-rule="nonzero"></path>
            <path d="M464.468699,73.13 L477.755699,73.13 C479.300699,73.13 480.639699,71.997 480.948699,70.555 L486.407699,44.908 L511.745699,44.908 L506.286699,70.555 C505.977699,71.997 506.904699,73.13 508.346699,73.13 L521.633699,73.13 C523.178699,73.13 524.414699,71.997 524.723699,70.555 L539.040699,3.605 C539.349699,2.163 538.422699,1.03 536.877699,1.03 L523.590699,1.03 C522.148699,1.03 520.809699,2.163 520.500699,3.605 L515.247699,28.428 L489.909699,28.428 L495.162699,3.605 C495.471699,2.163 494.544699,1.03 492.999699,1.03 L479.712699,1.03 C478.270699,1.03 476.931699,2.163 476.622699,3.605 L462.408699,70.555 C462.099699,72.1 463.026699,73.13 464.468699,73.13 Z" id="Path-Copy-4" fill="#FFFFFF" fill-rule="nonzero"></path>
            <path d="M261.970699,162.13 L295.651699,162.13 C313.264699,162.13 322.225699,153.89 325.109699,140.294 C326.654699,132.775 323.255699,127.007 318.414699,124.329 C322.431699,122.681 328.302699,118.252 329.950699,110.424 C332.628699,97.755 323.873699,90.03 307.393699,90.03 L277.214699,90.03 C275.772699,90.03 274.433699,91.163 274.124699,92.605 L259.910699,159.555 C259.601699,160.997 260.528699,162.13 261.970699,162.13 Z M287.102699,118.664 L290.398699,103.42 L304.200699,103.42 C309.762699,103.42 311.513699,106.613 310.586699,110.939 C309.659699,115.368 305.848699,118.664 300.286699,118.664 L287.102699,118.664 Z M280.716699,148.74 L284.321699,131.745 L298.741699,131.745 C305.024699,131.745 306.878699,135.556 305.848699,140.294 C304.921699,144.723 300.801699,148.74 295.033699,148.74 L280.716699,148.74 Z" id="Shape-Copy" fill="#24B0A4" fill-rule="nonzero"></path>
            <path d="M334.585699,162.13 L348.490699,162.13 C349.932699,162.13 351.271699,160.997 351.580699,159.555 L365.794699,92.605 C366.103699,91.163 365.176699,90.03 363.734699,90.03 L349.829699,90.03 C348.387699,90.03 347.048699,91.163 346.739699,92.605 L332.422699,159.555 C332.113699,160.997 333.143699,162.13 334.585699,162.13 Z" id="Path-Copy-5" fill="#24B0A4" fill-rule="nonzero"></path>
            <path d="M367.957699,162.13 L381.038699,162.13 C382.583699,162.13 383.716699,160.997 384.025699,159.555 L389.484699,134.32 L404.934699,160.07 C405.449699,161.1 406.479699,162.13 408.642699,162.13 L423.062699,162.13 C424.607699,162.13 426.358699,160.482 425.225699,158.731 L405.758699,125.874 L437.379699,93.429 C438.512699,92.296 437.997699,90.03 436.040699,90.03 L420.796699,90.03 C418.427699,90.03 417.088699,91.163 416.367699,91.987 L393.501699,115.059 L398.342699,92.605 C398.651699,91.163 397.724699,90.03 396.179699,90.03 L383.098699,90.03 C381.656699,90.03 380.420699,91.163 380.111699,92.605 L365.897699,159.555 C365.588699,160.997 366.515699,162.13 367.957699,162.13 Z" id="Path-Copy-6" fill="#24B0A4" fill-rule="nonzero"></path>
            <path d="M435.525699,162.13 L484.450699,162.13 C485.995699,162.13 487.231699,160.997 487.540699,159.555 L489.600699,149.873 C489.909699,148.328 489.085699,147.298 487.540699,147.298 L453.962699,147.298 L456.949699,132.981 L487.540699,132.981 C488.982699,132.981 490.321699,131.848 490.630699,130.406 L492.587699,121.445 C492.896699,119.9 491.969699,118.767 490.527699,118.767 L459.936699,118.767 L463.026699,104.862 L495.780699,104.862 C497.325699,104.862 498.561699,103.729 498.973699,102.287 L501.033699,92.605 C501.342699,91.163 500.415699,90.03 498.870699,90.03 L450.769699,90.03 C449.327699,90.03 447.988699,91.163 447.679699,92.605 L433.465699,159.555 C433.156699,160.997 434.083699,162.13 435.525699,162.13 Z" id="Path-Copy-7" fill="#24B0A4" fill-rule="nonzero"></path>
            <path d="M502.681699,162.13 L515.968699,162.13 C517.513699,162.13 518.852699,160.997 519.161699,159.555 L524.105699,136.689 L534.611699,136.689 L541.512699,159.349 C541.821699,160.482 542.542699,162.13 545.117699,162.13 L558.816699,162.13 C559.949699,162.13 561.185699,161.1 561.391699,159.967 C561.494699,159.452 561.494699,159.246 561.391699,158.834 L552.636699,133.496 C561.082699,130.097 567.571699,123.402 569.631699,113.514 C572.824699,98.476 563.863699,90.03 546.044699,90.03 L518.028699,90.03 C516.586699,90.03 515.144699,91.163 514.835699,92.605 L500.621699,159.555 C500.312699,160.997 501.239699,162.13 502.681699,162.13 Z M527.092699,122.063 L530.903699,104.347 L542.748699,104.347 C549.443699,104.347 551.606699,107.952 550.576699,113.308 C549.340699,118.767 545.529699,122.063 539.040699,122.063 L527.092699,122.063 Z" id="Shape-Copy-2" fill="#24B0A4" fill-rule="nonzero"></path>
            <path d="M597.956699,163.16 C617.320699,163.16 629.165699,155.847 632.152699,141.839 C634.830699,129.17 628.547699,122.475 610.625699,118.973 C599.707699,116.501 596.514699,114.647 597.441699,110.321 C598.368699,105.995 602.591699,103.832 608.565699,103.832 C613.818699,103.832 617.114699,106.51 617.217699,109.497 C617.835699,110.836 618.865699,111.248 620.307699,111.248 L634.109699,111.248 C635.345699,111.248 636.375699,110.218 636.581699,109.085 C638.126699,100.536 627.620699,89 610.007699,89 C592.497699,89 581.270699,96.931 578.592699,109.497 C575.811699,122.372 583.227699,129.376 598.265699,132.569 C609.801699,135.247 614.127699,136.792 613.097699,141.427 C612.170699,145.65 607.226699,148.328 599.295699,148.328 C592.600699,148.328 589.510699,145.341 588.686699,142.148 C587.862699,141.015 587.244699,140.294 585.390699,140.294 L572.206699,140.294 C570.970699,140.294 569.940699,141.324 569.734699,142.457 C567.983699,153.272 577.459699,163.16 597.956699,163.16 Z" id="Path-Copy-8" fill="#24B0A4" fill-rule="nonzero"></path>
            <line x1="564" y1="8.50695313" x2="616.899414" y2="8.50695313" id="Path-16-Copy-6" stroke="#FFFFFF" stroke-width="15" stroke-linecap="round" stroke-linejoin="round"></line>
            <line x1="558" y1="37.5069531" x2="644.550675" y2="37.5069531" id="Path-16-Copy-7" stroke="#FFFFFF" stroke-width="15" stroke-linecap="round" stroke-linejoin="round"></line>
            <line x1="550" y1="67.5069531" x2="602.899414" y2="67.5069531" id="Path-16-Copy-8" stroke="#FFFFFF" stroke-width="15" stroke-linecap="round" stroke-linejoin="round"></line>
        </g>
    </g>
</svg>