<?xml version="1.0" encoding="UTF-8"?>
<svg width="634px" height="169px" viewBox="0 0 634 169" version="1.1" xmlns="http://www.w3.org/2000/svg" xmlns:xlink="http://www.w3.org/1999/xlink">
    <title>logo-text</title>
    <g id="Page-1" stroke="none" stroke-width="1" fill="none" fill-rule="evenodd">
        <g id="Artboard-Copy-2" transform="translate(-128.000000, -167.000000)">
            <g id="logo-text" transform="translate(134.325301, 167.870000)">
                <g id="logo" transform="translate(0.000000, 6.506953)">
                    <circle id="Oval-Copy-12" stroke="#090F29" stroke-width="12" cx="45" cy="106.623047" r="45"></circle>
                    <path d="M192.349398,54.1230469 C221.344347,54.1230469 244.849398,77.6280975 244.849398,106.623047 C244.849398,135.617996 221.344347,159.123047 192.349398,159.123047 C163.354448,159.123047 139.849398,135.617996 139.849398,106.623047 C139.849398,104.663919 139.956708,102.729856 140.165772,100.826413 L185.593721,111.829546 C189.327517,112.733902 193.176974,110.856466 194.763188,107.357463 L194.866347,107.119952 C196.516646,103.148574 194.725219,98.5565887 190.780035,96.7681053 L148.571915,77.6337164 C157.973611,63.4644364 174.070605,54.1230469 192.349398,54.1230469 Z M220.756503,131.104403 C213.673772,139.315014 203.404481,144.123047 192.349398,144.123047 C190.968686,144.123047 189.849398,145.242335 189.849398,146.623047 C189.849398,148.003759 190.968686,149.123047 192.349398,149.123047 C204.874158,149.123047 216.519762,143.670631 224.542499,134.370322 C225.444358,133.324848 225.327935,131.746223 224.282461,130.844364 C223.236987,129.942505 221.658362,130.058929 220.756503,131.104403 Z M173.123289,119.492303 C172.065602,120.379807 171.927642,121.956696 172.815147,123.014383 C178.830083,130.182705 188.168734,133.400356 197.190531,131.663776 C198.546354,131.402798 199.4339,130.092121 199.172922,128.736299 C198.911943,127.380476 197.601267,126.492929 196.245444,126.753908 C188.987778,128.150915 181.482315,125.564893 176.645369,119.800445 C175.757865,118.742758 174.180976,118.604798 173.123289,119.492303 Z M215.412026,103.299372 L215.247565,103.29984 C213.867708,103.348412 212.788488,104.506382 212.837059,105.88624 C213.057923,112.160683 210.427499,118.214721 205.526426,122.32721 C204.468739,123.214714 204.33078,124.791603 205.218284,125.84929 C206.105788,126.906977 207.682677,127.044937 208.740364,126.157432 C214.833589,121.044609 218.108426,113.507426 217.833965,105.710346 C217.789279,104.440877 216.805597,103.425868 215.574016,103.309413 L215.412026,103.299372 Z M200.84468,85.0985597 C200.202457,86.3208182 200.67267,87.8322785 201.894928,88.4745007 C204.231004,89.7019657 206.317063,91.3771163 208.053191,93.4461529 C208.940696,94.5038395 210.517585,94.6417994 211.575271,93.754295 C212.632958,92.8667905 212.770918,91.2899015 211.883413,90.2322148 C209.72755,87.6629564 207.129798,85.5769059 204.220621,84.0483111 C202.998362,83.4060889 201.486902,83.8763012 200.84468,85.0985597 Z M192.349398,64.1230469 C190.968686,64.1230469 189.849398,65.242335 189.849398,66.6230469 C189.849398,68.0037587 190.968686,69.1230469 192.349398,69.1230469 C205.330726,69.1230469 217.170725,75.7687015 224.012356,86.5211282 C224.753563,87.686022 226.298763,88.0294881 227.463657,87.2882811 C228.62855,86.5470742 228.972016,85.0018743 228.230809,83.8369805 C220.480772,71.6568853 207.058371,64.1230469 192.349398,64.1230469 Z" id="Combined-Shape" fill="#090F29" fill-rule="nonzero"></path>
                    <line x1="151.999894" y1="0.5" x2="188.64882" y2="0.5" id="Path-16-Copy" stroke="#090F29" stroke-width="12" stroke-linecap="round" stroke-linejoin="round"></line>
                    <path d="M45,37.5 L37.5,37.5 C27.2827321,37.5 19,29.2172679 19,19 C19,8.78273213 27.2827321,0.5 37.5,0.5 L86.9364175,0.5 L86.9364175,0.5 L45,106.623047" id="Path-16-Copy-2" stroke="#090F29" stroke-width="12" stroke-linecap="round" stroke-linejoin="round"></path>
                    <line x1="172.936418" y1="0.5" x2="157.59815" y2="39.3145628" id="Path-16-Copy-6" stroke="#090F29" stroke-width="12" stroke-linecap="round" stroke-linejoin="round"></line>
                    <path d="M92.2131105,40.4059854 L150.368757,52.1069621 C152.534494,52.5427107 153.936927,54.6516318 153.501179,56.8173691 C153.348428,57.5765643 152.978582,58.2750956 152.436535,58.8281732 L136.017116,75.5817156 C135.243973,76.370591 135.256727,77.6368567 136.045603,78.4099992 C136.212532,78.5735996 136.406847,78.7066728 136.619726,78.8031777 L188.302709,102.232797 C189.308731,102.68886 189.75456,103.874114 189.298497,104.880136 C188.901943,105.754887 187.939579,106.224246 187.00613,105.998157 L108.076957,86.8808763 C105.929899,86.3608415 104.610936,84.1987355 105.130971,82.0516773 C105.307914,81.3211348 105.68712,80.6552318 106.225122,80.1302983 L120.622115,66.0830163 C121.412707,65.3116287 121.428275,64.0453944 120.656887,63.2548029 C120.550393,63.1456575 120.431766,63.0490497 120.303317,62.9668626 L90.7406916,44.0513537 C89.810279,43.4560335 89.538633,42.2191827 90.1339532,41.28877 C90.5785968,40.5938464 91.4043177,40.2432555 92.2131105,40.4059854 Z" id="Path" fill="#24B0A4" fill-rule="nonzero"></path>
                    <line x1="161.683488" y1="26.7539063" x2="99.9793863" y2="26.7539063" id="Path-2" stroke="#090F29" stroke-width="12" stroke-linecap="round" stroke-linejoin="round"></line>
                </g>
                <path d="M245.729699,73.13 L259.325699,73.13 C260.767699,73.13 262.106699,71.997 262.415699,70.555 L273.848699,17.201 L292.079699,17.201 C293.624699,17.201 294.860699,16.068 295.169699,14.626 L297.538699,3.605 C297.847699,2.163 296.920699,1.03 295.478699,1.03 L240.064699,1.03 C238.622699,1.03 237.283699,2.163 236.974699,3.605 L234.605699,14.626 C234.296699,16.068 235.223699,17.201 236.665699,17.201 L254.999699,17.201 L243.566699,70.555 C243.257699,71.997 244.287699,73.13 245.729699,73.13 Z" id="Path" fill="#090F29" fill-rule="nonzero"></path>
                <path d="M294.551699,73.13 L343.476699,73.13 C345.021699,73.13 346.257699,71.997 346.566699,70.555 L348.626699,60.873 C348.935699,59.328 348.111699,58.298 346.566699,58.298 L312.988699,58.298 L315.975699,43.981 L346.566699,43.981 C348.008699,43.981 349.347699,42.848 349.656699,41.406 L351.613699,32.445 C351.922699,30.9 350.995699,29.767 349.553699,29.767 L318.962699,29.767 L322.052699,15.862 L354.806699,15.862 C356.351699,15.862 357.587699,14.729 357.999699,13.287 L360.059699,3.605 C360.368699,2.163 359.441699,1.03 357.896699,1.03 L309.795699,1.03 C308.353699,1.03 307.014699,2.163 306.705699,3.605 L292.491699,70.555 C292.182699,71.997 293.109699,73.13 294.551699,73.13 Z" id="Path" fill="#090F29" fill-rule="nonzero"></path>
                <path d="M388.590699,74.16 C407.954699,74.16 420.520699,64.684 424.331699,49.337 C424.640699,48.101 423.816699,47.174 422.580699,47.174 L408.572699,47.174 C406.718699,47.174 405.791699,47.689 404.761699,49.852 C401.465699,56.959 396.315699,59.328 389.929699,59.328 C382.410699,59.328 378.702699,55.517 380.453699,45.732 C381.483699,39.861 382.719699,34.093 384.161699,28.428 C386.530699,18.643 392.298699,14.832 399.817699,14.832 C406.203699,14.832 410.426699,17.201 410.220699,24.308 C410.426699,26.368 411.250699,26.986 413.104699,26.986 L427.112699,26.986 C428.348699,26.986 429.275699,26.059 429.584699,24.823 C432.571699,9.167 418.872699,0 401.259699,0 C381.586699,0 369.638699,9.888 365.106699,27.913 C363.664699,33.784 362.119699,40.685 361.192699,46.247 C357.999699,64.581 369.844699,74.16 388.590699,74.16 Z" id="Path" fill="#090F29" fill-rule="nonzero"></path>
                <path d="M432.468699,73.13 L445.755699,73.13 C447.300699,73.13 448.639699,71.997 448.948699,70.555 L454.407699,44.908 L479.745699,44.908 L474.286699,70.555 C473.977699,71.997 474.904699,73.13 476.346699,73.13 L489.633699,73.13 C491.178699,73.13 492.414699,71.997 492.723699,70.555 L507.040699,3.605 C507.349699,2.163 506.422699,1.03 504.877699,1.03 L491.590699,1.03 C490.148699,1.03 488.809699,2.163 488.500699,3.605 L483.247699,28.428 L457.909699,28.428 L463.162699,3.605 C463.471699,2.163 462.544699,1.03 460.999699,1.03 L447.712699,1.03 C446.270699,1.03 444.931699,2.163 444.622699,3.605 L430.408699,70.555 C430.099699,72.1 431.026699,73.13 432.468699,73.13 Z" id="Path" fill="#090F29" fill-rule="nonzero"></path>
                <path d="M252.321699,166.13 L286.002699,166.13 C303.615699,166.13 312.576699,157.89 315.460699,144.294 C317.005699,136.775 313.606699,131.007 308.765699,128.329 C312.782699,126.681 318.653699,122.252 320.301699,114.424 C322.979699,101.755 314.224699,94.03 297.744699,94.03 L267.565699,94.03 C266.123699,94.03 264.784699,95.163 264.475699,96.605 L250.261699,163.555 C249.952699,164.997 250.879699,166.13 252.321699,166.13 Z M277.453699,122.664 L280.749699,107.42 L294.551699,107.42 C300.113699,107.42 301.864699,110.613 300.937699,114.939 C300.010699,119.368 296.199699,122.664 290.637699,122.664 L277.453699,122.664 Z M271.067699,152.74 L274.672699,135.745 L289.092699,135.745 C295.375699,135.745 297.229699,139.556 296.199699,144.294 C295.272699,148.723 291.152699,152.74 285.384699,152.74 L271.067699,152.74 Z" id="Shape" fill="#24B0A4" fill-rule="nonzero"></path>
                <path d="M324.936699,166.13 L338.841699,166.13 C340.283699,166.13 341.622699,164.997 341.931699,163.555 L356.145699,96.605 C356.454699,95.163 355.527699,94.03 354.085699,94.03 L340.180699,94.03 C338.738699,94.03 337.399699,95.163 337.090699,96.605 L322.773699,163.555 C322.464699,164.997 323.494699,166.13 324.936699,166.13 Z" id="Path" fill="#24B0A4" fill-rule="nonzero"></path>
                <path d="M358.308699,166.13 L371.389699,166.13 C372.934699,166.13 374.067699,164.997 374.376699,163.555 L379.835699,138.32 L395.285699,164.07 C395.800699,165.1 396.830699,166.13 398.993699,166.13 L413.413699,166.13 C414.958699,166.13 416.709699,164.482 415.576699,162.731 L396.109699,129.874 L427.730699,97.429 C428.863699,96.296 428.348699,94.03 426.391699,94.03 L411.147699,94.03 C408.778699,94.03 407.439699,95.163 406.718699,95.987 L383.852699,119.059 L388.693699,96.605 C389.002699,95.163 388.075699,94.03 386.530699,94.03 L373.449699,94.03 C372.007699,94.03 370.771699,95.163 370.462699,96.605 L356.248699,163.555 C355.939699,164.997 356.866699,166.13 358.308699,166.13 Z" id="Path" fill="#24B0A4" fill-rule="nonzero"></path>
                <path d="M425.876699,166.13 L474.801699,166.13 C476.346699,166.13 477.582699,164.997 477.891699,163.555 L479.951699,153.873 C480.260699,152.328 479.436699,151.298 477.891699,151.298 L444.313699,151.298 L447.300699,136.981 L477.891699,136.981 C479.333699,136.981 480.672699,135.848 480.981699,134.406 L482.938699,125.445 C483.247699,123.9 482.320699,122.767 480.878699,122.767 L450.287699,122.767 L453.377699,108.862 L486.131699,108.862 C487.676699,108.862 488.912699,107.729 489.324699,106.287 L491.384699,96.605 C491.693699,95.163 490.766699,94.03 489.221699,94.03 L441.120699,94.03 C439.678699,94.03 438.339699,95.163 438.030699,96.605 L423.816699,163.555 C423.507699,164.997 424.434699,166.13 425.876699,166.13 Z" id="Path" fill="#24B0A4" fill-rule="nonzero"></path>
                <path d="M493.032699,166.13 L506.319699,166.13 C507.864699,166.13 509.203699,164.997 509.512699,163.555 L514.456699,140.689 L524.962699,140.689 L531.863699,163.349 C532.172699,164.482 532.893699,166.13 535.468699,166.13 L549.167699,166.13 C550.300699,166.13 551.536699,165.1 551.742699,163.967 C551.845699,163.452 551.845699,163.246 551.742699,162.834 L542.987699,137.496 C551.433699,134.097 557.922699,127.402 559.982699,117.514 C563.175699,102.476 554.214699,94.03 536.395699,94.03 L508.379699,94.03 C506.937699,94.03 505.495699,95.163 505.186699,96.605 L490.972699,163.555 C490.663699,164.997 491.590699,166.13 493.032699,166.13 Z M517.443699,126.063 L521.254699,108.347 L533.099699,108.347 C539.794699,108.347 541.957699,111.952 540.927699,117.308 C539.691699,122.767 535.880699,126.063 529.391699,126.063 L517.443699,126.063 Z" id="Shape" fill="#24B0A4" fill-rule="nonzero"></path>
                <path d="M588.307699,167.16 C607.671699,167.16 619.516699,159.847 622.503699,145.839 C625.181699,133.17 618.898699,126.475 600.976699,122.973 C590.058699,120.501 586.865699,118.647 587.792699,114.321 C588.719699,109.995 592.942699,107.832 598.916699,107.832 C604.169699,107.832 607.465699,110.51 607.568699,113.497 C608.186699,114.836 609.216699,115.248 610.658699,115.248 L624.460699,115.248 C625.696699,115.248 626.726699,114.218 626.932699,113.085 C628.477699,104.536 617.971699,93 600.358699,93 C582.848699,93 571.621699,100.931 568.943699,113.497 C566.162699,126.372 573.578699,133.376 588.616699,136.569 C600.152699,139.247 604.478699,140.792 603.448699,145.427 C602.521699,149.65 597.577699,152.328 589.646699,152.328 C582.951699,152.328 579.861699,149.341 579.037699,146.148 C578.213699,145.015 577.595699,144.294 575.741699,144.294 L562.557699,144.294 C561.321699,144.294 560.291699,145.324 560.085699,146.457 C558.334699,157.272 567.810699,167.16 588.307699,167.16 Z" id="Path" fill="#24B0A4" fill-rule="nonzero"></path>
                <line x1="521.999894" y1="7.00695313" x2="558.64882" y2="7.00695313" id="Path-16-Copy-3" stroke="#090F29" stroke-width="12" stroke-linecap="round" stroke-linejoin="round"></line>
                <line x1="517.999894" y1="36.0069531" x2="581.159562" y2="36.0069531" id="Path-16-Copy-4" stroke="#090F29" stroke-width="12" stroke-linecap="round" stroke-linejoin="round"></line>
                <line x1="512.999894" y1="67.0069531" x2="600.792375" y2="67.0069531" id="Path-16-Copy-5" stroke="#090F29" stroke-width="12" stroke-linecap="round" stroke-linejoin="round"></line>
            </g>
        </g>
    </g>
</svg>