<?xml version="1.0" encoding="UTF-8"?>
<svg width="254px" height="167px" viewBox="0 0 254 167" version="1.1" xmlns="http://www.w3.org/2000/svg" xmlns:xlink="http://www.w3.org/1999/xlink">
    <title>logo-bike</title>
    <g id="Page-1" stroke="none" stroke-width="1" fill="none" fill-rule="evenodd">
        <g id="logo-bike" transform="translate(8.325301, 7.876953)">
            <circle id="Oval-Copy-12" stroke="#090F29" stroke-width="15" cx="45" cy="106.123047" r="45"></circle>
            <path d="M192.349398,53.6230469 C221.344347,53.6230469 244.849398,77.1280975 244.849398,106.123047 C244.849398,135.117996 221.344347,158.623047 192.349398,158.623047 C163.354448,158.623047 139.849398,135.117996 139.849398,106.123047 C139.849398,104.678392 139.907748,103.247366 140.022221,101.832197 L191.409187,113.083721 C194.950889,113.859217 198.571339,112.15593 200.23191,108.932958 L200.346841,108.700915 C202.194086,104.817229 200.635031,100.141239 196.784431,98.1572956 L150.559805,74.339799 C160.150242,61.7493452 175.30082,53.6230469 192.349398,53.6230469 Z" id="Oval-Copy-13" fill="#090F29" fill-rule="nonzero"></path>
            <path d="M192.349398,146.123047 C204.460425,146.123047 215.31432,140.740625 222.649501,132.237362 M226.121583,84.6790543 C219.023669,73.5238483 206.550808,66.1230469 192.349398,66.1230469" id="Shape" stroke="#FFFFFF" stroke-width="5" stroke-linecap="round" stroke-linejoin="round"></path>
            <path d="M189.797977,88.5945854 C186.713564,88.5945854 183.770957,89.2017314 181.08315,90.3030302 M189.797977,134.594585 C198.446298,134.594585 205.979772,129.821365 209.907658,122.765669 M212.797977,111.594585 C212.797977,104.225087 209.332015,97.6651077 203.941251,93.4558065" id="Shape" stroke="#FFFFFF" stroke-width="5" stroke-linecap="round" stroke-linejoin="round" transform="translate(196.940564, 111.594585) rotate(50.000000) translate(-196.940564, -111.594585) "></path>
            <polyline id="Path-16" stroke="#090F29" stroke-width="15" stroke-linecap="round" stroke-linejoin="round" points="45 106.123047 75.72548 25.5625 142.624894 25.5625"></polyline>
            <line x1="157" y1="0.5" x2="209.899414" y2="0.5" id="Path-16-Copy" stroke="#090F29" stroke-width="15" stroke-linecap="round" stroke-linejoin="round"></line>
            <path d="M45,37 L37.5,37 C27.2827321,37 19,28.7172679 19,18.5 C19,8.28273213 27.2827321,1.87688166e-15 37.5,0 L71.8994141,0 L71.8994141,0" id="Path-16-Copy-2" stroke="#090F29" stroke-width="15" stroke-linecap="round" stroke-linejoin="round"></path>
            <line x1="169.674699" y1="37.1230469" x2="184.259436" y2="3.06101005" id="Path-23" stroke="#090F29" stroke-width="15" stroke-linecap="round" stroke-linejoin="round"></line>
            <path d="M87.7113884,42.2542226 L143.480306,51.5599916 C145.659318,51.9235881 147.131003,53.9847794 146.767407,56.1637913 C146.699987,56.567832 146.570905,56.9591195 146.384676,57.323966 L137.64889,74.4384766 L194.036362,103.490973 C195.018265,103.996879 195.404138,105.202986 194.898232,106.184889 C194.483089,106.990632 193.577977,107.416454 192.692551,107.22258 L114.465785,90.0939309 C112.307773,89.6214093 110.941412,87.4889399 111.413934,85.3309273 C111.48832,84.991206 111.606692,84.6626359 111.766055,84.3535288 L121.309464,65.8427734 L86.3927392,45.9650328 C85.4328212,45.4185612 85.0976567,44.1973911 85.6441284,43.2374731 C86.0589683,42.5087761 86.884318,42.1162151 87.7113884,42.2542226 Z" id="Path" fill="#24B0A4" fill-rule="nonzero"></path>
        </g>
    </g>
</svg>