<?xml version="1.0" encoding="UTF-8"?>
<svg width="254px" height="167px" viewBox="0 0 254 167" version="1.1" xmlns="http://www.w3.org/2000/svg" xmlns:xlink="http://www.w3.org/1999/xlink">
    <title>logo-bike</title>
    <g id="Page-1" stroke="none" stroke-width="1" fill="none" fill-rule="evenodd">
        <g id="logo-bike" transform="translate(8.325301, 7.876953)">
            <circle id="Oval-Copy-12" stroke="#FFFFFF" stroke-width="15" cx="45" cy="106.123047" r="45"></circle>
            <path d="M192.349398,53.6230469 C221.344347,53.6230469 244.849398,77.1280975 244.849398,106.123047 C244.849398,135.117996 221.344347,158.623047 192.349398,158.623047 C163.354448,158.623047 139.849398,135.117996 139.849398,106.123047 C139.849398,104.678392 139.907748,103.247366 140.022221,101.832197 L191.409187,113.083721 C194.950889,113.859217 198.571339,112.15593 200.23191,108.932958 L200.346841,108.700915 C202.194086,104.817229 200.635031,100.141239 196.784431,98.1572956 L150.559805,74.339799 C160.150242,61.7493452 175.30082,53.6230469 192.349398,53.6230469 Z M224.282461,130.344364 C223.236987,129.442505 221.658362,129.558929 220.756503,130.604403 C213.673772,138.815014 203.404481,143.623047 192.349398,143.623047 C190.968686,143.623047 189.849398,144.742335 189.849398,146.123047 C189.849398,147.503759 190.968686,148.623047 192.349398,148.623047 C204.874158,148.623047 216.519762,143.170631 224.542499,133.870322 C225.444358,132.824848 225.327935,131.246223 224.282461,130.344364 Z M176.645369,119.300445 C175.757865,118.242758 174.180976,118.104798 173.123289,118.992303 C172.065602,119.879807 171.927642,121.456696 172.815147,122.514383 C178.830083,129.682705 188.168734,132.900356 197.190531,131.163776 C198.546354,130.902798 199.4339,129.592121 199.172922,128.236299 C198.911943,126.880476 197.601267,125.992929 196.245444,126.253908 C188.987778,127.650915 181.482315,125.064893 176.645369,119.300445 Z M215.412026,102.799372 L215.247565,102.79984 C213.867708,102.848412 212.788488,104.006382 212.837059,105.38624 C213.057923,111.660683 210.427499,117.714721 205.526426,121.82721 C204.468739,122.714714 204.33078,124.291603 205.218284,125.34929 C206.105788,126.406977 207.682677,126.544937 208.740364,125.657432 C214.833589,120.544609 218.108426,113.007426 217.833965,105.210346 C217.785393,103.830488 216.627422,102.751268 215.247565,102.79984 Z M204.220621,83.5483111 C202.998362,82.9060889 201.486902,83.3763012 200.84468,84.5985597 C200.202457,85.8208182 200.67267,87.3322785 201.894928,87.9745007 C204.231004,89.2019657 206.317063,90.8771163 208.053191,92.9461529 C208.940696,94.0038395 210.517585,94.1417994 211.575271,93.254295 C212.632958,92.3667905 212.770918,90.7899015 211.883413,89.7322148 C209.72755,87.1629564 207.129798,85.0769059 204.220621,83.5483111 Z M192.349398,63.6230469 C190.968686,63.6230469 189.849398,64.742335 189.849398,66.1230469 C189.849398,67.5037587 190.968686,68.6230469 192.349398,68.6230469 C205.330726,68.6230469 217.170725,75.2687015 224.012356,86.0211282 C224.753563,87.186022 226.298763,87.5294881 227.463657,86.7882811 C228.62855,86.0470742 228.972016,84.5018743 228.230809,83.3369805 C220.480772,71.1568853 207.058371,63.6230469 192.349398,63.6230469 Z" id="Combined-Shape" fill="#FFFFFF" fill-rule="nonzero"></path>
            <polyline id="Path-16" stroke="#FFFFFF" stroke-width="15" stroke-linecap="round" stroke-linejoin="round" points="45 106.123047 75.72548 25.5625 142.624894 25.5625"></polyline>
            <line x1="157" y1="0.5" x2="209.899414" y2="0.5" id="Path-16-Copy" stroke="#FFFFFF" stroke-width="15" stroke-linecap="round" stroke-linejoin="round"></line>
            <path d="M45,37 L37.5,37 C27.2827321,37 19,28.7172679 19,18.5 C19,8.28273213 27.2827321,1.87688166e-15 37.5,0 L71.8994141,0 L71.8994141,0" id="Path-16-Copy-2" stroke="#FFFFFF" stroke-width="15" stroke-linecap="round" stroke-linejoin="round"></path>
            <line x1="169.674699" y1="37.1230469" x2="184.259436" y2="3.06101005" id="Path-23" stroke="#FFFFFF" stroke-width="15" stroke-linecap="round" stroke-linejoin="round"></line>
            <path d="M87.7113884,42.2542226 L143.480306,51.5599916 C145.659318,51.9235881 147.131003,53.9847794 146.767407,56.1637913 C146.699987,56.567832 146.570905,56.9591195 146.384676,57.323966 L137.64889,74.4384766 L194.036362,103.490973 C195.018265,103.996879 195.404138,105.202986 194.898232,106.184889 C194.483089,106.990632 193.577977,107.416454 192.692551,107.22258 L114.465785,90.0939309 C112.307773,89.6214093 110.941412,87.4889399 111.413934,85.3309273 C111.48832,84.991206 111.606692,84.6626359 111.766055,84.3535288 L121.309464,65.8427734 L86.3927392,45.9650328 C85.4328212,45.4185612 85.0976567,44.1973911 85.6441284,43.2374731 C86.0589683,42.5087761 86.884318,42.1162151 87.7113884,42.2542226 Z" id="Path" fill="#24B0A4" fill-rule="nonzero"></path>
        </g>
    </g>
</svg>