<?xml version="1.0" encoding="UTF-8"?>
<svg width="252px" height="166px" viewBox="0 0 252 166" version="1.1" xmlns="http://www.w3.org/2000/svg" xmlns:xlink="http://www.w3.org/1999/xlink">
    <title>logo</title>
    <g id="Page-1" stroke="none" stroke-width="1" fill="none" fill-rule="evenodd">
        <g id="Artboard-Copy-2" transform="translate(-128.000000, -168.000000)">
            <g id="logo-text" transform="translate(134.325301, 167.870000)">
                <g id="logo" transform="translate(0.000000, 6.506953)">
                    <circle id="Oval-Copy-12" stroke="#090F29" stroke-width="12" cx="45" cy="106.623047" r="45"></circle>
                    <path d="M192.349398,54.1230469 C221.344347,54.1230469 244.849398,77.6280975 244.849398,106.623047 C244.849398,135.617996 221.344347,159.123047 192.349398,159.123047 C163.354448,159.123047 139.849398,135.617996 139.849398,106.623047 C139.849398,104.663919 139.956708,102.729856 140.165772,100.826413 L185.593721,111.829546 C189.327517,112.733902 193.176974,110.856466 194.763188,107.357463 L194.866347,107.119952 C196.516646,103.148574 194.725219,98.5565887 190.780035,96.7681053 L148.571915,77.6337164 C157.973611,63.4644364 174.070605,54.1230469 192.349398,54.1230469 Z M220.756503,131.104403 C213.673772,139.315014 203.404481,144.123047 192.349398,144.123047 C190.968686,144.123047 189.849398,145.242335 189.849398,146.623047 C189.849398,148.003759 190.968686,149.123047 192.349398,149.123047 C204.874158,149.123047 216.519762,143.670631 224.542499,134.370322 C225.444358,133.324848 225.327935,131.746223 224.282461,130.844364 C223.236987,129.942505 221.658362,130.058929 220.756503,131.104403 Z M173.123289,119.492303 C172.065602,120.379807 171.927642,121.956696 172.815147,123.014383 C178.830083,130.182705 188.168734,133.400356 197.190531,131.663776 C198.546354,131.402798 199.4339,130.092121 199.172922,128.736299 C198.911943,127.380476 197.601267,126.492929 196.245444,126.753908 C188.987778,128.150915 181.482315,125.564893 176.645369,119.800445 C175.757865,118.742758 174.180976,118.604798 173.123289,119.492303 Z M215.412026,103.299372 L215.247565,103.29984 C213.867708,103.348412 212.788488,104.506382 212.837059,105.88624 C213.057923,112.160683 210.427499,118.214721 205.526426,122.32721 C204.468739,123.214714 204.33078,124.791603 205.218284,125.84929 C206.105788,126.906977 207.682677,127.044937 208.740364,126.157432 C214.833589,121.044609 218.108426,113.507426 217.833965,105.710346 C217.789279,104.440877 216.805597,103.425868 215.574016,103.309413 L215.412026,103.299372 Z M200.84468,85.0985597 C200.202457,86.3208182 200.67267,87.8322785 201.894928,88.4745007 C204.231004,89.7019657 206.317063,91.3771163 208.053191,93.4461529 C208.940696,94.5038395 210.517585,94.6417994 211.575271,93.754295 C212.632958,92.8667905 212.770918,91.2899015 211.883413,90.2322148 C209.72755,87.6629564 207.129798,85.5769059 204.220621,84.0483111 C202.998362,83.4060889 201.486902,83.8763012 200.84468,85.0985597 Z M192.349398,64.1230469 C190.968686,64.1230469 189.849398,65.242335 189.849398,66.6230469 C189.849398,68.0037587 190.968686,69.1230469 192.349398,69.1230469 C205.330726,69.1230469 217.170725,75.7687015 224.012356,86.5211282 C224.753563,87.686022 226.298763,88.0294881 227.463657,87.2882811 C228.62855,86.5470742 228.972016,85.0018743 228.230809,83.8369805 C220.480772,71.6568853 207.058371,64.1230469 192.349398,64.1230469 Z" id="Combined-Shape" fill="#090F29" fill-rule="nonzero"></path>
                    <line x1="151.999894" y1="0.5" x2="188.64882" y2="0.5" id="Path-16-Copy" stroke="#090F29" stroke-width="12" stroke-linecap="round" stroke-linejoin="round"></line>
                    <path d="M45,37.5 L37.5,37.5 C27.2827321,37.5 19,29.2172679 19,19 C19,8.78273213 27.2827321,0.5 37.5,0.5 L86.9364175,0.5 L86.9364175,0.5 L45,106.623047" id="Path-16-Copy-2" stroke="#090F29" stroke-width="12" stroke-linecap="round" stroke-linejoin="round"></path>
                    <line x1="172.936418" y1="0.5" x2="157.59815" y2="39.3145628" id="Path-16-Copy-6" stroke="#090F29" stroke-width="12" stroke-linecap="round" stroke-linejoin="round"></line>
                    <path d="M92.2131105,40.4059854 L150.368757,52.1069621 C152.534494,52.5427107 153.936927,54.6516318 153.501179,56.8173691 C153.348428,57.5765643 152.978582,58.2750956 152.436535,58.8281732 L136.017116,75.5817156 C135.243973,76.370591 135.256727,77.6368567 136.045603,78.4099992 C136.212532,78.5735996 136.406847,78.7066728 136.619726,78.8031777 L188.302709,102.232797 C189.308731,102.68886 189.75456,103.874114 189.298497,104.880136 C188.901943,105.754887 187.939579,106.224246 187.00613,105.998157 L108.076957,86.8808763 C105.929899,86.3608415 104.610936,84.1987355 105.130971,82.0516773 C105.307914,81.3211348 105.68712,80.6552318 106.225122,80.1302983 L120.622115,66.0830163 C121.412707,65.3116287 121.428275,64.0453944 120.656887,63.2548029 C120.550393,63.1456575 120.431766,63.0490497 120.303317,62.9668626 L90.7406916,44.0513537 C89.810279,43.4560335 89.538633,42.2191827 90.1339532,41.28877 C90.5785968,40.5938464 91.4043177,40.2432555 92.2131105,40.4059854 Z" id="Path" fill="#24B0A4" fill-rule="nonzero"></path>
                    <line x1="161.683488" y1="26.7539063" x2="99.9793863" y2="26.7539063" id="Path-2" stroke="#090F29" stroke-width="12" stroke-linecap="round" stroke-linejoin="round"></line>
                </g>
            </g>
        </g>
    </g>
</svg>