<svg height="16" viewBox="0 0 16 16" width="16" xmlns="http://www.w3.org/2000/svg"><path d="m16 3.11519396c-.5886415.25704716-1.2213624.4306959-1.8852836.50881832.6776817-.39990501 1.1982419-1.03315146 1.4432824-1.78775504-.6343208.37037136-1.3368023.63923143-2.0845627.78413631-.5987217-.62804943-1.4518428-1.02039355-2.3960044-1.02039355-1.8128026 0-3.28264506 1.44675752-3.28264506 3.23128451 0 .25326717.02903978.49991937.08503988.73641263-2.72816506-.13474503-5.14688866-1.42124263-6.76593133-3.37626745-.28256043.47723855-.44448093 1.03228452-.44448093 1.62450216 0 1.12111689.57952134 2.1101667 1.46032206 2.68962553-.53808031-.01677391-1.04424094-.16215083-1.48680193-.40415612-.00037316.01346597-.00037316.02701091-.00037316.04063575 0 1.56559558 1.13152262 2.87154412 2.63320455 3.16859794-.27544043.07386948-.56544086.1133242-.86480216.1133242-.21151987 0-.41711946-.02031787-.61760015-.05796158.41776038 1.28374063 1.63000256 2.21797893 3.06648491 2.24396673-1.12344171.8667477-2.53880379 1.3833629-4.07680691 1.3833629-.26496099 0-.52624069-.0153569-.78304147-.0452046 1.45272254.9169133 3.17816512 1.4518774 5.03192832 1.4518774 6.03784978 0 9.33969518-4.9238273 9.33969518-9.19409119 0-.14010001-.0031999-.27941298-.0095194-.41809503.6412803-.45550365 1.1977614-1.02456843 1.6378427-1.67261982z" fill="#fff" fill-rule="evenodd"/></svg>