<?xml version="1.0" encoding="UTF-8"?>
<svg width="16px" height="16px" viewBox="0 0 16 16" version="1.1" xmlns="http://www.w3.org/2000/svg" xmlns:xlink="http://www.w3.org/1999/xlink">
    <title>Icons/Social/Facebook Copy</title>
    <g id="Icons/Social/Facebook-Copy" stroke="none" stroke-width="1" fill="none" fill-rule="evenodd">
        <path d="M6.36363637,10.3214435 L6.36363637,5.67855645 L10.5454545,8.00008871 L6.36363637,10.3214435 Z M15.6656363,4.21768548 C15.4816363,3.54154032 14.9394545,3.00910484 14.2510909,2.82840323 C13.0033637,2.5 8,2.5 8,2.5 C8,2.5 2.99663637,2.5 1.74890909,2.82840323 C1.06054545,3.00910484 0.518363637,3.54154032 0.334363637,4.21768548 C0,5.44312097 0,8 0,8 C0,8 0,10.5567903 0.334363637,11.7823145 C0.518363637,12.4584597 1.06054545,12.9908952 1.74890909,13.1716855 C2.99663637,13.5 8,13.5 8,13.5 C8,13.5 13.0033637,13.5 14.2510909,13.1716855 C14.9394545,12.9908952 15.4816363,12.4584597 15.6656363,11.7823145 C16,10.5567903 16,8 16,8 C16,8 16,5.44312097 15.6656363,4.21768548 Z" id="youtube" fill="#FFFFFF" fill-rule="nonzero"></path>
    </g>
</svg>